<svg width="138" height="407" viewBox="0 0 138 407" fill="none" xmlns="http://www.w3.org/2000/svg">
<g clip-path="url(#clip0_378_3865)">
<path d="M68.1911 169.797C28.6733 147.659 2.59504 103.368 2.40281 58.0673C2.3868 52.2526 2.77124 46.3417 4.86967 40.9275C8.81024 30.7397 18.1811 23.7235 27.568 18.117C47.5432 6.18319 71.8273 -2.09841 93.965 5.06189C119.178 13.2153 134.94 40.3989 135.581 66.8936C136.222 93.3883 124.208 118.778 108.35 140.002C101.574 149.053 93.9009 157.703 84.1936 163.502C76.3766 168.179 66.4931 171.879 63.7539 180.561C68.4634 180.369 73.1729 180.177 77.8984 180.001C75.4956 177.021 73.0928 174.042 70.69 171.062" fill="#3587FC"/>
<path d="M68.1911 169.797C28.6733 147.659 2.59504 103.368 2.40281 58.0673C2.3868 52.2526 2.77124 46.3417 4.86967 40.9275C8.81024 30.7397 18.1811 23.7235 27.568 18.117C47.5432 6.18319 71.8273 -2.09841 93.965 5.06189C119.178 13.2153 134.94 40.3989 135.581 66.8936C136.222 93.3883 124.208 118.778 108.35 140.002C101.574 149.053 93.9009 157.703 84.1937 163.502C76.3766 168.179 66.4931 171.879 63.7539 180.561C68.4634 180.369 73.1729 180.177 77.8984 180.001C75.4956 177.021 73.0928 174.042 70.69 171.062" stroke="#221F20" stroke-width="3" stroke-miterlimit="10"/>
<path d="M70.7701 182.307C77.0333 196.58 78.1707 213.047 73.9578 228.056C71.7312 236.002 68.0149 243.755 68.079 252.004C68.143 260.382 72.0836 268.183 74.5985 276.176C80.0608 293.556 78.6672 312.987 70.7701 329.406C69.5687 331.905 68.1911 334.436 68.0629 337.223C67.8387 341.948 71.1866 345.985 73.8296 349.91C84.8344 366.217 85.347 388.963 75.0951 405.75" stroke="#221F20" stroke-width="3" stroke-miterlimit="10"/>
</g>
<defs>
<clipPath id="clip0_378_3865">
<rect width="138" height="407" fill="white"/>
</clipPath>
</defs>
</svg>
