<svg width="111" height="94" viewBox="0 0 111 94" fill="none" xmlns="http://www.w3.org/2000/svg">
<path d="M26.3049 4.2484L31.2395 10.164C32.6402 11.845 34.118 13.7313 34.0281 15.9127C33.951 17.7862 32.7173 19.403 31.3552 20.6991C29.993 21.9951 28.4381 23.1115 27.3972 24.677C26.3563 26.2425 25.9451 28.424 27.0374 29.951C31.2138 28.6549 35.4288 27.5257 39.6823 26.5505C40.1192 26.4478 40.5818 26.3452 41.0187 26.4222C41.5584 26.512 42.0082 26.8456 42.458 27.1664C43.9101 28.2315 45.3493 29.2965 46.8014 30.3744C46.9042 28.1673 47.007 25.973 47.1227 23.7659C51.0035 23.9456 54.9101 22.0978 57.236 18.9924C57.3902 18.7871 57.5444 18.5561 57.5059 18.2995C57.4673 18.0428 57.2617 17.876 57.069 17.722C54.7302 15.8742 52.1729 14.2959 49.4743 13.0255C49.0246 12.8202 48.5491 12.5892 48.3306 12.1529C48.2278 11.9476 48.1893 11.7166 48.1507 11.4857C47.5725 7.90553 46.9942 4.31256 46.4159 0.732422C44.7711 2.15678 43.1133 3.5683 41.4685 4.99266C41.083 5.32629 40.6589 5.67276 40.1577 5.80108C39.6566 5.91657 39.1297 5.80108 38.6414 5.67276C34.7091 4.68469 30.764 3.70946 26.8318 2.72139C26.4848 3.286 26.4334 4.01742 26.7161 4.62053" fill="#C5DAF0"/>
<path d="M28.4253 3.78621L28.3867 3.79904C28.4767 3.76055 28.4253 3.78621 28.4253 3.78621Z" fill="#C5DAF0"/>
<path d="M27.346 4.78748L27.2432 4.99279L27.7829 4.56934L27.346 4.78748Z" fill="#C5DAF0"/>
<path d="M29.9544 5.45471C29.9287 4.50514 28.9778 5.36488 28.5794 4.92859L28.5537 4.71045L28.1682 5.37772C28.7593 5.40338 29.6203 5.12107 29.9544 5.46754V5.45471Z" fill="#C5DAF0"/>
<path d="M30.8668 7.72575C30.8668 7.35362 31.2395 7.50761 30.5713 7.53327C30.597 7.5846 30.597 7.59743 30.6098 7.63593C30.6612 7.63593 30.7512 7.66159 30.8668 7.72575Z" fill="#C5DAF0"/>
<path d="M30.6099 7.63614C30.3271 7.59764 30.7127 7.96977 30.6099 7.63614V7.63614Z" fill="#C5DAF0"/>
<path d="M31.9335 7.75146L31.4966 7.96961C31.5223 8.18775 31.8307 8.31607 31.6765 8.43156C32.0877 8.35457 32.062 8.13643 31.9335 7.75146Z" fill="#C5DAF0"/>
<path d="M32.4345 7.18701L32.2161 7.27684C32.2161 7.36666 32.2675 7.41799 32.4345 7.18701Z" fill="#C5DAF0"/>
<path d="M31.7534 7.4561L32.216 7.27646C32.2032 7.12247 32.2674 6.82733 32.0104 7.32778C32.1132 7.07114 31.9719 7.30212 31.7534 7.4561Z" fill="#C5DAF0"/>
<path d="M31.5607 7.26361C31.4065 7.0198 31.1752 6.82732 31.6121 6.62201C30.8925 6.57068 30.8282 7.22511 31.5607 7.26361Z" fill="#C5DAF0"/>
<path d="M30.327 4.56898L30.1214 4.23535L29.813 4.47916C29.9672 4.36367 30.2756 4.85129 30.327 4.56898Z" fill="#C5DAF0"/>
<path d="M34.0666 8.77787C34.1309 8.59822 34.0666 8.23893 34.1052 7.99512L33.7839 8.1491C33.8867 8.31592 34.118 8.49557 34.0666 8.77787Z" fill="#C5DAF0"/>
<path d="M34.105 7.99533L34.5933 7.77718C34.2463 7.64886 34.1435 7.77718 34.105 7.99533Z" fill="#C5DAF0"/>
<path d="M32.7428 6.22461L31.9204 6.73789L32.8713 6.25027L32.7428 6.22461Z" fill="#C5DAF0"/>
<path d="M35.5958 9.18844L35.2617 9.56057L35.8271 9.00879L35.5958 9.18844Z" fill="#C5DAF0"/>
<path d="M36.6239 9.36816C36.3669 9.68897 36.701 10.0354 36.4697 10.2151C36.7653 10.2151 37.0737 9.97127 37.3564 9.74029C37.0865 9.84295 36.8681 9.74029 36.6239 9.36816Z" fill="#C5DAF0"/>
<path d="M37.8446 9.41943C37.6776 9.47076 37.5362 9.59908 37.3691 9.7274C37.5105 9.67607 37.6519 9.58625 37.8446 9.41943Z" fill="#C5DAF0"/>
<path d="M35.2487 8.03383C35.2487 8.16215 35.2359 8.47012 35.4286 8.64977L35.4029 8.07232C35.4029 8.07232 35.3001 8.04666 35.2487 8.021V8.03383Z" fill="#C5DAF0"/>
<path d="M35.4031 8.05957C35.5701 8.13656 35.6858 8.17506 35.7372 8.18789C35.6986 8.17506 35.5958 8.13656 35.4031 8.05957Z" fill="#C5DAF0"/>
<path d="M35.2104 8.0207H35.249C35.249 8.0207 35.249 7.95654 35.2104 8.0207Z" fill="#C5DAF0"/>
<path d="M33.6812 6.96867C33.9896 6.72486 34.5678 6.53238 34.1952 5.96777C33.9382 6.28857 34.1438 6.62221 33.6812 6.96867Z" fill="#C5DAF0"/>
<path d="M35.1844 7.31496L34.786 7.08398C34.7603 7.22514 34.786 7.45611 34.6318 7.5716L35.1844 7.31496Z" fill="#C5DAF0"/>
<path d="M35.4287 7.19971L35.1846 7.3152L35.3259 7.39219L35.4287 7.19971Z" fill="#C5DAF0"/>
<path d="M37.2151 8.73943C37.4592 8.55979 37.6648 8.58545 37.8961 8.61111C37.6777 8.4443 37.4464 8.32881 37.2022 8.26465C37.1251 8.41863 36.9452 8.70094 37.2022 8.73943H37.2151Z" fill="#C5DAF0"/>
<path d="M36.3411 8.36735L36.3925 8.34168C36.3925 8.34168 36.3668 8.26469 36.3411 8.36735Z" fill="#C5DAF0"/>
<path d="M37.1893 8.14948C37.0351 7.9955 36.8937 8.09815 36.7395 8.2393C36.8937 8.21364 37.0479 8.22647 37.2021 8.25214C37.2407 8.17514 37.2535 8.13665 37.1893 8.13665V8.14948Z" fill="#C5DAF0"/>
<path d="M36.4182 8.5083C36.4182 8.5083 36.3925 8.52113 36.3796 8.52113C36.4053 8.64945 36.4182 8.59813 36.4182 8.5083Z" fill="#C5DAF0"/>
<path d="M36.4183 8.50873C36.5339 8.4574 36.6367 8.34191 36.7395 8.23926C36.6239 8.25209 36.4954 8.29059 36.3926 8.34191C36.4054 8.38041 36.4183 8.44457 36.4183 8.50873Z" fill="#C5DAF0"/>
<path d="M38.5128 8.66249C38.8341 8.17487 39.5666 8.00805 39.2067 7.36645C38.4743 7.28946 38.6156 7.72575 38.1787 7.87973C39.271 7.98239 37.7546 8.11071 38.5128 8.59833C38.243 8.63682 38.0502 8.62399 37.896 8.59833C38.0631 8.72665 38.2301 8.84214 38.3972 8.97046L38.3715 8.93196C38.3329 8.85497 38.3201 8.80364 38.3715 8.85497H38.3972C38.4229 8.77798 38.4614 8.72665 38.5 8.66249C38.8726 8.84214 38.5257 8.81647 38.3972 8.85497C38.3972 8.88063 38.3715 8.9063 38.3586 8.93196C38.8084 8.93196 39.3995 8.93196 40.1191 8.76514C39.6694 8.72665 39.1168 8.72665 38.4871 8.66249H38.5128Z" fill="#C5DAF0"/>
<path d="M34.9277 4.91553C34.9277 4.91553 34.9277 5.00535 34.9277 5.04385C34.992 4.99252 35.0305 4.95402 34.9277 4.91553Z" fill="#C5DAF0"/>
<path d="M35.1845 5.32625C35.1074 5.39041 35.0046 5.58289 34.8247 5.48023C34.6962 5.27492 34.889 5.22359 34.9275 5.04395C34.7733 5.15943 34.4264 5.32625 34.7219 5.67271L34.799 5.60856C35.0817 5.87803 35.3388 6.64795 35.2617 6.71211C35.2874 6.21166 35.2874 5.83953 35.1845 5.31342V5.32625Z" fill="#C5DAF0"/>
<path d="M36.8296 6.85303L37.5749 6.7632L37.3436 6.21143L37.2922 6.49373C36.9324 6.28842 36.9324 6.64772 36.8296 6.85303Z" fill="#C5DAF0"/>
<path d="M36.5081 30.708L36.1997 31.2598C36.7009 31.2085 36.4696 30.9646 36.5081 30.708Z" fill="#C5DAF0"/>
<path d="M30.4555 14.4626C30.4555 14.4626 30.4684 14.4241 30.4941 14.3984C30.4298 14.4369 30.4298 14.4498 30.4555 14.4626Z" fill="#C5DAF0"/>
<path d="M29.8003 4.60742C29.8774 4.64592 29.9673 4.76141 30.0573 4.85123C30.0573 4.77424 29.9802 4.69725 29.8003 4.60742Z" fill="#C5DAF0"/>
<path d="M24.9042 26.7429C24.9042 26.7429 24.9428 26.7044 24.9685 26.6788C24.7629 26.5633 24.7886 26.6403 24.9042 26.7429Z" fill="#C5DAF0"/>
<path d="M40.3505 29.7455C40.3762 29.9251 40.389 30.1048 40.389 30.2972C40.0549 31.1057 40.1577 30.8362 40.0678 31.5676C40.1834 30.6565 40.2991 30.618 40.389 30.618C40.479 30.618 40.5689 30.6309 41.0315 29.8866C41.0058 30.0149 40.9673 30.1433 40.9287 30.2716C40.9159 30.2459 40.8516 30.3229 40.8388 30.2972C40.4661 31.0672 41.7512 29.4118 42.2138 30.0534C42.3551 30.3229 42.368 30.6437 42.0853 30.695L42.8435 30.7207C42.972 30.8618 42.7535 31.0672 42.625 30.9388L43.4731 31.4008L43.4346 31.4393C43.7044 31.2981 44.2056 31.1441 44.4369 31.0928C44.4883 31.4393 44.2313 31.1698 44.1542 31.3751L44.8353 31.3495C44.7453 31.8371 44.1285 31.9269 43.8715 31.6574C43.229 33.3513 44.4883 31.5676 44.7453 33.0176L44.2056 32.9021C44.0386 33.4026 44.09 33.6336 44.2056 33.8517L46.4544 38.4841L51.1063 30.5795C51.222 30.3742 51.2991 30.1432 51.6203 29.8866C51.3762 29.9764 50.6437 30.4897 50.104 30.541L44.8096 33.0561C44.8481 32.9791 44.8867 32.9278 44.9381 32.8765L49.8855 30.5282C49.7699 30.5025 49.6799 30.4512 49.6157 30.3486C49.757 30.1946 49.8341 29.9764 49.4871 29.6556C50.104 29.6813 49.9755 29.3733 49.9498 28.9884L50.7722 29.0525C50.5537 28.6291 50.1297 28.6419 49.7827 28.3853C49.8084 28.2698 49.8727 28.1799 49.9498 28.1158C50.0269 28.0645 50.1297 28.0645 50.2582 28.0516C50.4895 28.0516 50.785 28.0516 51.0549 28.0773C51.1192 28.026 50.8621 28.0003 50.5794 27.9875C50.2839 27.9746 49.9626 27.9875 49.8984 27.795C50.2196 27.6153 49.8984 27.4485 49.4357 26.8069C49.7185 26.7684 49.9241 27.1149 50.1554 27.179C49.9498 27.0122 49.7313 26.8326 49.5257 26.6273C49.5386 26.5888 49.7442 26.7428 49.8341 26.8069C49.59 26.4861 49.0374 26.268 48.8318 25.7932C48.5362 25.5365 48.5876 25.4724 48.7547 25.4981C48.8318 25.4981 48.9474 25.5365 49.0502 25.5622C49.2044 25.6392 49.3586 25.729 49.4871 25.806C49.7313 25.9215 49.8341 25.9343 49.6928 25.6264C49.9498 25.8317 50.0397 26.0755 50.3096 26.3578C50.2325 26.0498 50.2582 25.9343 50.2453 25.7804C50.2453 25.6264 50.2068 25.4724 50.2068 25.0104C50.4252 25.1516 50.618 25.3056 50.8107 25.4467C50.2839 24.9334 50.3353 24.1764 50.6822 23.4834C50.4509 23.2268 50.2325 23.0086 50.0911 22.9188C50.3353 22.7135 50.5794 22.5082 50.7079 22.3029C50.8236 22.4055 50.8621 22.6878 50.8493 23.0471C50.875 22.9701 50.9007 22.8931 50.9135 22.8162C51.2605 23.0215 51.3376 23.4963 51.2477 24.0095C51.0935 23.894 50.9392 23.7529 50.7979 23.6117C50.7336 24.1379 50.785 24.7025 50.965 25.1516C50.965 25.0489 51.0164 24.9591 51.0806 24.8949C51.0806 25.0361 51.0935 25.1516 51.132 25.2286C51.1706 25.3056 51.1577 25.1259 51.2862 24.8693C51.4533 25.1388 51.6203 25.4082 51.8002 25.6649L51.7488 25.3056C52.2757 25.3569 52.8283 25.3184 53.4194 25.3056C53.9848 24.0224 53.7021 22.6493 54.3318 21.8153C54.6659 22.3799 55.2313 22.5082 55.9252 22.983C55.3984 22.8675 55.2442 23.06 55.09 23.3679C54.9486 23.6759 54.7687 24.0737 54.3446 24.2148C54.7815 24.0609 54.9743 24.3945 54.9614 24.5485C55.257 24.0994 55.4755 23.6246 55.6682 23.2011C56.1951 23.6374 56.3364 23.3166 56.889 23.214C55.5269 22.6622 56.9533 22.0719 56.9147 21.5201C57.3773 21.6613 57.75 21.9564 57.0946 22.3927C57.8657 22.3542 57.6986 21.9821 57.4544 21.6613C57.2231 21.3276 56.9533 21.0582 57.6215 20.9298C57.5187 21.0453 57.403 21.0967 57.5829 21.2122C57.5572 21.1223 57.5829 21.0197 57.6343 20.917C57.8271 20.609 58.3797 20.2754 58.5853 20.4679C58.5596 20.5064 58.5339 20.5577 58.5082 20.5962C58.7009 20.3909 58.9065 20.1086 59.0736 19.8135C59.2021 19.5055 59.3435 19.1975 59.382 18.8896C59.4206 18.5944 59.3435 18.2479 59.0993 18.0426C58.868 17.8373 58.5596 17.7475 58.2512 17.7475C58.3925 17.7218 59.6776 17.7218 59.9217 17.7732C58.4311 17.3754 56.7605 17.1957 54.5888 17.3625C54.9229 17.2984 55.3598 17.2086 55.8096 17.0802C56.2079 16.9776 56.6449 16.8493 57.0689 16.7338C57.8914 16.5156 58.7266 16.3488 59.2664 16.6311C59.2921 16.413 59.2664 16.105 58.5339 15.8099C58.5082 16.0023 57.2874 16.5413 57.0304 16.413C57.4159 16.0408 57.4673 15.9125 57.5058 15.7842C57.5315 15.643 57.5701 15.5147 57.66 15.0271C57.66 15.2966 55.8481 15.7457 55.604 15.5276C55.8867 15.4506 57.0561 14.7833 57.3516 14.809C56.5292 14.809 55.771 14.8475 55.0514 14.9501C55.5012 14.9501 56.2336 14.2828 56.3621 13.8722C56.2208 14.116 55.5012 13.2435 55.09 13.1665C55.1542 13.3461 55.2185 13.5129 55.2699 13.6797C54.2547 12.7687 52.764 14.501 52.0187 14.0005C52.2757 13.7952 53.2395 12.5762 52.8283 12.1399C52.5456 12.4094 51.903 13.0638 51.2091 13.6797C50.5023 14.2828 49.8727 14.9116 49.1659 14.886L49.2044 14.4368C48.8703 14.4497 48.5362 14.4497 48.1764 14.4368C48.7804 14.1417 49.7442 13.6412 50.4895 13.0766C51.1834 12.4864 51.993 11.9859 52.4813 11.7293C52.3143 11.2545 52.6227 11.2417 52.1086 11.0107C52.1086 10.5616 52.6612 10.6129 52.8154 10.677L52.2885 10.2536C52.16 10.1638 52.2114 10.1638 52.1857 10.1253L52.16 10.0354C51.7231 10.7797 51.3633 10.6129 50.8493 11.1647C51.2734 11.0363 51.6332 10.8824 51.9159 10.6899C51.7231 11.0748 51.3762 11.5881 50.9135 11.8961C50.4638 12.2169 49.8855 12.3452 49.6285 12.1142C49.757 11.7806 50.9007 11.0363 51.0806 10.8054C50.8236 11.0235 50.271 10.9722 50.4381 10.7797C50.618 10.7284 50.785 10.677 50.9521 10.6001C51.0035 10.4204 50.7079 10.5487 50.4638 10.5872C50.2196 10.6257 50.0397 10.5616 50.3995 10.2151C50.4252 10.0611 51.4147 9.53499 50.9264 9.70181C49.9883 10.1253 47.1355 11.524 46.3773 11.4983C46.4159 11.3571 47.0584 9.85579 47.5339 9.67615C47.8937 9.44517 48.3563 9.44517 48.8189 9.50933C49.2815 9.58632 49.7313 9.66331 50.0397 9.458C49.8084 9.47083 49.4743 9.29119 49.3715 9.21419C49.5257 8.89339 50.104 9.1757 49.8984 8.57259C49.0374 8.72658 49.7699 7.32788 49.1402 8.50843C48.8061 8.04648 49.2173 7.854 49.0759 7.18673C48.8318 7.43054 48.3563 7.52036 47.9065 7.55886C47.4696 7.58452 47.0584 7.59736 46.9171 7.48187C47.1227 7.35355 47.3668 7.07124 47.4825 6.93009C47.4054 5.98052 47.6752 5.09511 47.521 4.14554C47.6881 3.83757 47.8166 3.05481 48.1635 2.82384C48.0093 2.8495 47.7523 3.06765 47.6752 2.79817C48.1892 1.21983 47.8808 3.36278 48.5491 1.77161C48.125 2.33622 47.8423 1.77161 47.521 1.79727C46.9299 3.02915 47.5467 2.92649 47.8937 3.02915C46.9942 4.27386 45.9661 5.01812 45.4907 5.19776C45.2079 5.12077 45.9918 3.90173 45.8633 4.05571C45.8505 3.36278 45.465 3.92739 45.1437 4.47917C44.9895 4.74864 44.8481 5.00528 44.771 5.06944C44.7196 5.06944 44.6425 5.15927 44.6554 4.8898C44.8867 3.82474 45.5035 2.42604 45.7734 1.5663C45.9147 1.36099 46.0175 1.27116 46.0818 1.2455C46.1075 1.2455 46.1332 1.2455 46.1589 1.25833C46.1589 1.30966 46.1332 1.45081 46.1203 1.55347C46.0561 1.98975 45.9533 2.43888 45.9918 2.58003L46.1589 1.5663C46.3516 1.30966 46.5444 1.38665 46.4287 1.93843C46.5315 1.59196 46.5572 1.25833 46.5572 0.924696C46.5572 0.757879 46.5444 0.591063 46.5315 0.424246C46.5315 0.283094 46.4673 0.38575 46.4159 0.424246L46.236 0.565399C45.7477 0.963192 45.1951 1.39948 44.8738 1.30966C44.6297 1.81011 44.3213 2.38755 44.347 2.70835L44.6168 2.36188C44.604 3.08048 43.9614 3.90173 44.1285 4.08138C43.7301 4.91546 43.4089 5.96769 43.1776 5.77521V4.77431C43.1776 5.06944 43.3575 5.22343 43.486 4.79997C43.3832 5.10794 43.3061 4.83847 43.1776 4.72298C43.0491 4.60749 42.882 4.63315 42.8178 5.33892C42.9077 5.4929 42.972 5.65972 43.0362 5.83937C42.7792 6.55796 42.6893 7.70001 42.4965 7.54603C42.7021 8.35445 42.5479 7.39204 42.7535 8.36728C42.5607 7.10974 43.1005 8.12347 42.9591 6.75044C43.0362 8.00798 43.1776 7.12257 43.139 8.30312C43.1904 7.93099 43.2033 7.62302 43.2804 7.71284C43.3061 7.59736 43.3446 7.44337 43.3575 7.35355V7.37921V7.34072C43.3703 7.27656 43.3703 7.26372 43.3575 7.32788C43.3575 7.18673 43.3575 7.00708 43.3832 6.80177C43.5888 5.86503 43.8972 5.62122 44.1414 5.03095C44.2056 5.1336 43.9743 5.55706 43.9229 5.94202L44.2827 5.05661C44.0514 5.98052 44.0385 6.48097 43.6916 7.19956L43.8201 7.12257C43.7687 7.36638 43.743 7.5332 43.743 7.58452C43.743 7.63585 43.8201 7.52036 43.8972 7.37921C43.8201 7.67435 44.3984 6.4938 44.0514 7.19956C44.1542 7.09691 44.2699 7.01991 44.3727 6.95575L44.2699 7.18673C44.2699 7.41771 44.4883 7.23806 44.6168 7.31505C44.7453 7.36638 44.7839 7.66152 44.3855 8.43144C44.5269 8.38011 44.7068 8.36728 44.5911 8.72658L44.1671 9.18853C44.347 9.20136 43.7687 9.89429 44.257 9.59915C43.0491 10.5231 44.0386 10.1124 43.8843 10.6001L44.5397 10.5359C44.6425 11.3058 44.8867 12.0501 45.4007 12.7815L45.9147 12.4735C46.236 12.7045 46.2617 13.1665 46.4416 13.6797C46.6215 14.193 46.9171 14.7191 47.4439 15.0143C47.2255 15.1426 47.007 14.9244 46.9428 14.6935C47.0199 15.6045 47.9836 15.8355 48.8061 15.9253L49.1145 15.9638C49.1145 15.9638 49.2173 15.9638 49.2815 15.9895H49.3715C49.5 15.9895 49.6157 15.9895 49.7313 16.0023C49.9498 16.0537 50.1168 16.182 50.1811 16.49C50.4381 16.3873 50.5794 16.5541 50.5537 16.7081C50.5537 16.7081 50.528 16.7081 50.5152 16.7209C50.5152 16.7209 50.528 16.7466 50.5409 16.7466C50.5152 16.8493 50.5023 16.9647 50.4766 17.0674C50.528 16.9391 50.5537 16.8236 50.5666 16.7594C50.6308 16.7851 50.7593 16.7594 50.9521 16.7209L50.5923 17.2214C50.5923 17.2214 50.6051 17.2214 50.618 17.2214C50.528 17.4395 50.8878 17.0417 51.1449 16.6568C51.2605 16.6054 51.4019 16.5541 51.5561 16.4643C51.2348 16.8621 51.3505 16.8364 51.4918 16.8236C51.6203 16.8236 51.7745 16.8236 51.3505 17.1957C51.8773 16.9006 52.1729 17.2599 53.4708 16.7851C53.3166 16.8621 53.278 16.9134 53.2009 16.8749C53.2138 17.0417 53.2009 17.1829 53.715 17.1572L52.8026 17.5037C53.3294 17.4267 53.882 17.3754 54.4731 17.3497C54.0491 17.6705 53.6635 17.7475 52.6998 17.8245C53.5093 17.8245 53.7407 17.8758 53.9334 17.9015C54.139 17.9528 54.3318 17.9528 55.2442 18.0811L54.4217 18.1325C54.6016 18.2095 55.7068 18.5303 54.9357 18.6201C53.9077 18.7997 53.6764 19.1975 53.2009 19.5825C52.8668 19.852 52.4171 20.0958 51.8002 20.0188C52.597 20.4551 52.3528 20.4037 52.0444 20.3267C51.7488 20.2497 51.4276 20.1214 51.903 20.5577C51.5561 20.3267 51.3248 20.2241 51.1577 19.9418C51.1577 20.1471 50.9393 20.0958 50.8107 20.0958C50.6694 20.0958 50.6308 20.1214 50.785 20.5962C50.5666 20.3011 50.5666 20.1214 50.4252 19.9418C50.4509 20.0188 50.5023 20.2369 50.3738 20.0701C50.2453 19.8904 50.2582 19.7878 50.2068 19.6466C50.0783 19.7621 50.4252 20.7887 50.7593 21.7639C50.5409 21.5843 50.4252 21.5073 50.3481 21.5714C50.2325 21.6356 50.0911 21.8538 50.0397 22.2131C49.7699 21.9307 49.3329 21.6484 49.9369 21.4046C49.7056 21.5201 47.1869 21.148 47.7138 21.9564C47.4439 21.7639 47.1098 21.9179 47.097 22.0077C46.4416 21.9821 46.1846 21.9436 45.7477 21.9307C45.722 21.9821 45.6063 22.0334 45.5549 22.2259C45.5806 22.1746 45.7091 22.2259 45.7734 22.2259C46.1332 22.7135 46.2103 22.9316 46.146 23.0728C46.0818 23.2139 45.9147 23.3294 45.9661 23.6759L45.8633 23.5861C45.4778 24.048 45.5549 24.2918 45.6192 24.4843C45.6834 24.6896 45.7348 24.8308 45.2979 25.3954L45.9019 25.5622C46.5444 25.9087 46.3516 26.0755 46.0304 26.3578C45.722 26.6273 45.2979 27.0892 45.5292 27.5255L45.889 27.2689C46.3259 27.7693 44.0386 28.2569 43.8586 28.5906C43.743 28.6676 43.6787 28.4623 43.6016 28.3468C42.7792 29.2193 44.3984 28.5007 44.5526 29.1937C44.1157 29.2963 43.4603 28.9755 43.3575 29.4375C43.2033 29.5273 43.4346 29.7968 43.6787 30.1304L48.7804 27.7052C48.2407 27.7308 47.611 27.718 47.611 27.1277C47.521 27.4742 47.4311 27.8335 47.0327 27.8463C46.5701 27.6538 46.7243 26.0498 45.7477 26.6401C45.7477 26.5246 45.7862 26.4476 45.8376 26.3706C45.375 26.3706 44.5911 26.0242 44.0771 26.345C44.5911 25.4211 43.6787 25.0104 42.9463 24.9206C42.2009 24.7923 41.5456 24.9463 41.7383 23.9839C41.1857 23.894 40.6203 23.9325 40.0806 24.048L40.1192 23.8427C39.0012 23.8812 38.7442 24.4972 38.5514 25.0233C38.3586 24.9334 38.4229 24.7281 38.4229 24.6255C37.6776 24.4202 37.8318 24.4587 37.0993 25.6649L37.125 24.9976C37.0222 25.2157 36.8166 25.0104 36.6238 24.8564C36.4182 24.7025 36.2512 24.587 35.75 25.1003C35.8014 25.0104 35.8914 24.8564 35.9813 24.741C35.4416 25.2671 35.3388 24.8436 35.3259 24.587C35.2745 24.3432 35.2103 24.3175 33.7196 25.9087C33.347 26.2038 32.9357 26.5118 32.5117 26.8198C32.743 26.8454 32.4217 27.1919 31.9848 27.6025C31.5607 28.0003 30.9953 28.4751 30.9439 28.6804C30.3528 28.9755 30.9825 27.949 31.5479 27.6667L31.4579 27.8078C33.2185 26.0883 31.1238 27.4485 32.4089 26.2551C32.0876 26.3578 31.8435 26.3963 31.6635 26.3835C31.5864 26.3578 31.4708 26.422 31.4579 26.2808C31.4579 26.114 31.4708 25.9343 31.5093 25.7675C31.6636 25.0489 32.0748 24.4073 32.229 23.9967L30.2886 24.9206C30.3528 24.7666 30.4299 24.6255 30.5199 24.4843C30.9953 24.2148 32.0234 23.8299 31.8692 24.0609C32.9614 23.5476 31.111 24.048 30.7383 24.1379C31.2266 23.7657 31.7278 23.6759 32.139 23.5989C32.5502 23.5347 32.8715 23.4834 32.9229 23.4321L32.8458 23.3423L32.6145 23.4449C31.9334 23.5732 31.1624 23.7657 31.4322 23.4706C31.8949 23.2268 32.5502 23.137 32.653 23.06C32.7687 23.0343 32.8458 23.0086 32.7558 22.9701C32.8843 22.8675 33 22.7648 33.1285 22.675C32.6787 22.7777 32.229 22.8803 31.7535 23.0086C31.2652 22.9573 32.139 22.6493 30.5713 23.0343C31.7921 22.7135 32.2675 22.4055 32.6016 22.1232C32.9229 21.8409 33.1157 21.5458 33.4241 21.5201C33.0128 21.1993 33.3213 20.9427 33.6554 20.6732C33.4498 20.6732 32.5888 20.4037 32.9871 20.1086C33.7068 20.5705 34.0023 20.5449 34.2208 20.4679C34.3878 20.4679 34.8119 20.0059 35.4673 20.1343C34.979 20.1214 35.2231 19.6851 35.3645 19.236C35.5058 18.7741 35.5444 18.3378 34.8633 18.4404C35.2231 17.9913 35.4544 18.6842 36.0199 18.4404C36.007 17.5935 36.3154 16.8364 36.5339 15.9125C36.7395 15.0399 36.778 13.9492 36.3668 13.0766C36.1484 13.128 35.9042 13.5129 35.4801 13.2691C35.7371 12.8713 35.9685 12.435 36.1612 11.9859C35.9042 11.7036 34.8633 12.2939 35.2745 11.4085C35.146 11.5753 34.9661 11.8191 34.7991 11.6779C34.4907 10.0611 33.3341 9.08587 32.4474 8.1748C31.5222 7.23806 30.6869 6.2115 30.6484 4.54333C30.5327 5.09511 30.3528 4.94112 30.1729 4.74864C30.1986 4.95396 29.736 5.10794 29.5304 5.32608L29.4918 3.94022C28.7079 4.32519 28.6951 3.08048 28.0012 3.51677L28.3353 3.68358C27.3072 3.94022 27.1145 5.54423 26.125 6.27566C27.2944 5.96769 25.7523 8.35445 27.4871 7.99515C27.41 8.30312 27.0759 8.12347 26.9217 8.38011C27.4614 8.21329 27.7185 8.32878 27.8341 8.8549L27.7056 8.89339C28.6565 9.84296 28.6437 10.6257 29.3248 11.9859L29.7231 11.5111C29.8645 11.8063 29.7488 11.9731 29.7231 12.1784C30.6612 11.8704 29.2091 11.4726 30.1986 11.0748C29.5304 12.1784 31.535 12.7943 30.4428 13.7439C30.6355 14.0647 30.9825 13.2691 31.1752 13.6028L30.8925 13.8851L31.368 13.7182C31.4194 13.9749 31.0467 14.2957 30.7512 14.4368C30.7512 14.3727 30.597 14.347 30.5584 14.3213C30.2886 14.7576 30.9825 14.8731 30.8668 15.0014C30.9182 14.9116 30.9696 14.809 31.0082 14.6935C31.3294 15.0143 31.3423 15.3094 31.368 15.6559C31.368 16.0023 31.368 16.2462 31.535 16.7851L31.8178 16.8493C31.9077 17.2727 31.7407 17.3882 31.5607 17.4524C31.4708 17.4909 31.368 17.5165 31.278 17.5935C31.1752 17.6705 31.1367 17.7347 30.8925 18.1196V18.0426C30.8925 18.4533 30.764 18.8126 30.4299 19.082C30.4171 18.6329 29.222 19.3258 29.2477 18.7869C28.8878 19.5055 28.8878 19.6723 28.9778 19.8263C29.0806 19.9674 29.2862 20.1086 29.5946 20.5705L28.8621 20.609C29.1577 20.9298 29.4276 20.994 29.132 21.456C28.9907 21.0197 27.8855 21.6998 27.6285 21.1608C26.4206 21.6741 26.4206 22.1617 26.4463 22.4697C26.4591 22.8033 26.472 22.9958 25.3154 23.3679C26.6904 23.6631 26.9217 22.367 27.1145 22.6108C27.8598 22.3927 28.104 22.8931 27.6928 23.1755C27.41 23.4578 25.097 23.9967 24.75 24.9206C24.8014 24.8308 24.6857 24.8436 24.7243 24.7538C24.1717 25.2029 24.9813 25.2799 24.2103 25.9087C25.0327 25.8702 24.0175 26.5118 25.1227 26.2038C25.1227 25.9472 25.1227 25.6905 25.1227 25.4339C25.2769 25.8445 26.3692 25.806 25.5981 26.8454C25.3925 26.8711 25.1612 26.7428 25.0327 26.6273C24.6729 26.9994 25.1612 27.0122 24.8143 27.3972C23.7605 27.7693 24.7114 26.3835 24.0175 26.1268C23.4778 26.5631 24.6215 26.8967 23.4778 27.0507C24.9042 26.8839 23.2208 28.1671 24.3516 28.3853L23.7605 28.6291C23.8762 28.6932 24.1589 28.7831 24.1846 29.0012H23.375C24.0818 29.2578 23.1051 30.4769 23.6963 30.8362C23.2079 29.6685 24.2231 30.1689 24.4416 29.4375C24.9942 29.9123 24.7628 30.3101 24.493 30.7977C24.3645 31.0415 24.2231 31.2981 24.1974 31.5804C24.1974 31.7216 24.1974 31.8756 24.2617 32.0296C24.3388 32.1322 24.5572 32.0424 24.8014 32.0167C24.6472 32.0552 24.493 32.0167 24.4416 31.9654C24.4544 31.7729 24.5701 31.5933 24.7757 31.6574C24.9813 31.7216 25.264 31.7858 25.2383 31.9782C26.5105 31.7473 25.5082 31.5933 26.2664 31.2853C26.1379 31.7216 27.0245 31.003 27.6414 30.7592L27.2558 31.1826C28.2967 31.2596 28.3481 30.2331 29.1706 30.3742C28.875 30.6052 28.5537 30.8362 28.2325 31.0672L28.9521 30.8105L28.4638 31.3366C29.4019 30.8618 29.5175 30.926 30.0958 30.9902C30.1343 30.6822 30.6484 30.1304 31.1881 30.0149C31.4194 30.2331 30.764 30.5025 31.5736 30.3101C31.278 30.6437 30.8797 31.0415 30.7512 30.6565C30.6355 30.8105 30.4171 30.9773 30.3014 31.1313C30.5713 31.4008 31.368 31.0672 31.6635 31.0158C31.5479 31.0158 31.4194 31.0158 31.3808 30.9388C31.882 30.6565 32.3446 30.3742 32.7944 30.0791C32.9229 30.2331 32.7301 30.4127 32.5374 30.5795C32.7944 30.4897 33.0257 30.2331 33.3727 30.1304C33.1799 30.5539 33.1028 30.9902 32.5117 31.2468C32.9486 31.0543 33.3855 30.849 33.7967 30.6437C33.8353 30.8105 34.3107 31.08 34.1308 31.2596C34.7991 31.4521 35.8271 30.2202 36.6495 30.4512C36.6881 30.3614 36.778 30.2587 36.9579 30.1689C37.729 30.1689 38.5771 30.6694 39.3995 29.8866L39.7722 30.2844L39.9521 30.695C40.1834 30.4256 39.4252 29.6556 39.8878 29.1808C40.1706 28.8087 40.0678 29.9379 40.1449 30.1689C40.1706 29.9251 40.2477 29.553 40.389 29.3477C40.5175 29.1295 40.6974 29.1039 40.7103 29.5273C40.5946 29.6685 40.5689 29.5273 40.479 29.5786L40.3505 29.7455ZM49.6157 30.3486C49.6157 30.3486 49.7056 30.4512 49.7699 30.5025L50.9778 31.7986L45.0409 32.7482C44.8481 32.7738 44.6425 32.7866 44.7325 32.53C45.1565 32.1707 45.1951 32.2862 45.2208 32.5043L45.4135 33.9929L49.4614 30.5025C49.4614 30.5025 49.5643 30.4127 49.6157 30.3614V30.3486ZM52.2757 24.2277C52.2371 24.4587 51.993 24.4587 51.6974 24.3047C51.8388 24.2148 52.0187 24.1635 52.2757 24.2277ZM44.1157 6.4553C44.1157 6.4553 44.1285 6.41681 44.1414 6.39114C44.0771 6.75044 44.1028 6.60929 44.1157 6.4553ZM44.0643 6.16017C44 6.32698 43.9486 6.46814 43.91 6.60929C44.0128 6.32698 44.0643 6.26282 44.09 6.30132C44.1671 6.03185 44.2056 5.86503 44.0514 6.16017H44.0643ZM32.1647 23.2396L31.8306 23.3551C31.5993 23.3038 31.8692 23.2781 32.1647 23.2396Z" fill="#C5DAF0"/>
<path d="M36.5597 30.6055H36.534C36.534 30.6055 36.5083 30.6696 36.5083 30.7081L36.5597 30.6055Z" fill="#C5DAF0"/>
<path d="M29.4147 3.05486L29.3762 2.58008L29.1963 3.05486H29.4147Z" fill="#C5DAF0"/>
<path d="M28.1938 3.10604L28.772 2.50293L28.0396 2.8109C28.1295 2.84939 28.2837 2.93922 28.1938 3.11887V3.10604Z" fill="#C5DAF0"/>
<path d="M95.5047 44.3357C95.2734 44.4897 95.055 44.6694 94.8365 44.8618C94.2454 43.7069 94.9265 43.1167 93.937 43.5658C94.708 43.9764 94.4895 44.6822 94.4638 45.4264C94.4253 46.1707 94.5666 46.9663 95.4533 47.0689C95.3505 47.2229 95.2477 47.3769 95.1449 47.5309C95.1449 47.3897 95.0293 47.3641 95.0293 47.2229C94.3225 48.1853 96.43 48.0057 96.3143 48.9552C96.2244 49.2376 96.0059 49.4557 95.7617 49.3145L96.2758 49.815C96.2758 49.9818 95.9673 49.9946 95.9673 49.815L96.2372 50.6619H96.1858C96.4814 50.7517 96.944 50.9571 97.1367 51.0725C96.9183 51.3292 96.9311 50.9955 96.7255 51.0725L97.2138 51.496C96.8026 51.7655 96.3015 51.4318 96.3143 51.0854C94.6694 51.804 96.8155 51.419 95.9545 52.5482L95.6589 52.1248C94.7209 52.5739 95.1321 52.869 94.6052 53.485C94.9008 53.3181 95.9802 52.2146 96.4942 52.6637C96.3914 52.8305 96.3529 53.0358 96.7512 53.2668C96.1344 53.3695 96.3272 53.6133 96.4171 53.9597L95.6075 54.0624C95.6075 54.0624 95.6846 54.1394 95.7103 54.1522L100.298 50.4951C100.324 50.4181 100.337 50.3411 100.362 50.2641L100.388 50.1871L100.349 50.2898C100.298 50.4438 100.234 50.6106 100.144 50.7389C100.067 50.6234 100.298 50.0075 100.555 49.5455C100.375 49.2889 100.247 50.5593 99.8096 50.4694C99.7454 50.2513 99.604 50.1486 99.3599 50.0973C99.2699 50.0973 99.0386 50.0203 98.8202 49.969C98.6017 49.9177 98.3447 49.8792 98.0877 49.8407C97.7279 49.2504 98.4218 49.4557 98.3447 49.1221C98.0877 49.2119 97.8307 49.3145 97.5994 49.4172C97.4965 49.3274 97.6122 49.1734 97.6765 49.0836C97.1881 49.0964 97.3038 49.815 96.687 49.7252C96.4685 50.123 96.3143 49.661 96.0059 49.2119C95.7103 48.7756 95.1963 48.3521 94.7723 48.8526C94.5795 48.6088 94.8879 48.3521 94.8494 48.0313C94.2325 48.3393 94.0141 48.5061 93.8085 48.6729C93.6157 48.8526 93.4358 49.0707 93.1274 49.661C92.8704 49.5584 92.6005 49.4814 92.3307 49.43C92.9989 49.7893 92.5363 50.8031 92.4206 51.6243C92.6648 51.8168 92.8447 52.0093 92.9475 52.0863C92.819 52.3429 92.7162 52.5995 92.6262 52.8434C92.5106 52.7664 92.4206 52.4841 92.3564 52.1119C92.3564 52.2018 92.3435 52.2788 92.3564 52.3557C92.0223 52.2274 91.868 51.7526 91.8295 51.2137C91.9837 51.3035 92.1379 51.4062 92.2921 51.5088C92.2407 50.9442 92.2279 50.3026 92.0094 49.8792C91.9837 49.9946 91.9194 50.1358 91.8295 50.2513C91.8295 50.0973 91.8166 49.9561 91.7524 49.892C91.6881 49.8278 91.6753 50.0588 91.6239 50.3283C91.4311 50.0845 91.2255 49.8535 91.0199 49.6225L91.1356 49.9818C90.6987 50.046 90.1075 50.2256 89.7991 50.2128C89.7734 51.3548 90.069 52.8049 89.4008 53.7288C89.2337 53.023 88.8225 52.792 88.3727 52.1376C89.0923 52.6637 88.8482 51.3677 89.4008 51.188C89.118 51.2778 88.951 50.9314 88.9381 50.7774L88.5655 51.9708C88.2057 51.419 88.1157 51.6885 87.743 51.6115C88.6426 52.5482 87.6274 52.7407 87.5246 53.2925C87.2547 52.946 87.0877 52.5354 87.5503 52.3429C86.5479 51.8553 87.833 53.9854 86.9335 53.6133C87.0234 53.5363 87.1134 53.5491 87.0363 53.3438C87.0363 53.8186 86.2909 53.9597 86.201 53.562L86.2909 53.485C85.5456 53.8186 84.2991 54.858 84.826 55.8204C84.736 55.7049 84.1578 54.6783 84.0678 54.473L85.0059 58.297C84.569 57.4501 82.8984 55.8974 83.1426 55.089C83.0141 55.089 82.8727 55.089 82.7314 55.1788L86.8435 56.4877C86.8178 56.3978 86.7279 56.3208 86.548 56.231C86.4451 56.3593 85.34 56.9111 85.2115 56.7956C86.0853 56.077 85.6484 56.3337 86.3938 55.6407C86.2395 55.8332 84.7617 56.0257 84.7489 55.7306C84.9673 55.7306 86.1624 55.4098 86.3295 55.4739C85.8155 55.3841 85.3015 55.2558 84.7874 55.1018C85.0702 55.2301 85.9954 54.935 86.3938 54.7553C86.111 54.858 86.3552 54.242 86.2138 54.1009L85.9054 54.3832C86.0853 53.7031 83.8237 53.7544 83.9265 52.8947C84.222 53.023 85.7512 53.1898 85.9568 52.8562C85.2244 52.6894 82.4615 51.7398 82.0888 50.7004L82.5386 50.6234C82.4358 50.3796 82.333 50.1615 82.243 49.892V49.8407C82.243 49.8407 82.2559 49.8663 82.2687 49.892C83.2197 50.6747 85.2886 52.0349 86.1496 52.5097C86.5094 52.2916 86.6508 52.5097 86.6636 52.1248C87.0748 52.0606 87.229 52.4071 87.2419 52.4969C87.3575 52.2402 87.486 51.9964 87.6274 51.7783C87.0491 51.6885 86.9335 51.342 86.715 51.1239C86.5994 51.034 86.458 50.9442 86.2267 50.8672L86.3423 51.0212C86.5223 51.3035 86.7022 51.6371 86.8949 51.9195C86.2138 51.8425 85.1601 51.2522 84.9416 50.6362C84.8902 50.4951 84.8774 50.3411 84.9674 50.2256C85.34 50.2256 86.3552 50.8801 86.6508 50.9442C86.368 50.8287 86.3038 50.3154 86.5351 50.3411L86.8435 50.7646C87.2547 50.6619 86.0725 49.7508 87.0363 49.7252C87.1776 49.5969 88.4498 49.507 88.0129 49.2504C86.8435 49.2889 84.1835 47.8004 83.5795 47.3769C83.6437 47.4026 84.8003 47.1588 85.4171 47.0433C85.8797 47.0048 86.2909 47.1844 86.6765 47.4282C87.0491 47.6592 87.3961 47.9415 87.8073 47.8774C87.576 47.8004 87.3961 47.5181 87.3447 47.4282C87.6531 47.2358 88.0386 47.6849 88.1671 47.1331C87.319 46.915 88.6297 46.0809 87.5117 46.7866C87.4346 46.2862 87.8844 46.2862 87.9872 45.6831C87.3704 45.8499 86.1881 45.2853 85.8283 45.0415C86.0853 45.0158 86.4452 44.8618 86.5737 44.7977C86.5865 44.3229 86.6122 43.9251 86.5223 43.553C86.4452 43.2707 86.3295 42.9884 86.0468 42.7445C86.1753 42.5906 86.0596 42.1543 86.5223 42.0644C86.2781 42.0644 85.944 42.1671 85.6998 42.0131C85.854 41.1919 86.3295 42.3211 86.715 41.4998C86.2652 41.7693 85.4942 41.4742 84.9159 41.5255C84.4662 42.1671 85.5713 42.0516 86.1753 42.1543C85.2758 42.7445 83.7209 43.1937 82.937 43.3605C82.3844 43.3861 83.1811 42.706 83.0269 42.7959C82.7057 42.5392 82.3587 42.7445 81.9346 42.9114C81.5491 43.091 81.1379 43.2707 80.7781 42.9627C80.6753 42.86 80.5725 42.7189 80.5082 42.5264C80.611 41.7051 81.3821 41.4742 81.6262 41.025C81.819 41.0764 81.9346 41.1919 81.9989 41.333C82.1531 41.6025 82.1916 41.9875 82.423 42.1029C82.333 41.9361 82.2559 41.7565 82.1788 41.5768C82.4615 41.487 82.847 41.5127 82.9241 41.7821C82.9241 41.487 82.6157 41.256 82.2687 40.9737C81.7933 40.5503 81.1765 40.0113 80.9966 39.3954C80.7138 39.4467 80.3412 39.4339 80.2512 39.729L80.5339 39.8573C80.354 40.4476 79.5959 40.0498 79.6987 40.4861C79.1332 40.5118 78.4008 40.6658 78.2208 40.0883L78.6578 39.421C78.5164 39.6007 78.6192 40.0113 78.8891 39.9343C78.4907 40.0498 78.9533 38.5741 78.0923 39.2029L78.0281 39.8573C77.4755 39.9215 76.6145 40.2808 76.4732 39.8702C76.1519 40.6016 76.6017 39.8445 76.2676 40.7427C76.7559 39.6777 77.0643 41.4485 77.5012 40.2808C77.0643 41.2945 77.6426 40.9866 77.3727 41.9618C77.5398 41.7565 77.5912 41.487 77.7968 41.8463C77.861 41.8078 77.9638 41.7565 78.0152 41.7308C78.0152 41.7436 78.0152 41.7565 78.0152 41.7693V41.7308C78.0152 41.7308 78.0666 41.7051 78.0152 41.718C78.0152 41.564 78.0538 41.4228 78.1309 41.2945C78.6706 40.9866 79.1461 41.4357 79.5187 41.3715C79.6216 41.6282 79.236 41.5255 79.1461 41.8206L79.7115 41.718C79.3388 42.1671 79.583 42.8985 78.8891 42.7189L79.3003 43.1167C79.3388 43.476 79.5316 43.8353 79.93 44.0662C80.0585 44.1304 80.1741 44.1689 80.3026 44.1946C80.6239 44.5667 81.4463 44.1432 80.958 44.387C81.1379 44.4255 81.3692 44.4897 81.4977 44.4769C81.5877 44.4512 81.6519 44.4255 81.729 44.3999L81.6519 44.5282C81.7547 44.618 82.0503 44.5025 82.3073 44.5025C82.5515 44.5025 82.7699 44.6437 82.3716 45.0543C82.5386 45.0415 82.7442 45.0286 82.7828 45.1441C82.7828 45.1698 82.7828 45.2211 82.7699 45.2596L82.2173 45.4906C82.4744 45.5548 81.6905 45.8756 82.2816 45.8114C81.4977 45.9654 81.4078 45.991 81.4463 46.0552C81.4977 46.1065 81.6648 46.2349 81.5106 46.2605L82.1531 46.453C82.1531 46.453 82.1145 46.5685 82.1531 46.6583C82.1788 46.7096 82.1916 46.761 82.2173 46.8123C82.243 46.8765 82.2945 46.915 82.2559 47.1074L82.7699 47.3641C82.9498 48.0185 81.729 48.2623 81.3949 49.4685C81.215 49.3274 81.3564 49.0579 81.5491 48.9296C81.2022 49.0836 81.0094 49.3274 80.8937 49.5969C80.5082 50.5336 81.6519 51.5858 80.8295 52.2659C81.0094 52.5226 80.9323 52.6894 80.7781 52.8562C80.7781 52.8305 80.7781 52.8177 80.7524 52.792C80.7524 52.8177 80.7524 52.8562 80.7524 52.8947C80.6496 52.9973 80.5339 53.1 80.4311 53.2283C80.5725 53.1257 80.6881 53.0358 80.7524 52.9588C80.7524 53.1513 80.8166 53.4336 80.9708 53.7031L80.354 53.8314C80.354 53.8314 80.354 53.8699 80.3669 53.8956C80.1484 54.1779 80.6624 54.1137 81.1251 53.9469C81.2279 54.0752 81.3564 54.2036 81.5106 54.2934C80.5211 54.5757 81.8961 54.9606 80.868 55.3584C81.3821 55.4868 81.472 56.6801 82.5772 56.5518C82.4358 56.5903 82.3973 56.6801 82.3459 56.5518C82.2945 56.8598 82.243 57.1806 82.6157 57.3346L81.8961 57.681C82.2816 57.7837 82.6671 57.8735 83.0526 57.9377L85.0316 58.5664V58.528C85.5713 58.7333 85.8412 58.8872 85.9183 59.5673C86.0339 58.3483 86.2524 58.9129 86.2781 57.7709L86.548 58.2071C86.7407 58.0532 86.6636 57.2704 87.0234 57.5399C88.0258 58.0275 89.298 56.1284 90.9557 56.0642C89.8762 54.9863 91.868 56.2438 91.2512 55.2686C91.5211 55.5124 91.7909 55.5638 91.7781 55.9487C92.1636 55.2558 92.9732 55.8076 92.819 54.7168C93.0888 54.9606 92.986 55.2301 93.1659 55.3584C93.1659 55.2686 93.1659 54.9735 93.3587 55.1146C93.5386 55.2429 93.4487 55.4226 93.4358 55.6022C93.7699 55.3328 93.59 55.1146 93.4229 54.7297C93.2559 54.3575 93.0117 53.8828 92.7676 53.4208C93.2174 53.7031 93.2173 53.6133 93.1531 52.8562C93.3587 53.1257 93.5643 53.408 93.3844 53.6774C93.5515 53.6004 94.2325 53.7929 94.194 52.9332C94.2582 53.1513 94.4253 52.9845 94.4638 52.869C94.8365 52.946 94.8493 53.0358 95.2092 53.0872L95.1449 52.9075C95.5047 51.9194 95.5176 52.8177 95.8131 52.869L95.7746 52.9588C96.0573 54.0239 96.2244 52.8562 96.3657 53.9726L96.6998 53.4465C97.5223 52.3942 96.9568 54.6398 97.9335 54.6013L97.8692 54.1651C98.1391 54.0624 98.1391 54.5115 98.229 55.0633C98.2804 55.6279 98.4732 56.2952 98.7302 56.5775L99.1029 57.0009L102.483 53.1898C102.483 53.1898 102.521 53.1385 102.534 53.1128C102.598 53.0615 102.65 53.1 102.714 53.1642L105.978 56.385L98.6659 56.8213C98.576 56.8213 98.4732 56.8213 98.3832 56.8341C98.4603 56.9111 98.5374 56.9753 98.6145 57.0266L100.182 58.22L102.932 53.1385C103.305 52.4456 102.007 53.2668 101.737 52.715C102.148 52.5354 102.855 52.6894 102.868 52.2659C103.189 51.9964 101.275 51.265 102.02 50.5721C101.712 50.7517 101.39 50.9314 101.108 50.6747C100.915 50.2513 102.174 49.2761 101.069 49.0451C101.146 48.9809 101.236 48.9424 101.313 48.9296C101.146 48.7756 100.992 48.519 100.812 48.288C100.632 48.1083 100.426 48.0185 100.118 47.9415C101.172 47.7747 100.876 47.5822 100.542 47.2229C100.195 46.8893 99.8996 46.4273 100.94 46.8251C100.94 46.6968 100.94 46.5557 101.005 46.4402C101.03 46.3888 101.056 46.3375 101.082 46.299L101.262 46.4273C101.622 46.299 101.326 45.9654 101.095 45.5419C101.287 45.5804 101.352 45.7472 101.429 45.8242C102.226 45.7857 101.956 45.8627 102.2 44.5282L102.611 45.0158C102.611 44.5795 104.346 45.08 104.77 43.9379C104.796 44.0021 104.847 44.1176 104.834 44.2331C105.348 43.014 107.983 44.3101 107.07 42.1414L107.366 41.2689C106.492 41.6153 106.942 40.345 106.402 40.2295C106.633 39.9215 107.571 40.3065 107.263 40.6529L107.147 40.5888C107.456 41.2432 107.815 41.0251 108.162 40.8967L110.103 40.114L108.317 38.2662C108.098 38.048 107.931 37.8299 108.137 37.5604C107.134 36.906 106.132 36.29 105.027 35.8666C104.513 35.6484 103.78 35.4816 103.588 35.4046C103.356 35.3276 103.202 35.2763 103.009 35.2891C102.907 35.5971 102.829 35.9051 102.752 36.213C102.637 36.213 102.521 36.213 102.405 36.213C102.405 36.0077 102.675 35.4816 102.855 35.4944C103.022 34.9683 102.29 36.0077 102.123 36.2387C101.994 36.1104 102.238 35.8024 102.444 35.5458C102.662 35.2891 102.842 35.071 102.804 35.071L102.624 35.1865L102.585 35.2891C102.328 35.5843 102.11 35.9051 101.904 36.0719C101.827 36.1489 101.737 36.1874 101.673 36.213C101.66 36.0847 102.058 35.6099 102.033 35.5971C102.097 35.5073 102.071 35.5458 102.02 35.5329L102.071 35.1223C101.866 35.4046 101.647 35.6998 101.442 36.0077C101.12 36.1745 101.442 35.5329 100.735 36.5595C101.287 35.7511 101.352 35.2763 101.3 34.8785C101.249 34.4807 101.082 34.1471 101.249 33.9803C100.953 33.9161 100.799 33.8006 100.696 33.6081C100.581 33.3643 100.542 33.0948 100.491 32.7997C100.375 32.9794 99.5912 33.2617 99.5655 32.7484C101.287 32.4917 100.041 31.6448 101.095 30.8749C100.439 31.478 100.426 29.489 99.5141 30.4386C99.5012 29.9895 100.118 30.2076 100.388 29.7457C99.4113 28.9886 99.9381 27.3974 99.1286 26.2939C98.923 26.3837 98.7045 26.7302 98.2804 26.6275L98.9615 25.4983C98.8716 25.4213 98.6145 25.4854 98.4089 25.5239L94.3739 25.293C94.5409 25.5239 94.6437 25.7164 94.1297 25.6779C94.3225 25.7293 94.618 25.8191 94.5795 25.9987C93.4101 26.7045 92.9089 27.9235 92.3821 29.0913C91.8423 30.259 91.2641 31.3625 89.7863 32.1196C90.326 31.9785 90.2746 32.2094 90.1846 32.4532C90.3517 32.3378 90.6987 32.6842 90.9814 32.774L89.7863 33.4156C90.4931 33.9161 89.4136 34.4935 90.1332 34.8913V34.532C90.8529 35.2763 92.3178 34.7374 93.4358 35.2763C92.6134 34.4165 95.3762 34.8143 94.2582 33.5183C94.5538 33.4798 94.5538 33.8134 94.8494 33.8519C94.451 33.467 94.451 33.1975 94.8494 32.928L94.9393 33.0307C95.3505 31.9143 96.0573 31.709 97.0082 30.7723L96.43 30.5413C96.6484 30.336 96.8412 30.3873 97.0339 30.3616C96.4171 29.6045 96.5842 31.0161 95.8517 30.2461C97.0982 30.5541 96.9311 28.5395 98.2547 29.1169C98.4989 28.7705 97.5994 28.8218 97.8564 28.4753L98.2419 28.6036L97.9078 28.2315C98.0234 28.1289 98.2033 28.1288 98.3961 28.1673L94.0783 27.9107C93.9627 28.0519 93.8085 28.1673 93.68 28.2443C93.68 28.2058 93.6543 28.1802 93.6157 28.1673L98.833 28.4753C98.833 28.4753 98.833 28.6165 98.833 28.655C98.9101 28.655 98.9744 28.6293 99.0258 28.6036L93.4229 28.27C93.4229 28.6678 94.0526 28.8988 93.9755 29.0528L94.0012 28.5908C94.8494 29.4377 94.9265 30.9006 96.0187 31.6833L96.2629 31.5037C97.0468 32.1581 96.1858 32.2479 96.687 33.082H96.6099C96.9311 33.1718 97.1367 33.3772 97.1753 33.6466C96.7898 33.5055 96.6484 34.2369 96.2115 34.0316C96.9697 34.7758 96.7512 34.3781 97.9463 34.8657L97.5223 35.1993C97.9977 35.3405 98.2033 35.2891 98.4218 35.8409C97.9463 35.4944 97.805 36.6237 97.1881 36.2259C96.8155 37.2524 97.0982 37.817 97.3423 38.1378C97.5737 38.4971 97.7407 38.6896 97.0468 39.7675C98.3447 39.2671 97.6251 37.7785 97.9206 37.9454C98.2933 37.3423 98.9101 37.6887 98.8073 38.1763C98.8073 38.3945 98.4346 38.9719 98.062 39.6905C97.8821 40.0498 97.7022 40.4476 97.5737 40.8454C97.5094 41.0379 97.458 41.2432 97.4323 41.4228C97.3937 41.6153 97.3809 41.8078 97.458 41.8463C97.4323 41.7693 97.3038 41.949 97.3038 41.795C97.1367 42.4237 97.6893 41.8976 97.7793 42.2954C97.8949 42.2698 97.9849 42.2954 98.0234 42.4109C99.1543 41.0635 98.9358 42.0901 99.8482 40.6144C99.3856 40.8711 98.8844 41.1534 98.4089 41.4357C98.8844 41.0892 99.5783 40.4091 100.118 39.9215C100.683 39.4339 101.095 39.1516 101.442 39.3954C101.262 39.6649 100.799 40.1011 100.465 40.3834C100.632 40.6529 101.21 39.9343 101.403 40.2038C101.146 40.8197 100.683 41.0507 100.157 41.256C99.604 41.487 99.0258 41.6923 98.229 42.4622C98.2547 42.6932 98.8715 42.2313 99.2571 41.9746C99.6426 41.718 99.861 41.6153 99.2571 42.4494C100.092 41.3587 100.388 41.3074 100.799 41.2432C101.172 41.2175 101.686 41.1277 102.29 40.4348L102.071 41.102C102.238 40.9737 102.675 40.5118 102.868 40.5503C102.714 40.7941 102.483 41.1277 102.238 41.4613C102.495 41.2047 102.701 41.102 102.829 41.1405C102.984 41.1534 103.112 41.2432 103.254 41.333C103.382 41.5383 103.433 41.7693 103.588 41.6153C103.087 41.5512 103.588 40.8711 103.408 40.3963C104.372 39.729 103.562 42.0259 104.217 41.9361C104.115 42.0003 104.012 41.4742 104.243 41.256C104.346 41.4228 104.423 41.7051 104.346 42.0259C104.783 42.1029 104.564 41.4228 104.898 41.179C104.706 41.9233 105.258 41.025 105.618 40.9737L105.271 41.487C105.4 41.8591 105.669 41.4998 105.926 41.2689L106.119 37.74C106.222 37.9839 106.248 38.1892 105.824 38.2277L105.669 37.3038L105.4 37.74L105.104 37.0984C104.963 37.8042 104.757 37.7785 104.23 37.8812C104.564 38.1892 104.783 38.8564 104.423 39.1131C103.973 38.9591 104.243 38.5228 103.768 38.9334C103.678 38.5356 103.536 38.0352 104.076 38.3688C103.986 38.1892 103.986 37.971 103.896 37.7785C103.395 37.5989 103.164 38.1378 102.984 38.2533C103.074 38.2277 103.176 38.202 103.266 38.2533L102.971 39.4595C102.727 39.3441 102.714 39.1259 102.714 38.9078C102.598 39.0617 102.65 39.3697 102.444 39.5622C102.226 39.1002 101.93 38.6768 102.123 38.2662L101.712 39.2029C101.544 39.0489 101.018 38.9334 101.005 38.7153C100.439 38.7153 100.555 40.1653 99.8096 40.1781C99.8353 40.2808 99.8353 40.3963 99.7582 40.5246C99.6169 40.5759 99.4627 40.6016 99.3085 40.6273C99.1414 40.6658 99.0386 40.6401 98.7687 40.7684C98.3061 40.9737 97.8435 41.2817 97.5994 41.8591C97.201 41.7693 96.7898 41.6923 96.3657 41.641C96.0701 42.0259 96.4942 42.0516 96.8412 42.1543C97.201 42.2569 97.4708 42.4366 97.0982 42.9883C96.6613 43.8096 96.1987 42.7959 95.736 42.9242C95.7617 43.168 95.826 43.4888 95.8517 43.8096C95.8902 44.3485 95.8902 44.8875 95.3634 45.2981C95.2477 44.9517 95.4405 44.7592 95.4662 44.464L95.5047 44.3357ZM96.5585 52.6894C96.4043 52.5739 95.9673 52.3814 96.3143 52.2274C97.0339 52.2659 96.7255 52.4327 96.5585 52.6894ZM90.9557 51.2522C90.9428 51.0084 91.1613 50.9827 91.4568 51.0597C91.354 51.188 91.2127 51.265 90.9557 51.2522ZM79.9557 43.1552C79.9557 43.1552 79.9814 43.1552 79.9942 43.1552C80.1613 43.6043 80.097 43.4375 79.9557 43.1552ZM79.6087 42.4879C79.5059 42.5136 79.4416 42.5777 79.4159 42.6547C79.5573 42.5649 79.673 42.6547 79.7758 42.8087C79.84 42.6547 79.8529 42.5136 79.6216 42.4879H79.6087ZM101.827 35.7639L101.75 35.9179C101.596 36.0591 101.596 36.0334 101.634 35.9821C101.673 35.9307 101.737 35.8794 101.827 35.7639Z" fill="#C5DAF0"/>
<path d="M12.7606 71.5907C9.58652 71.95 6.56666 73.5796 4.52344 76.0434C7.33769 76.2359 10.1519 76.4412 12.9533 76.6337C13.2618 76.6593 13.5959 76.685 13.8015 76.916C13.9814 77.1213 14.0071 77.4164 14.0199 77.6987C14.1998 81.6125 14.7524 85.5006 15.6519 89.2989C15.7419 89.6453 15.8318 90.0175 16.0889 90.2741C16.9498 91.1339 18.2991 89.9661 18.916 88.9139C20.5351 86.1935 22.1414 83.4731 23.7606 80.7527C23.979 80.3806 24.2104 79.9956 24.5959 79.7903C25.0456 79.5465 25.5854 79.5979 26.0994 79.662C29.1835 80.0341 32.2804 80.4191 35.3646 80.7912C34.6963 78.1478 33.4241 75.6456 31.6765 73.5411C31.1882 72.9509 30.6356 72.3478 30.4814 71.6035C30.3529 71.0132 30.4942 70.3844 30.6484 69.7942C31.3552 66.9711 32.2933 64.1994 33.4498 61.5175C29.5433 61.1197 25.4954 63.2242 23.5807 66.6375C20.9977 64.5844 18.1963 62.8135 15.2407 61.3507C13.5702 60.5294 11.6811 59.7852 9.89493 60.3241C10.6017 63.4808 11.7711 66.5477 13.3389 69.3836" fill="#81A8D7"/>
<path d="M15.9987 67.7799C16.0373 67.9339 16.4742 67.6259 16.577 67.6002C16.3457 67.4334 15.8831 67.844 15.9987 67.7799Z" fill="#81A8D7"/>
<path d="M13.7499 65.9702L13.9684 65.9317L13.313 65.7905L13.7499 65.9702Z" fill="#81A8D7"/>
<path d="M12.8374 63.6608C12.0536 64.1997 13.2872 64.4564 13.1459 64.9825L12.9788 65.1236L13.737 65.0338C13.4286 64.5847 12.7218 64.0971 12.8374 63.6479V63.6608Z" fill="#81A8D7"/>
<path d="M14.3155 61.813C13.9943 61.9926 13.9429 61.6462 14.2898 62.121C14.3155 62.0825 14.3412 62.0696 14.3541 62.044C14.3284 61.9926 14.3155 61.9285 14.3027 61.813H14.3155Z" fill="#81A8D7"/>
<path d="M14.3667 62.0439C14.4695 62.2749 14.598 61.8001 14.3667 62.0439V62.0439Z" fill="#81A8D7"/>
<path d="M13.8398 61.0044L14.2382 61.2354C14.4181 61.1071 14.3924 60.8247 14.5595 60.8889C14.3025 60.6194 14.1226 60.7349 13.8398 61.0172V61.0044Z" fill="#81A8D7"/>
<path d="M13.1074 60.876L13.2873 61.0043C13.3644 60.953 13.3773 60.9016 13.1074 60.876Z" fill="#81A8D7"/>
<path d="M13.6601 61.2866L13.2874 61.0171C13.1589 61.1069 12.8762 61.1839 13.4288 61.1454C13.1589 61.1839 13.4288 61.1967 13.6601 61.2866Z" fill="#81A8D7"/>
<path d="M13.5828 61.5176C13.4415 61.7486 13.3901 62.018 12.9917 61.787C13.3001 62.3645 13.8912 62.0822 13.5828 61.5176Z" fill="#81A8D7"/>
<path d="M11.8995 63.8532L11.7324 64.1996L12.1051 64.3151C11.9252 64.2638 12.1693 63.7505 11.8995 63.866V63.8532Z" fill="#81A8D7"/>
<path d="M11.09 64.302C11.0643 64.1095 11 63.7887 10.9358 63.5449C10.9358 63.6219 10.9358 63.6989 10.9358 63.7759C10.9872 63.8914 11.0386 64.0197 11.0771 64.302H11.09Z" fill="#81A8D7"/>
<path d="M10.9357 63.5581C10.9357 63.4426 10.9614 63.3271 10.9999 63.2116C10.8714 63.1859 10.8971 63.3528 10.9357 63.5581Z" fill="#81A8D7"/>
<path d="M12.1052 61.0813L12.9533 61.4919L12.0667 60.9658L12.1052 61.0813Z" fill="#81A8D7"/>
<path d="M11.3725 64.3407C11.3211 64.4819 11.2825 64.6358 11.2568 64.777C11.3082 64.546 11.3853 64.3407 11.4753 64.1226L11.3725 64.3407Z" fill="#81A8D7"/>
<path d="M11.8225 64.3662C11.6297 64.6998 11.7582 65.0078 11.604 65.2003C11.7454 65.1746 11.9767 64.918 12.208 64.687C12.0152 64.7897 11.8996 64.6998 11.8225 64.3662Z" fill="#81A8D7"/>
<path d="M12.5935 64.3921C12.4779 64.4434 12.3494 64.5589 12.208 64.6872C12.3108 64.6359 12.4265 64.5461 12.5935 64.3921Z" fill="#81A8D7"/>
<path d="M11.2441 63.3013C11.2441 63.4168 11.2441 63.7247 11.3212 63.8659V63.3141H11.2441V63.3013Z" fill="#81A8D7"/>
<path d="M11.3086 63.2886C11.3857 63.3271 11.4371 63.3399 11.4628 63.3527C11.4371 63.3527 11.3985 63.3271 11.3086 63.2886Z" fill="#81A8D7"/>
<path d="M11.2314 63.2883H11.2443C11.2443 63.2883 11.2443 63.2241 11.2314 63.2883Z" fill="#81A8D7"/>
<path d="M12.3494 60.0036C12.2594 59.9523 12.1437 59.9009 12.0409 59.8496L10.5117 62.4545C10.5246 62.2107 10.6017 61.9156 10.2804 61.6461V61.6974L11.2828 60.0036C11.6297 60.0293 11.8353 59.7855 12.3108 60.0036H12.3494Z" fill="#81A8D7"/>
<path d="M11.1542 62.6087C11.0771 62.5702 11.0129 62.5317 10.9358 62.4932C10.9615 62.6343 11 62.8396 10.9743 63.0064C11.0129 62.8653 11.0771 62.737 11.1542 62.6087Z" fill="#81A8D7"/>
<path d="M11.27 62.4414C11.27 62.4414 11.1928 62.5569 11.1543 62.6082L11.2314 62.6596L11.27 62.4414Z" fill="#81A8D7"/>
<path d="M12.2851 63.7375C12.4778 63.545 12.632 63.5835 12.8119 63.6092C12.6834 63.4423 12.5164 63.314 12.3493 63.2627C12.2722 63.4167 12.1051 63.6861 12.2851 63.7246V63.7375Z" fill="#81A8D7"/>
<path d="M11.7839 63.4297L11.8096 63.404C11.8096 63.404 11.8096 63.3399 11.7839 63.4297Z" fill="#81A8D7"/>
<path d="M14.5981 64.4562C14.5981 64.4562 14.5981 64.392 14.611 64.3535L14.5596 64.4305L14.5981 64.4562Z" fill="#81A8D7"/>
<path d="M12.3623 63.1603C12.2723 63.0191 12.1567 63.1218 12.041 63.2758C12.1438 63.2373 12.2466 63.2501 12.3494 63.2758C12.388 63.1988 12.4008 63.1603 12.3494 63.1731L12.3623 63.1603Z" fill="#81A8D7"/>
<path d="M13.1332 64.3537C13.1075 64.2126 13.069 64.0971 13.0176 63.9688C13.0176 64.1612 13.0433 64.4692 13.1332 64.3537Z" fill="#81A8D7"/>
<path d="M11.8096 63.5581L11.7839 63.5838C11.7839 63.6993 11.7968 63.6479 11.8096 63.5581Z" fill="#81A8D7"/>
<path d="M11.8096 63.5582C11.8867 63.494 11.9638 63.3785 12.0409 63.2759C11.9638 63.3015 11.8738 63.34 11.8096 63.4042C11.8096 63.4427 11.8096 63.5069 11.8096 63.5582Z" fill="#81A8D7"/>
<path d="M16.8213 61.6588C16.5514 62.0822 15.9089 62.2747 15.7804 61.6074C15.2407 61.7614 14.7395 63.3782 14.5981 64.3663C14.7138 64.1738 14.8038 63.9942 15.3049 63.9172C15.3049 63.6092 14.8038 62.9291 15.3178 62.6725C15.9217 62.6981 15.639 63.0446 15.7418 63.4039C15.8318 62.7366 16.7956 62.9163 17.1425 62.0565L16.5514 62.1079C16.6157 61.9796 16.8855 61.8512 16.8213 61.6716V61.6588Z" fill="#81A8D7"/>
<path d="M13.9556 63.9688H13.7886C13.9042 64.1099 13.9428 64.3537 13.9813 64.8157C14.3283 64.713 14.4696 64.5719 14.5596 64.4307L13.8785 64.0072L13.9556 63.9688Z" fill="#81A8D7"/>
<path d="M13.1847 63.6737C13.5059 63.2118 13.9557 63.1604 13.9943 62.5188C13.5573 62.3648 13.5059 62.8011 13.1718 62.9294C13.8657 63.0706 12.8763 63.1348 13.1975 63.6224C13.0305 63.648 12.9277 63.6352 12.812 63.6224C12.902 63.725 12.9662 63.8405 13.0176 63.9817V63.9432C13.0176 63.8662 13.0176 63.8149 13.0433 63.8662H13.0562C13.0947 63.802 13.1333 63.7379 13.1718 63.6865C13.3003 63.8662 13.1461 63.8277 13.0562 63.8662L13.0176 63.9432C13.2618 63.9432 13.5188 63.9432 13.7758 63.9688C13.673 63.8277 13.4802 63.7635 13.1718 63.6865L13.1847 63.6737Z" fill="#81A8D7"/>
<path d="M10.3704 60.4141C10.3704 60.4141 10.4089 60.4911 10.4218 60.5424C10.4603 60.4654 10.4732 60.4141 10.3704 60.4141Z" fill="#81A8D7"/>
<path d="M10.7301 60.6966C10.6787 60.7736 10.6658 61.0046 10.4988 60.9661C10.3317 60.8249 10.4474 60.7094 10.4088 60.5298C10.3189 60.6966 10.1518 60.9917 10.4859 61.1842L10.5116 61.1072C10.82 61.2355 11.1413 61.9285 11.0899 62.0055C11.0128 61.505 10.9485 61.1457 10.7044 60.6838L10.7301 60.6966Z" fill="#81A8D7"/>
<path d="M12.208 61.8898C12.4136 61.8513 12.6192 61.8128 12.8377 61.7871L12.6835 61.2354L12.6192 61.5177C12.3237 61.3252 12.298 61.6845 12.208 61.8898Z" fill="#81A8D7"/>
<path d="M14.534 64.7386L14.187 65.2134L14.8938 64.6616L14.534 64.7386Z" fill="#81A8D7"/>
<path d="M15.305 65.0596L15.0352 65.4959L15.3693 65.329L15.305 65.0596Z" fill="#81A8D7"/>
<path d="M29.6076 62.48C29.055 62.5955 28.2326 62.6853 28.7852 62.8393L29.3377 62.9419C29.3249 62.6981 29.4405 62.5698 29.6076 62.48Z" fill="#81A8D7"/>
<path d="M26.7419 68.0879C26.6648 68.1007 26.6134 68.1392 26.5363 68.1649C26.3821 68.5498 26.215 68.9476 25.958 69.2684C26.2921 69.1914 26.6648 68.8706 26.729 68.0879H26.7419Z" fill="#81A8D7"/>
<path d="M18.0548 66.9841C17.8878 66.9199 18.0034 67.0226 18.0548 66.9841V66.9841Z" fill="#81A8D7"/>
<path d="M18.4917 64.6617C18.556 64.6232 18.6202 64.5719 18.6973 64.4692C18.6074 64.5719 18.5431 64.6361 18.4917 64.6617Z" fill="#81A8D7"/>
<path d="M26.459 63.3527C26.459 63.3527 26.459 63.3527 26.4719 63.3527C26.3562 63.3014 26.3819 63.3142 26.459 63.3527Z" fill="#81A8D7"/>
<path d="M17.9648 66.6377C17.9777 66.7275 18.0162 66.8173 18.0676 66.8943C18.0676 66.843 18.0291 66.7532 17.9648 66.6377Z" fill="#81A8D7"/>
<path d="M17.8493 66.8686C17.8493 66.8686 17.7721 66.7787 17.7464 66.7402C17.6822 66.8044 17.6565 66.8686 17.8493 66.8686Z" fill="#81A8D7"/>
<path d="M18.3633 67.1508C18.2862 67.1123 18.2091 67.0482 18.1577 66.9968C18.1192 66.9583 18.0935 66.9198 18.0678 66.8813C18.0678 66.9327 18.0678 66.9712 18.0549 66.9712C18.0935 66.984 18.1577 67.0097 18.3633 67.138V67.1508Z" fill="#81A8D7"/>
<path d="M33.758 69.7432C33.154 69.294 33.2825 69.1657 33.4881 68.9989L31.8818 68.7808L33.758 69.7432Z" fill="#81A8D7"/>
<path d="M25.7524 83.7173C25.9195 83.7686 26.0737 83.8456 26.215 83.9226C26.7676 84.6027 26.5748 84.3717 27.1403 84.7952C26.4335 84.2819 26.4463 84.1664 26.4592 84.0509C26.472 83.9354 26.4849 83.8328 25.9837 82.9987C26.0865 83.0757 26.1765 83.1784 26.2793 83.2682C26.2536 83.2682 26.305 83.3708 26.2793 83.3708C26.4335 83.5377 26.4592 83.5505 26.4463 83.4607C26.3692 83.2169 25.8681 82.0106 26.2664 82.1775C26.4592 82.3186 26.6005 82.5881 26.5877 82.8062C26.6262 82.6651 26.6776 82.5239 26.7419 82.3828C26.8318 82.4341 26.8575 82.7292 26.7804 82.6907L27.166 82.6009V82.6522C27.2174 82.3828 27.3973 81.985 27.5129 81.8182C27.7057 82.0876 27.3844 81.985 27.4358 82.216C27.5643 82.0876 27.7956 81.9721 27.9755 81.8567C28.1554 82.3314 27.59 82.7036 27.3716 82.6138C27.5129 84.3846 27.8213 82.2288 28.708 83.358L28.194 83.512C28.3868 84.5257 28.8108 84.2178 29.2863 84.8979C29.1963 84.5642 28.3739 83.2169 28.9779 82.8576C29.1192 83.0115 29.3248 83.0885 29.6718 82.7806C29.5947 83.3965 29.916 83.281 30.2886 83.2938L30.1601 84.1023C30.5842 83.9098 30.6099 83.4992 30.8926 83.1527C31.3295 83.281 31.3424 83.9354 31.3809 84.4744C32.0748 84.6925 31.0082 83.3965 31.8692 83.358C32.4218 83.743 32.8844 83.4607 33.6554 83.0629C34.041 83.3965 33.5269 83.5505 33.6426 83.8071L34.0924 83.204C34.1823 83.2297 34.1309 83.4222 34.0924 83.5248C34.4393 83.3067 34.2209 82.7164 34.7349 82.5496C34.8248 82.216 34.9662 82.3443 35.1589 82.5752L35.583 83.127L37.1122 80.3553C37.3564 79.919 37.7933 79.2133 37.048 78.9951C37.215 78.7641 37.5491 78.9181 37.8447 78.777C36.9066 78.084 37.1122 78.1482 35.9942 77.7761L36.2384 76.9805C35.8657 77.6606 34.9533 77.3911 34.208 77.2243C34.0153 77.4938 33.8225 77.7119 33.7454 77.8402C33.5141 77.6734 33.2699 77.5194 33.0258 77.3783C33.1029 77.2371 33.3856 77.173 33.7454 77.1345C33.6683 77.1216 33.5783 77.1088 33.5012 77.096C33.6426 76.7238 34.1309 76.6212 34.6321 76.5955C34.5293 76.7495 34.4136 76.9163 34.298 77.0703C34.8377 77.019 35.416 76.9548 35.8272 76.7238C35.7244 76.7238 35.5959 76.6597 35.5059 76.5699C35.6473 76.5699 35.7758 76.5442 35.84 76.48C35.9043 76.4159 35.6987 76.4159 35.4545 76.3902L36.187 75.7999L35.84 75.9283C35.84 75.5048 35.8272 75.0813 35.8015 74.6579C34.5807 74.4012 33.09 74.5937 32.1134 73.9393C32.8202 73.7596 33.0258 73.3233 33.6554 72.8486C33.1928 73.6185 34.5293 73.4132 34.7606 74.0676C34.6449 73.734 35.0047 73.58 35.1589 73.58C34.722 73.3875 34.2851 73.2079 33.8482 73.0539C34.3879 72.6817 34.0924 72.5534 34.1052 72.1428C33.6811 72.6433 33.347 72.5663 33.1157 72.4508C32.923 72.3738 32.7816 72.207 32.5117 72.1813C32.8844 71.9632 33.3085 71.7835 33.3984 72.053C33.7068 71.6552 33.347 71.822 32.9101 71.9247C32.4989 72.0401 32.0106 72.0786 32.3061 71.7578C32.3575 71.822 32.319 71.899 32.5503 71.8348C32.0491 71.8348 32.1776 71.2446 32.6146 71.2702L32.6531 71.3344C32.576 70.8211 32.7559 69.9614 31.7279 69.5379C31.8564 69.5764 32.9872 69.9229 33.2057 69.987C32.6274 69.7689 32.1262 69.2684 31.5865 68.8963L30.0188 67.6773C30.8797 68.0622 33.1671 68.2034 33.4884 68.999C33.6683 68.845 33.8867 68.6653 33.6811 68.1905C33.5141 68.2804 32.2804 68.1264 32.2547 67.9211C33.3984 67.7414 32.8844 67.7414 33.9253 67.4334C33.6683 67.5618 32.3318 66.9073 32.4732 66.625C32.666 66.7405 33.861 67.0485 33.9767 67.2025L32.8459 66.0091C33.0258 66.2786 33.9896 66.4325 34.4393 66.394C34.1438 66.3812 34.6835 65.7781 34.6192 65.5343L34.1952 65.7268C34.6963 64.9825 32.576 64.2126 32.9744 63.3914C33.2185 63.6095 34.5935 64.3024 34.9276 63.956C34.3237 63.5197 32.062 61.8515 31.7921 60.8506L33.2442 63.3272L33.2057 63.3657L33.1157 62.9422C32.923 63.0962 32.7559 63.2374 32.5889 63.3914C32.7302 62.9037 33.0001 62.2236 33.437 61.5179L33.4627 61.5692C34.1823 62.3135 34.9019 63.1347 35.2617 63.6095C35.6987 63.4298 35.7629 63.7122 35.9043 63.2502C36.3412 63.2502 36.354 63.725 36.3283 63.8661L36.9195 63.0449L39.7466 59.1183L33.8225 57.7709L33.6297 57.7324C33.6169 58.5922 32.3447 58.528 32.4218 59.2723C32.833 59.0156 33.2828 58.836 33.7454 58.6307L35.0561 58.0532L36.1484 62.7113L36.2255 63.0321C35.9043 62.9166 35.5316 62.6471 35.2232 62.3135L33.6426 59.6187C33.2057 60.2347 32.666 60.7351 32.1134 60.671C31.8564 60.3373 32.2419 59.1311 32.229 58.8488C32.0877 59.1311 31.2653 59.4776 31.1496 59.2723L31.5608 58.7718C30.8926 58.5023 30.7641 60.0037 29.9417 59.3236C29.7103 59.3236 28.9522 58.4125 29.0421 58.9258C29.7232 59.7727 30.43 62.7369 30.4428 63.494C30.3914 63.4298 29.3377 62.8396 28.9393 62.4803C28.3353 61.89 28.7723 60.5683 28.2711 60.055C28.3353 60.286 28.2454 60.6325 28.2068 60.7479C27.9113 60.6453 28.0269 60.0294 27.5772 60.3245C27.847 61.1586 26.5877 60.7095 27.6543 61.1072C27.3202 61.5435 27.1017 61.1586 26.6005 61.4922C27.0246 61.9028 27.1274 63.4042 26.9603 63.8276C26.8575 63.6352 26.6134 63.4427 26.4977 63.3657C25.701 63.8533 25.1613 63.8148 24.6601 64.3281C24.5188 64.1741 24.2232 64.1613 24.1718 63.6608C24.1718 63.879 24.2232 64.2639 24.0947 64.4436C23.6449 63.8918 24.326 63.9816 23.8505 63.2245C24.0047 63.7763 23.7991 64.3409 23.6963 64.9954C23.9148 65.8808 24.1589 64.5462 24.2232 64.033C24.416 64.6104 24.5059 65.175 24.5188 66.0476C24.5188 66.8817 24.3774 67.8441 24.1461 68.7423C24.1332 68.768 24.1075 68.8065 24.0947 68.8321C23.8377 69.1529 23.6963 68.6782 23.6835 68.4472C23.6578 68.1905 23.6835 67.9596 23.6449 68.0109C23.0281 67.4078 22.7711 67.8056 22.4627 68.075C22.1671 68.3574 21.8202 68.4985 21.2676 67.5874C20.9592 66.4967 21.5889 66.1117 21.6017 65.4958C22.1286 65.5471 22.2828 66.548 22.6554 66.7918L22.2571 66.0861C22.4498 65.9321 22.7454 65.9449 22.9125 66.3171C22.7582 65.8038 22.347 65.4701 21.8587 65.0852C21.3704 64.7131 20.805 64.2896 20.5608 63.802C20.3167 63.9175 19.9054 63.9431 19.8797 64.2511L20.201 64.3409C20.1753 64.9954 19.2629 64.6489 19.4685 65.098C18.9031 65.2007 18.1963 65.4701 17.8622 64.9055L18.1835 64.1741C18.0807 64.3794 18.2606 64.7644 18.5304 64.6489C18.1449 64.8157 18.312 63.263 17.5538 64.0201L17.6309 64.7002C17.0655 64.8285 16.2302 65.3033 15.9089 64.8414C15.729 65.6241 16.0503 64.8157 15.9089 65.7781C16.2045 64.6361 16.9755 66.4582 17.1554 65.1878C16.9241 66.2786 17.4639 65.8936 17.3867 66.9073C17.5153 66.6764 17.5153 66.394 17.798 66.7277C17.8494 66.6764 17.9393 66.6122 18.0036 66.5865C18.0036 66.5994 18.0036 66.5994 18.0164 66.6122V66.5737C18.0164 66.5737 18.055 66.548 18.0164 66.5609C17.9907 66.4069 18.0036 66.2529 18.055 66.1117C18.2991 65.9193 18.569 65.9193 18.8132 65.9449C19.083 65.9963 19.4428 66.1502 19.6356 66.0861C19.8797 66.394 19.3657 66.2657 19.4043 66.625L20.0339 66.4967C19.8155 67.0485 20.5737 68.0622 19.6099 67.7799C19.8669 67.9724 20.111 68.1649 20.3681 68.3702C20.715 69.0246 21.3704 69.7047 21.7945 69.7304C22.1671 70.1795 22.7582 69.6662 22.4113 69.9742L23.5678 70.4233L23.5935 70.6286C23.7606 70.7698 23.9148 70.8853 24.0818 70.9751C24.236 71.0264 24.3646 71.0007 24.4931 70.9879C24.7501 70.3591 25.0328 69.6791 25.3412 69.1658C25.6625 68.6525 26.0351 68.2932 26.5877 68.1392C26.7033 67.8441 26.819 67.5361 26.9732 67.241C27.1274 66.9458 27.3587 66.7405 27.68 66.5095L28.0912 66.7918C28.3482 66.2914 29.0421 66.6635 28.8751 66.1502C29.3505 66.6379 29.6075 66.5737 29.8389 66.3812C30.0702 66.1887 30.2886 65.8808 30.5199 65.9193L30.3143 65.3033C30.6227 65.2392 30.8283 64.9825 31.1625 64.6489L31.0211 64.0971C31.3167 63.571 32.0234 64.3409 32.5246 64.2896C32.486 64.5077 32.3575 64.4564 32.2547 64.3281C32.576 64.9312 32.833 64.7644 33.18 64.5334L30.7127 60.3373C30.7641 60.9404 30.9311 61.5564 30.3015 61.7873C30.4171 62.0697 30.3015 62.1851 30.0959 62.275C30.0959 62.2493 30.0959 62.2365 30.0959 62.2108C30.083 62.2236 30.0702 62.2621 30.0573 62.2878C29.9288 62.3391 29.7875 62.3905 29.6589 62.4674C29.826 62.4289 29.9674 62.3905 30.0445 62.3391C29.9931 62.5059 29.9674 62.7626 30.0188 63.0449L29.4019 62.9294C29.4019 62.9294 29.4019 62.9679 29.4019 62.9936C29.1064 63.1475 29.6075 63.2759 30.0959 63.3144C30.1473 63.4683 30.2244 63.6223 30.3272 63.7506C29.3248 63.5967 30.43 64.4692 29.3377 64.3794C29.7746 64.7002 29.312 65.6883 30.3143 66.1502C30.173 66.1117 30.083 66.1631 30.1216 66.0348C29.916 66.2529 29.7232 66.4839 29.9417 66.8047L29.1578 66.6892L30.0059 67.5618C29.4405 67.7799 29.1321 67.8441 28.6566 67.3308C29.312 68.4472 28.8108 68.075 29.4919 69.1144L29.0036 68.9605C28.9265 69.3326 29.479 69.9229 29.0293 70.0768C28.4896 70.3976 28.2454 71.4499 28.6181 72.5663C28.798 73.118 29.1064 73.657 29.4148 74.1831C29.569 74.4397 29.736 74.7092 29.8774 74.9787L29.9288 75.0813C29.9288 75.0813 29.9288 75.0942 29.9674 75.1455V75.184L30.0059 75.3251C30.0188 75.415 30.0445 75.5176 30.0445 75.6075C31.0853 74.4911 29.8646 76.48 30.8283 75.8256C30.5842 76.0951 30.5199 76.3517 30.1601 76.3645C30.8155 76.6982 30.2115 77.4424 31.2653 77.3141C30.9954 77.5579 30.7512 77.4553 30.597 77.6221C30.687 77.6221 30.9697 77.6349 30.8155 77.8017C30.6613 77.9557 30.5199 77.8659 30.3272 77.8659C30.687 78.3663 31.6765 77.9172 32.6017 77.4938C32.3318 78.0327 32.4603 78.1482 33.18 78.0969C32.9358 78.3535 32.6917 78.6743 32.4089 78.3407C32.486 78.5845 32.5246 79.842 33.2956 79.5982C33.1286 79.7394 33.3599 79.9318 33.4627 79.9703C33.5912 80.5093 33.5269 80.5735 33.7454 81.0611L33.8353 80.8814C34.3108 80.8558 34.4136 80.9456 34.4136 81.0739L35.583 79.7522C35.4288 79.688 35.2617 79.4827 35.0047 79.5084L35.0304 79.4057C34.0281 78.5588 34.5164 79.688 33.5526 78.7513V79.3672C33.2699 80.6633 32.6788 78.4818 31.9977 78.9053L32.1776 79.2774C31.7793 79.688 31.4452 77.3783 31.1239 77.173C31.0596 77.0446 31.2653 77.0061 31.3809 76.9292C30.5842 76.0437 31.1624 77.7119 30.4814 77.8146C30.4171 77.3654 30.7769 76.7367 30.34 76.5955C30.1601 76.2234 28.8751 77.8402 28.361 76.942C28.451 77.2885 28.5538 77.6349 28.2068 77.8531C27.9627 77.8787 27.4744 77.5066 27.0118 77.25C26.5363 76.9805 26.0094 76.865 25.8167 77.3911C25.7139 77.3013 25.6625 77.2115 25.6368 77.1216C25.1613 77.3526 24.1204 77.7247 24.1332 78.4048C23.979 78.1995 23.812 78.0712 23.6578 78.0199C23.0795 77.8402 22.7197 78.6358 22.5526 79.3031C22.3599 79.9703 22.2314 80.4708 21.5632 79.9062L21.1776 80.6504L20.8564 81.292L20.7022 81.1637C20.2267 81.7155 20.4966 82.1646 20.7793 82.6266C20.5737 82.7036 20.4837 82.4983 20.4066 82.4341C19.5328 83.127 19.5456 83.2682 19.944 84.5129L19.3529 84.2691C19.5456 84.6669 17.7209 85.0647 17.8365 86.3222C17.7851 86.2709 17.6823 86.1939 17.6438 86.0784C17.6566 86.4249 17.4767 86.6815 17.2325 86.9125C17.104 87.028 16.9755 87.1306 16.8342 87.2333C16.7057 87.3103 16.5258 87.4899 16.4744 87.4386C16.1531 87.4771 16.0632 87.4899 16.7571 88.4267L16.8599 89.0426C17.0269 89.0683 17.2197 89.2222 17.2968 89.5045C17.3996 89.774 17.3867 90.1205 17.6438 90.1975C17.5153 90.3515 17.2068 90.2873 17.0783 90.0948C16.9498 89.9023 16.9498 89.6714 16.9884 89.5944L17.0526 89.697C16.9755 89.4276 16.8856 89.1966 16.8856 89.1709C16.9241 89.3377 16.937 89.5046 16.9241 89.6072C16.9241 89.6585 16.9241 89.6072 17.0012 89.5045C17.0398 89.4404 17.0783 89.4147 17.104 89.3891L16.9498 89.543C17.0012 89.4917 17.1426 89.3891 17.4125 89.2607L17.6566 89.1453C17.7337 89.1068 17.9136 89.0426 17.8622 89.0554V89.0169L17.7851 88.4267C17.7337 87.9647 17.708 87.5028 17.708 87.0408C17.6823 86.1169 17.708 85.2186 17.5924 84.3589L16.6928 84.7054L16.6543 84.0894C16.847 83.8969 17.3482 83.7686 17.3739 84.2049C17.8622 83.897 16.8213 83.5505 16.6157 83.5633C16.8727 82.6651 17.7466 83.7301 17.7337 83.4735L17.6181 83.1399L17.5153 83.2297C17.0912 82.9987 16.6928 83.0244 16.6671 82.4983C16.8085 82.139 17.2197 82.2544 17.2454 82.1261C17.3096 82.1261 17.3353 82.0748 17.2454 81.9208V81.1509L16.5386 81.5359C16.1403 81.2407 16.5001 80.8044 15.7033 81.2535C16.0118 81.0611 16.1788 80.8814 16.2559 80.4451C16.333 80.0088 16.3073 79.4827 16.2816 78.9694C16.2431 77.9172 15.9475 77.1088 16.076 76.8008C15.7547 76.6597 15.5877 76.4544 15.4335 76.2234C15.2921 75.9924 15.0865 75.6588 14.7781 75.4663C14.8295 75.6973 14.354 76.2747 13.8914 76.0309C15.2279 74.722 13.3903 75.1327 13.3903 73.9136C13.5316 74.722 11.1157 73.9136 11.5655 75.1198C11.0386 74.9402 11.7454 74.4911 11.3856 74.0548C10.9487 74.1959 10.5632 74.2216 10.1519 74.1831C9.75357 74.1446 9.54797 74.0676 9.2267 73.9649C8.63558 73.7596 8.01876 73.503 7.37624 73.5672C7.33768 73.7853 7.53044 74.1446 7.23488 74.4654L6.63091 73.2977C6.3739 73.3875 6.30965 74.5809 5.89843 73.7725C5.94983 73.965 6.02694 74.2601 5.84703 74.3242C5.50007 74.1446 5.15311 74.0291 4.80614 73.9521L6.2968 77.4039C6.99072 76.8265 7.49189 76.0437 8.23722 75.4663C8.95684 74.8889 9.94633 74.5552 11.0386 75.0942C10.6403 74.7862 10.7816 74.6707 10.9744 74.5937C10.8073 74.5424 10.7945 74.0676 10.666 73.7853C11.0515 73.9521 11.4241 74.1318 11.7711 74.3242C11.7197 73.4517 12.6578 74.0676 12.6192 73.2592C12.5293 73.3233 12.4393 73.3875 12.3622 73.4517C12.6192 72.4251 11.3856 71.4627 11.1286 70.2822C10.9744 70.8724 10.5375 70.5773 10.0234 70.372C9.52226 70.1667 8.93114 70.0768 8.78979 70.9879C8.49423 70.8339 8.78979 70.5516 8.58418 70.3335C8.55848 70.9238 8.35287 71.1162 7.76175 71.1547V71.0136C6.4767 71.8348 5.65427 71.7322 4.03512 72.6561L4.53628 73.0282C4.20217 73.2079 4.02226 73.1309 3.77811 73.1437C4.09937 74.1061 4.60054 72.4636 4.98605 73.4902C4.13792 73.0539 3.5211 74.1446 2.86572 74.6066L0.115723 76.5699L4.48488 78.3663C4.75474 78.469 4.9475 78.6743 4.9989 79.0849C5.48722 79.1234 4.90895 78.3792 5.39726 78.4177L5.50007 78.8026L5.65427 78.3278C5.96269 78.4305 6.09119 78.9181 6.09119 79.2389C6.01409 79.2004 5.85988 79.3159 5.78278 79.3416C6.16829 79.8164 6.96502 79.2646 7.09353 79.4314L6.64376 79.1619C7.94166 78.8925 9.85638 79.5341 10.3318 78.7898L10.3704 78.5075C11.1928 78.0327 10.6917 78.8411 11.4241 78.6486L11.3599 78.7128C11.6683 78.4562 11.9896 78.315 12.1438 78.4048C11.7325 78.6615 11.8353 79.1363 11.347 79.3929C11.7968 79.2774 11.861 79.3159 12.041 79.2133C12.208 79.1363 12.4393 78.9438 12.9533 78.8155L12.5036 79.2518C12.9276 79.1234 13.1332 79.0079 13.2875 79.3801C12.8762 79.2774 12.6064 79.9703 12.0667 79.9318C11.5783 80.4965 11.8482 80.5221 12.0667 80.6761C12.2851 80.8044 12.4393 80.9712 11.694 81.2022C12.3751 81.4332 12.5293 81.0739 12.5678 80.9456C12.6064 80.7659 12.5164 80.5863 12.6578 80.6504C13.069 80.3681 13.6473 80.7403 13.5573 81.1252C13.5573 81.4845 11.9382 81.9208 12.0795 82.8704C12.0795 82.7806 11.9767 82.7806 11.9639 82.6907C11.6683 83.0885 12.5036 83.3195 12.0153 83.82C12.8377 83.9483 12.0538 84.3846 13.069 84.3076L12.7092 83.4863C13.0433 83.9354 14.2769 84.2049 13.84 85.0775C13.6216 85.0518 13.326 84.8594 13.1461 84.7182C12.8891 85.0005 13.416 85.1288 13.1461 85.424C12.1309 85.5138 12.7606 84.4231 11.9253 84.0124C11.5398 84.3332 12.7991 84.8979 11.6683 84.7952C13.1075 84.9492 11.6426 85.7576 12.812 86.2067L12.208 86.2709C12.3237 86.3607 12.6449 86.5147 12.6578 86.6943L11.8225 86.5019C12.5807 86.8997 11.4241 87.6054 11.8868 88.0417C11.6683 87.0023 12.555 87.6696 12.9148 87.1435C13.9685 88.2342 11.4884 88.1828 12.0924 89.5559C11.9639 89.3762 12.2851 88.7475 12.6321 88.9913C12.5678 89.2864 12.4265 89.697 12.1438 89.9408C12.5036 90.9289 12.7092 89.62 13.1846 89.9665C12.8634 90.2231 12.979 90.4028 13.2489 90.5696C13.5188 90.7493 13.9043 90.9032 14.2769 91.301L13.7629 91.6475C13.9428 92.0196 14.2255 92.3404 14.444 92.5073C14.6753 92.6869 14.8424 92.7767 15.0351 92.8281C15.3821 92.9179 15.562 92.8152 15.7033 92.7126C15.8575 92.5971 15.986 92.4816 16.2302 92.4687C16.4744 92.4431 16.8599 92.5072 17.4767 92.5201C17.194 92.8537 16.7699 93.1745 16.1917 93.3542C16.847 93.4055 17.4382 93.2772 17.8494 93.0847C17.8108 93.3413 17.7723 93.5851 17.6823 93.8418C18.5433 93.4055 18.8003 93.0975 19.1601 92.905C19.4814 92.7126 19.8155 92.5842 20.2267 92.3404C19.7769 92.1479 19.6099 91.4165 20.0211 90.9289C20.5994 90.8134 20.3167 91.532 20.8564 90.6851C21.0491 91.0829 21.2419 91.6347 20.5094 91.5962C20.6251 91.763 20.6251 92.0453 20.7279 92.2249C21.486 92.0838 21.7816 91.1599 21.9872 90.7749C21.8844 90.9032 21.7431 91.0572 21.6146 91.0829C21.7431 90.3771 21.5503 90.0948 21.4989 89.6457C21.7816 89.6457 21.8716 89.8382 21.9744 90.0307C22.0129 89.8254 21.833 89.5687 21.9358 89.2992C22.3342 89.62 22.7839 89.8638 22.7839 90.3386V89.2736C22.9896 89.3377 23.5164 89.1838 23.6192 89.3762C24.1332 89.0939 23.4008 87.8236 24.0818 87.4386C24.0176 87.3616 23.9662 87.2461 23.979 87.0921C24.4031 86.6173 25.2127 86.4505 24.9942 85.4625L25.9837 85.5651C26.0994 84.962 24.7115 85.4753 24.9171 84.4744C25.0199 83.743 25.7139 84.6412 26.048 84.5642C25.9452 84.2947 25.7781 83.8841 25.6368 83.743C25.5211 83.5505 25.5725 83.3708 25.9066 83.5248C25.9966 83.7045 25.8681 83.666 25.8809 83.7686L25.7524 83.7173ZM28.965 82.8447C28.8108 82.9602 28.4896 83.3195 28.4253 82.9474C28.6695 82.2673 28.7466 82.6137 28.965 82.8447ZM34.7477 75.7101C34.979 75.7101 34.979 75.9154 34.8634 76.1849C34.7477 76.0822 34.6963 75.9411 34.7477 75.7101ZM20.9849 68.4472C20.9849 68.4472 20.9977 68.4472 21.0106 68.4343C21.3704 69.0118 21.2419 68.7936 20.9849 68.4472ZM20.2396 67.5618C20.1239 67.5874 20.0982 67.6772 20.111 67.7799C20.2267 67.6644 20.4066 67.7927 20.6122 67.9981C20.5994 67.7799 20.5351 67.6003 20.2396 67.5618ZM16.8984 82.0876L16.7571 82.2288C16.5515 81.985 16.7185 82.0363 16.8984 82.0876Z" fill="#81A8D7"/>
<path d="M27.8469 59.8623C28.0268 59.888 28.1553 59.965 28.2581 60.042C28.2196 59.9008 28.1039 59.7982 27.8469 59.8623Z" fill="#81A8D7"/>
<path d="M16.3586 66.2654L16.7699 66.3167C16.6028 66.2525 16.6157 66.0985 16.5771 65.9702C16.5128 66.0985 16.4614 66.3167 16.3586 66.2654Z" fill="#81A8D7"/>
<path d="M15.1635 61.2741C15.0736 61.3126 15.0479 61.2228 14.9579 61.2741L14.8423 61.5436C15.0736 61.6334 15.3435 61.5051 15.1635 61.2869V61.2741Z" fill="#81A8D7"/>
<path d="M17.0913 64.3153C17.3226 63.8533 17.0142 63.879 16.7315 63.8276C16.7443 63.8276 16.7572 63.8276 16.77 63.8533C16.346 64.4436 16.7186 64.3794 17.0913 64.3153Z" fill="#81A8D7"/>
<path d="M16.6671 63.802C16.5771 63.7763 16.5 63.7507 16.4358 63.6865C16.2687 63.9303 16.5 63.7892 16.6671 63.802Z" fill="#81A8D7"/>
<path d="M19.0444 67.1384C18.9288 66.9074 18.6075 67.6516 18.6075 67.395C18.0935 67.8441 20.2138 67.5233 19.0444 67.1384Z" fill="#81A8D7"/>
<path d="M17.7464 62.7109L17.5151 63.314L17.9135 62.9547L17.7464 62.7109Z" fill="#81A8D7"/>
<path d="M19.4427 64.2894L19.1472 63.8916C19.0958 63.9814 19.0187 64.0071 18.9287 64.0071C19.16 64.1739 19.3528 64.4434 19.4427 64.2766V64.2894Z" fill="#81A8D7"/>
<path d="M18.9415 64.0198C18.8259 63.93 18.6974 63.8658 18.5688 63.9172C18.646 63.9557 18.8002 64.0198 18.9415 64.0198Z" fill="#81A8D7"/>
<path d="M18.4019 62.8652L18.4404 63.0449L18.6974 63.263L18.4019 62.8652Z" fill="#81A8D7"/>
<path d="M23.7992 67.3565L23.8763 67.1897L24.0563 66.6379C24.0177 66.2658 23.9149 66.1888 23.8378 66.4839L23.8121 66.7149C23.7735 66.9459 23.735 67.1383 23.8121 67.3436L23.7992 67.3565Z" fill="#81A8D7"/>
<path d="M22.604 64.4817C22.6811 64.6999 22.6811 64.8795 22.7325 65.1747L22.7582 64.2251C22.7068 64.3149 22.6683 64.4047 22.604 64.4817Z" fill="#81A8D7"/>
<path d="M23.4264 64.7386C23.4264 64.6231 23.4264 64.4435 23.4521 64.2767C23.4778 63.9815 23.4906 63.7121 23.3878 63.866C23.3878 63.8789 23.3621 63.9045 23.3621 63.9174C23.3621 64.0714 23.3493 64.2767 23.3364 64.4563C23.3107 64.559 23.3364 64.7771 23.4392 64.7386H23.4264Z" fill="#81A8D7"/>
<path d="M29.4018 61.6201L29.2861 61.6714L29.6973 62.9162L29.4018 61.6201Z" fill="#81A8D7"/>
<path d="M35.6857 65.252C36.174 64.8414 34.9789 64.8414 35.5187 64.5077C35.2745 64.2768 35.0689 64.7772 34.8633 64.5591C35.0432 64.9954 34.8119 65.098 35.6729 65.252H35.6857Z" fill="#81A8D7"/>
<path d="M34.8761 64.5591C34.8504 64.4949 34.8118 64.4179 34.7476 64.3281C34.7861 64.4564 34.8247 64.5206 34.8761 64.5591Z" fill="#81A8D7"/>
</svg>
