<svg width="81" height="92" viewBox="0 0 81 92" fill="none" xmlns="http://www.w3.org/2000/svg">
<path d="M14.4473 8.16814C16.0151 9.93896 17.1716 12.454 18.5081 14.0196C32.091 29.8928 48.1541 45.0089 60.7733 61.2415C61.9041 62.7043 62.1226 65.1937 62.9964 66.0535C63.7032 66.7464 65.1039 66.6951 65.5665 67.2982C65.785 67.5805 65.2067 68.5557 65.8107 69.5695C66.6074 70.904 68.6763 71.7252 69.4987 72.662C70.3854 73.6629 71.6191 75.2669 72.6857 76.4987C74.3434 78.4236 81.0128 86.1741 80.9999 88.0861C78.8924 92.7954 76.0782 93.0136 72.223 90.0366C51.0583 65.4504 30.1378 40.9925 9.2429 16.2523C6.22304 12.6722 -2.91363 6.47431 2.2394 1.63663C6.91697 -2.75192 9.96253 4.56234 12.4812 7.30839C13.0209 7.89867 14.1518 7.86017 14.4473 8.19381V8.16814ZM11.556 11.081C11.6588 7.2699 7.41814 5.48625 6.3387 2.21408L3.75575 4.43402C3.80715 4.75482 6.86557 9.2332 7.35389 9.8363C12.0315 15.7134 17.57 20.4227 22.1062 26.4025C22.6973 27.1724 23.07 27.9936 24.2651 27.7498C25.91 25.8635 18.4824 19.9095 17.2487 18.5108C15.4754 16.4833 14.1004 13.9811 12.1086 12.1076L13.3808 11.158L11.556 11.081Z" fill="#29418A"/>
</svg>
