<svg width="270" height="247" viewBox="0 0 270 247" fill="none" xmlns="http://www.w3.org/2000/svg">
<g clip-path="url(#clip0_485_121)">
<path d="M49.6665 8.23255L58.9835 17.5119C61.6282 20.1488 64.4185 23.1077 64.2486 26.5296C64.1031 29.4683 61.7738 32.0046 59.2019 34.0376C56.63 36.0706 53.6942 37.8218 51.7289 40.2775C49.7636 42.7332 48.9871 46.1551 51.0495 48.5504C58.935 46.5174 66.8933 44.746 74.9244 43.2163C75.7494 43.0552 76.6228 42.8942 77.4478 43.015C78.4668 43.1559 79.316 43.6792 80.1652 44.1824C82.907 45.8531 85.6244 47.5238 88.3662 49.2146C88.5603 45.7525 88.7544 42.3105 88.9728 38.8483C96.3002 39.1301 103.676 36.2316 108.068 31.3604C108.359 31.0384 108.65 30.6761 108.577 30.2735C108.505 29.8709 108.116 29.6092 107.752 29.3677C103.337 26.4692 98.5082 23.9933 93.4129 22.0006C92.5637 21.6785 91.666 21.3162 91.2535 20.6318C91.0594 20.3098 90.9866 19.9475 90.9138 19.5851C89.822 13.9692 88.7301 8.3332 87.6383 2.71729C84.5326 4.95157 81.4027 7.16573 78.297 9.40002C77.5691 9.92337 76.7684 10.4668 75.8221 10.6681C74.8759 10.8493 73.8811 10.6681 72.9591 10.4668C65.5346 8.91693 58.0858 7.38715 50.6613 5.83724C50.0062 6.7229 49.9091 7.87024 50.4429 8.81629" fill="#F3F9EB"/>
<path d="M53.6701 7.50873L53.5972 7.52995C53.7673 7.46629 53.6701 7.50873 53.6701 7.50873Z" fill="#C5DAF0"/>
<path d="M51.6318 9.07816L51.4377 9.40035L52.4568 8.73584L51.6318 9.07816Z" fill="#C5DAF0"/>
<path d="M56.5571 10.1252C56.5086 8.63509 54.7131 9.98424 53.961 9.2996L53.9125 8.95728L53.1846 10.0044C54.3007 10.0447 55.9263 9.60165 56.5571 10.1453V10.1252Z" fill="#C5DAF0"/>
<path d="M58.2799 13.6869C58.2799 13.1041 58.9835 13.3453 57.7218 13.3855C57.7703 13.4658 57.7703 13.4859 57.7946 13.5462C57.8916 13.5462 58.0615 13.5864 58.2799 13.6869Z" fill="#C5DAF0"/>
<path d="M57.7935 13.5467C57.2628 13.4866 57.9865 14.0675 57.7935 13.5467V13.5467Z" fill="#C5DAF0"/>
<path d="M60.2937 13.7278L59.4688 14.0701C59.5173 14.4124 60.0996 14.6138 59.8084 14.795C60.5849 14.6742 60.5363 14.3319 60.2937 13.7278Z" fill="#C5DAF0"/>
<path d="M61.24 12.842L60.8275 12.983C60.8275 13.124 60.9246 13.2045 61.24 12.842Z" fill="#C5DAF0"/>
<path d="M59.9541 13.2651L60.8276 12.9832C60.8033 12.7415 60.9246 12.2784 60.4394 13.0637C60.6335 12.661 60.3666 13.0235 59.9541 13.2651Z" fill="#C5DAF0"/>
<path d="M59.5901 12.9632C59.299 12.5806 58.8622 12.2786 59.6872 11.9564C58.3285 11.8759 58.2071 12.9028 59.5901 12.9632Z" fill="#C5DAF0"/>
<path d="M57.2608 8.73595L56.8726 8.2124L56.2903 8.595C56.5814 8.41377 57.1638 9.17896 57.2608 8.73595Z" fill="#C5DAF0"/>
<path d="M64.3214 15.3384C64.4427 15.0565 64.3214 14.4927 64.3942 14.1101L63.7876 14.3517C63.9817 14.6135 64.4184 14.8954 64.3214 15.3384Z" fill="#C5DAF0"/>
<path d="M64.3942 14.1097L65.3162 13.768C64.6611 13.5671 64.467 13.768 64.3942 14.1097Z" fill="#C5DAF0"/>
<path d="M61.8224 11.3325L60.2695 12.138L62.065 11.3728L61.8224 11.3325Z" fill="#C5DAF0"/>
<path d="M67.2087 15.9824L66.5779 16.5663L67.6455 15.7004L67.2087 15.9824Z" fill="#C5DAF0"/>
<path d="M69.1498 16.2639C68.6645 16.7673 69.2954 17.311 68.8586 17.5929C69.4167 17.5929 69.999 17.2103 70.5328 16.8479C70.0233 17.009 69.6108 16.8479 69.1498 16.2639Z" fill="#C5DAF0"/>
<path d="M71.4547 16.3445C71.1393 16.425 70.8724 16.6264 70.557 16.8278C70.8239 16.7472 71.0908 16.6063 71.4547 16.3445Z" fill="#C5DAF0"/>
<path d="M66.5536 14.1705C66.5536 14.3719 66.5293 14.8552 66.8932 15.1371L66.8447 14.2309C66.8447 14.2309 66.6506 14.1907 66.5536 14.1504V14.1705Z" fill="#C5DAF0"/>
<path d="M66.8447 14.2109C67.1601 14.3318 67.3785 14.3922 67.4756 14.4123C67.4028 14.3922 67.2087 14.3318 66.8447 14.2109Z" fill="#C5DAF0"/>
<path d="M66.4808 14.1517H66.5532C66.5532 14.1517 66.5532 14.0482 66.4808 14.1517Z" fill="#C5DAF0"/>
<path d="M63.5935 12.5006C64.1758 12.118 65.2677 11.8159 64.564 10.9299C64.0788 11.4333 64.467 11.9569 63.5935 12.5006Z" fill="#C5DAF0"/>
<path d="M66.4323 13.0436L65.6802 12.6812C65.6317 12.9027 65.6802 13.2651 65.389 13.4463L66.4323 13.0436Z" fill="#C5DAF0"/>
<path d="M66.8933 12.8623L66.4323 13.0435L66.6991 13.1644L66.8933 12.8623Z" fill="#C5DAF0"/>
<path d="M70.2659 15.278C70.7269 14.9961 71.1151 15.0364 71.5519 15.0766C71.1394 14.8149 70.7027 14.6336 70.2417 14.533C70.0961 14.7746 69.7564 15.2176 70.2417 15.278H70.2659Z" fill="#C5DAF0"/>
<path d="M68.616 14.6937L68.7125 14.6535C68.7125 14.6535 68.6642 14.533 68.616 14.6937Z" fill="#C5DAF0"/>
<path d="M79.461 14.513L79.3645 14.3718L79.4369 14.513H79.461Z" fill="#C5DAF0"/>
<path d="M70.2174 14.3518C69.9262 14.1102 69.6593 14.2713 69.3682 14.4928C69.6593 14.4525 69.9505 14.4727 70.2416 14.5129C70.3144 14.3921 70.3387 14.3317 70.2174 14.3317V14.3518Z" fill="#C5DAF0"/>
<path d="M73.5414 16.2641C73.2017 16.0628 72.862 15.8413 72.5223 15.6399C72.7164 15.9621 73.3715 16.4655 73.5414 16.2641Z" fill="#C5DAF0"/>
<path d="M68.7611 14.9153C68.7611 14.9153 68.7128 14.9355 68.6887 14.9355C68.737 15.1372 68.7611 15.0565 68.7611 14.9153Z" fill="#C5DAF0"/>
<path d="M68.7615 14.9147C68.9799 14.8343 69.174 14.6534 69.3681 14.4927C69.1497 14.5128 68.9071 14.5731 68.713 14.6534C68.7373 14.7137 68.7615 14.8142 68.7615 14.9147Z" fill="#C5DAF0"/>
<path d="M77.8846 8.65539C78.0787 9.56118 77.8118 10.7286 76.6714 10.2657C76.5258 10.6884 76.7442 11.4533 77.3508 12.2383C77.6419 12.6207 78.1029 12.9831 78.4911 13.3253C78.8066 13.7077 79.0977 14.07 79.3404 14.3719C79.1705 14.0499 79.0007 13.7882 79.1462 13.1038C78.9036 12.7616 77.7147 12.6811 77.7147 11.8357C78.2242 11.0708 78.4184 11.7552 78.8551 11.9968C78.1757 11.2117 79.1705 9.96376 78.661 8.4541L78.1029 9.54105C78.0059 9.31964 78.1515 8.7359 77.8603 8.67552L77.8846 8.65539Z" fill="#C5DAF0"/>
<path d="M76.6713 15.1168C76.3802 15.1974 76.089 15.2578 75.7979 15.3182C76.7684 15.3786 77.7389 15.5397 79.316 15.6404C79.6314 15.4189 79.777 15.2377 79.68 15.1772C79.6557 15.0766 79.6314 14.996 79.6072 14.9356C79.5586 14.7745 79.4859 14.6537 79.4373 14.5127C79.7285 14.3718 77.8117 15.1974 76.3802 15.2779L76.6713 15.1168Z" fill="#C5DAF0"/>
<path d="M72.7164 15.157C73.323 14.3921 74.706 14.1305 74.0266 13.124C72.6436 13.0033 72.9105 13.6876 72.0855 13.9292C74.1479 14.0902 71.2849 14.2915 72.7164 15.0564C72.2069 15.1168 71.8429 15.0966 71.5518 15.0564C71.8672 15.2577 72.1826 15.4388 72.498 15.6401L72.4495 15.5797C72.3767 15.459 72.3524 15.3784 72.4495 15.459H72.498C72.5465 15.3382 72.6193 15.2577 72.6921 15.157C73.3958 15.4388 72.7406 15.3986 72.498 15.459C72.498 15.4992 72.4495 15.5395 72.4252 15.5797C73.2744 15.5797 74.3905 15.5797 75.7493 15.3181C74.9001 15.2577 73.8568 15.2577 72.6679 15.157H72.7164Z" fill="#C5DAF0"/>
<path d="M65.947 9.2793C65.947 9.2793 65.947 9.41955 65.947 9.47966C66.0676 9.39952 66.14 9.33941 65.947 9.2793Z" fill="#C5DAF0"/>
<path d="M66.4323 9.92354C66.2868 10.0242 66.0927 10.3261 65.753 10.1651C65.5103 9.84303 65.8743 9.76251 65.9471 9.48071C65.6559 9.66187 65.0008 9.92354 65.5589 10.467L65.7045 10.3664C66.2382 10.7891 66.7235 11.9968 66.5779 12.0974C66.6265 11.3124 66.6264 10.7287 66.4323 9.90342V9.92354Z" fill="#C5DAF0"/>
<path d="M69.538 12.3191L70.9452 12.1781L70.5085 11.3123L70.4114 11.7553C69.7321 11.4331 69.7321 11.9969 69.538 12.3191Z" fill="#C5DAF0"/>
<path d="M79.7285 14.8753L80.141 15.7411C79.9711 15.3183 79.8498 14.8753 79.7285 14.4121V14.8753Z" fill="#C5DAF0"/>
<path d="M80.1167 14.4727L80.3593 15.3184L80.3108 14.7344L80.1167 14.4727Z" fill="#C5DAF0"/>
<path d="M79.4857 49.718H79.0005C79.1946 49.7409 79.3402 49.7409 79.4857 49.718Z" fill="#C5DAF0"/>
<path d="M81.7423 51.1471L82.082 50.8652C81.8151 50.9659 81.6695 51.0666 81.7423 51.1471Z" fill="#C5DAF0"/>
<path d="M95.1842 28.4216C94.893 29.1264 94.0195 30.0527 94.7232 29.3681L95.3783 28.6633C95.1356 28.7237 95.1356 28.623 95.1842 28.4216Z" fill="#C5DAF0"/>
<path d="M95.7178 38.426L95.9604 38.6475C96.0089 38.3253 96.0332 38.0233 96.0332 37.7615C95.9604 37.9628 95.8391 38.2045 95.7178 38.426Z" fill="#C5DAF0"/>
<path d="M96.6399 41.9475C96.4215 41.8068 96.2032 41.646 95.9363 41.5054C96.1304 41.6661 96.373 41.8068 96.6399 41.9475Z" fill="#C5DAF0"/>
<path d="M68.9314 49.738L68.3491 50.6039C69.2954 50.5234 68.8586 50.1408 68.9314 49.738Z" fill="#C5DAF0"/>
<path d="M83.8774 13.7077C83.5863 14.3319 83.4649 14.6139 83.4407 14.775C83.9017 14.0098 84.581 12.8217 83.8774 13.7077Z" fill="#C5DAF0"/>
<path d="M87.0316 42.8137C86.7161 42.8137 86.522 42.9144 86.3765 43.0755C86.6919 43.0755 86.9103 43.0151 87.0316 42.8137Z" fill="#C5DAF0"/>
<path d="M83.5378 15.1973C83.6106 15.0765 83.6591 14.9959 83.7319 14.8952C83.5621 14.9355 83.4165 14.9758 83.465 14.7744C83.1254 15.3584 82.907 15.7007 83.5621 15.1973H83.5378Z" fill="#C5DAF0"/>
<path d="M57.5033 24.2556C57.5033 24.2556 57.5274 24.195 57.5757 24.1545C57.455 24.2152 57.455 24.2354 57.5033 24.2556Z" fill="#C5DAF0"/>
<path d="M56.2661 8.79614C56.4117 8.85655 56.5815 9.03778 56.7514 9.17874C56.7514 9.05792 56.6058 8.9371 56.2661 8.79614Z" fill="#C5DAF0"/>
<path d="M81.7906 13.7681C81.6941 13.9102 81.7423 13.9305 81.7906 13.7681V13.7681Z" fill="#C5DAF0"/>
<path d="M82.082 9.17891C82.1548 9.01782 82.2033 8.81645 82.2519 8.5144C82.1791 8.81645 82.1306 9.03796 82.082 9.17891Z" fill="#C5DAF0"/>
<path d="M89.6521 12.5203C89.6521 12.5203 89.6521 12.5203 89.6521 12.5405C89.821 12.3388 89.7969 12.359 89.6521 12.5203Z" fill="#C5DAF0"/>
<path d="M81.7908 13.2649C81.7908 13.4058 81.7908 13.5065 81.815 13.5669C81.815 13.4864 81.815 13.3656 81.7908 13.2649Z" fill="#C5DAF0"/>
<path d="M81.6691 13.8682C81.6691 13.8682 81.645 13.8081 81.6208 13.7881C81.5726 14.0084 81.5485 14.1286 81.6691 13.8682Z" fill="#C5DAF0"/>
<path d="M81.9114 13.6067C81.9114 13.6067 81.839 13.6268 81.8149 13.5667C81.8149 13.6468 81.8149 13.7069 81.7908 13.767C81.8149 13.7269 81.8632 13.6869 81.9355 13.6067H81.9114Z" fill="#C5DAF0"/>
<path d="M47.0218 43.5184C47.0218 43.5184 47.0946 43.458 47.1431 43.4177C46.7549 43.2364 46.8034 43.3573 47.0218 43.5184Z" fill="#C5DAF0"/>
<path d="M111.998 27.7389L111.926 27.697V27.7599L111.998 27.7389Z" fill="#C5DAF0"/>
<path d="M113.648 28.6637C111.926 28.3617 111.901 28.1603 111.926 27.7576C110.882 28.0596 109.863 28.3214 108.844 28.563C110.494 28.5429 112.095 28.563 113.648 28.6637Z" fill="#C5DAF0"/>
<path d="M76.1861 48.2285C76.2346 48.5103 76.2589 48.7921 76.2589 49.094C75.6281 50.3621 75.8222 49.9394 75.6523 51.0867C75.8707 49.6576 76.0891 49.5972 76.2589 49.5972C76.4287 49.5972 76.5986 49.6173 77.472 48.4499C77.4235 48.6512 77.3507 48.8524 77.2779 49.0537C77.2537 49.0135 77.1324 49.1342 77.1081 49.094C76.4045 50.3017 78.8308 47.7051 79.7043 48.7115C79.9711 49.1343 79.9954 49.6375 79.4616 49.718L80.8932 49.7582C81.1358 49.9797 80.7233 50.3017 80.4807 50.1004L82.082 50.8251L82.0093 50.8854C82.5188 50.664 83.465 50.4225 83.9018 50.342C83.9988 50.8854 83.5136 50.4627 83.368 50.7848L84.6539 50.7445C84.4841 51.5094 83.3195 51.6503 82.8342 51.2276C81.621 53.8846 83.9988 51.0867 84.4841 53.3613L83.465 53.1801C83.1496 53.9651 83.2467 54.3275 83.465 54.6696L87.7111 61.9361L96.4943 49.5368C96.7127 49.2148 96.8583 48.8524 97.4649 48.4499C97.0039 48.5908 95.6209 49.3959 94.6018 49.4764L84.6054 53.4217C84.6782 53.3009 84.751 53.2204 84.848 53.1399L94.1893 49.4563C93.971 49.416 93.8011 49.3355 93.6798 49.1745C93.9467 48.933 94.0923 48.5908 93.4372 48.0876C94.6018 48.1278 94.3592 47.6447 94.3107 47.0409L95.8635 47.1415C95.451 46.4773 94.6503 46.4974 93.9952 46.0948C94.0438 45.9137 94.1651 45.7728 94.3107 45.6721C94.4562 45.5916 94.6503 45.5916 94.893 45.5715C95.3297 45.5715 95.8878 45.5715 96.3973 45.6117C96.5186 45.5312 96.0333 45.491 95.4995 45.4708C94.9415 45.4507 94.3349 45.4708 94.2136 45.1689C94.8202 44.8871 94.2136 44.6254 93.3401 43.619C93.8739 43.5586 94.2621 44.1021 94.6989 44.2027C94.3107 43.941 93.8982 43.6592 93.51 43.3372C93.5342 43.2768 93.9224 43.5183 94.0923 43.619C93.6313 43.1158 92.588 42.7736 92.1998 42.0288C91.6417 41.6262 91.7388 41.5256 92.0542 41.5658C92.1998 41.5658 92.4181 41.6262 92.6122 41.6665C92.9034 41.7873 93.1945 41.9282 93.4372 42.0489C93.8982 42.2301 94.0923 42.2502 93.8254 41.7671C94.3107 42.0892 94.4805 42.4716 94.99 42.9145C94.8444 42.4314 94.893 42.2502 94.8687 42.0087C94.8687 41.7671 94.7959 41.5256 94.7959 40.801C95.2084 41.0224 95.5723 41.2639 95.9363 41.4853C94.9415 40.6802 95.0385 39.4926 95.6937 38.4056C95.2569 38.0031 94.8444 37.6609 94.5775 37.52C95.0385 37.1979 95.4995 36.8759 95.7422 36.5538C95.9605 36.7148 96.0333 37.1577 96.0091 37.7213C96.0576 37.6005 96.1061 37.4797 96.1304 37.3589C96.7855 37.681 96.9311 38.4258 96.7612 39.2309C96.4701 39.0498 96.1789 38.8283 95.912 38.6069C95.7907 39.4322 95.8878 40.3179 96.2274 41.0224C96.2274 40.8613 96.3245 40.7204 96.4458 40.6198C96.4458 40.8412 96.4701 41.0224 96.5429 41.1432C96.6157 41.2639 96.5914 40.9821 96.834 40.5795C97.1494 41.0022 97.4649 41.425 97.8046 41.8275L97.7075 41.2639C98.7023 41.3444 99.7456 41.284 100.862 41.2639C101.929 39.251 101.395 37.0973 102.584 35.7889C103.215 36.6746 104.283 36.8759 105.593 37.6206C104.598 37.4395 104.307 37.7414 104.016 38.2245C103.749 38.7076 103.409 39.3316 102.609 39.553C103.434 39.3114 103.798 39.8348 103.773 40.0763C104.331 39.3718 104.744 38.6271 105.108 37.9628C106.103 38.6472 106.369 38.144 107.413 37.9829C104.841 37.1174 107.534 36.1915 107.461 35.3259C108.335 35.5474 109.038 36.0103 107.801 36.6947C109.257 36.6343 108.941 36.0506 108.48 35.5474C108.044 35.024 107.534 34.6013 108.796 34.4C108.602 34.5812 108.383 34.6617 108.723 34.8429C108.674 34.702 108.723 34.5409 108.82 34.3799C109.184 33.8968 110.227 33.3735 110.615 33.6754C110.567 33.7358 110.518 33.8163 110.47 33.8767C110.834 33.5546 111.222 33.1118 111.537 32.6488C111.78 32.1657 112.047 31.6827 112.12 31.1996C112.193 30.7366 112.047 30.1931 111.586 29.8711C111.149 29.549 110.567 29.4081 109.985 29.4081C110.252 29.3678 112.678 29.3678 113.139 29.4484C110.324 28.8244 107.17 28.5426 103.07 28.8042C103.7 28.7036 104.525 28.5627 105.375 28.3614C106.127 28.2004 106.952 27.9991 107.752 27.8179C109.305 27.4757 110.882 27.2141 111.901 27.6569C111.95 27.3147 111.901 26.8316 110.518 26.3687C110.47 26.6706 108.165 27.516 107.68 27.3147C108.408 26.731 108.505 26.5297 108.577 26.3284C108.626 26.107 108.699 25.9057 108.869 25.1408C108.869 25.5635 105.447 26.268 104.986 25.9258C105.52 25.8051 107.728 24.7584 108.286 24.7986C106.733 24.7986 105.302 24.859 103.943 25.02C104.792 25.02 106.175 23.9734 106.418 23.3292C106.151 23.7117 104.792 22.3429 104.016 22.2222C104.137 22.504 104.259 22.7656 104.356 23.0273C102.439 21.5982 99.6243 24.3155 98.217 23.5305C98.7023 23.2085 100.522 21.2962 99.7456 20.6119C99.2118 21.0346 97.9986 22.0611 96.6884 23.0273C95.354 23.9734 94.1651 24.9597 92.8306 24.9194L92.9034 24.2149C92.2726 24.235 91.6417 24.235 90.9623 24.2149C92.1027 23.7519 93.9224 22.9669 95.3297 22.0813C96.6399 21.1553 98.1685 20.3703 99.0905 19.9677C98.7751 19.223 99.3574 19.2028 98.3869 18.8405C98.3869 18.136 99.4302 18.2165 99.7213 18.3172L98.7265 17.6529C98.4839 17.512 98.581 17.512 98.5324 17.4517L98.4839 17.3108C97.659 18.4782 96.9796 18.2165 96.0091 19.0821C96.8098 18.8808 97.4891 18.6392 98.0229 18.3373C97.659 18.9412 97.0039 19.7463 96.1304 20.2294C95.2812 20.7326 94.1893 20.9339 93.7041 20.5716C93.9467 20.0483 96.1061 18.8808 96.4458 18.5185C95.9605 18.8607 94.9172 18.7801 95.2327 18.4782C95.5723 18.3977 95.8878 18.3172 96.2032 18.1964C96.3002 17.9146 95.7422 18.1159 95.2812 18.1763C94.8202 18.2367 94.4805 18.136 95.1599 17.5926C95.2084 17.351 97.0767 16.5257 96.1547 16.7874C94.3834 17.4517 88.997 19.6457 87.5655 19.6054C87.6383 19.384 88.8515 17.0289 89.7492 16.7471C90.4286 16.3848 91.302 16.3848 92.1755 16.4855C93.049 16.6062 93.8982 16.727 94.4805 16.405C94.0438 16.4251 93.4129 16.1433 93.2188 16.0225C93.51 15.5193 94.6018 15.9621 94.2136 15.0161C92.588 15.2576 93.971 13.0636 92.7821 14.9154C92.1512 14.1908 92.9277 13.8889 92.6608 12.8422C92.1998 13.2246 91.302 13.3655 90.4528 13.4259C89.6279 13.4662 88.8515 13.4863 88.5846 13.3051C88.9728 13.1038 89.4338 12.661 89.6521 12.4396C89.5066 10.9501 90.0161 9.56119 89.7249 8.07167C90.0403 7.58858 90.283 6.36073 90.9381 5.99841C90.6469 6.03867 90.1617 6.38086 90.0161 5.95815C90.9866 3.48232 90.4043 6.84382 91.666 4.34786C90.8653 5.23352 90.3315 4.34786 89.7249 4.38811C88.6088 6.32047 89.7735 6.15944 90.4286 6.32047C88.7301 8.27296 86.7891 9.44042 85.8914 9.72222C85.3576 9.60145 86.8376 7.68922 86.595 7.93077C86.5707 6.84382 85.8428 7.72948 85.2363 8.59502C84.9451 9.01772 84.6782 9.42029 84.5326 9.52094C84.4356 9.52094 84.29 9.66184 84.3143 9.23913C84.751 7.56845 85.9156 5.37442 86.4251 4.0258C86.692 3.70374 86.8861 3.56284 87.0075 3.52258C87.056 3.52258 87.1045 3.52258 87.153 3.54271C87.153 3.62322 87.1045 3.84464 87.0802 4.00567C86.9589 4.69004 86.7648 5.39455 86.8376 5.61597L87.153 4.0258C87.517 3.62322 87.8809 3.74399 87.6626 4.60953C87.8567 4.06605 87.9052 3.54271 87.9052 3.01936C87.9052 2.75769 87.8809 2.49601 87.8567 2.23434C87.8567 2.01293 87.7353 2.17396 87.6383 2.23434L87.2986 2.45576C86.3766 3.07975 85.3333 3.76412 84.7267 3.62322C84.2657 4.40824 83.6834 5.31404 83.7319 5.81725L84.2415 5.27378C84.2172 6.40099 83.004 7.68922 83.3195 7.97102C82.5673 9.27939 81.9607 10.9299 81.524 10.628V9.05798C81.524 9.52094 81.8637 9.76248 82.1063 9.09823C81.9122 9.58132 81.7666 9.15862 81.524 8.97746C81.2814 8.7963 80.9659 8.83656 80.8446 9.94364C81.0145 10.1852 81.1358 10.4469 81.2571 10.7287C80.7718 11.8559 80.602 13.6473 80.238 13.4058C80.6263 14.6739 80.3351 13.1642 80.7233 14.694C80.3594 12.7214 81.3784 14.3116 81.1115 12.1578C81.2571 14.1304 81.524 12.7415 81.4512 14.5934C81.5483 14.0096 81.5725 13.5266 81.7181 13.6675C81.7666 13.4863 81.8394 13.2447 81.8637 13.1038V13.1441V13.0837C81.8879 12.9831 81.8879 12.9629 81.8637 13.0636C81.8637 12.8422 81.8637 12.5604 81.9122 12.2383C82.3004 10.7689 82.8827 10.3865 83.3437 9.46055C83.465 9.62158 83.0283 10.2858 82.9313 10.8897L83.6106 9.50081C83.1739 10.9501 83.1496 11.7351 82.4945 12.8623L82.7371 12.7415C82.6401 13.124 82.5916 13.3856 82.5916 13.4662C82.5916 13.5467 82.7371 13.3655 82.8827 13.1441C82.7371 13.6071 83.829 11.7552 83.1739 12.8623C83.368 12.7013 83.5864 12.5805 83.7805 12.4799L83.5864 12.8422C83.5864 13.2045 83.9988 12.9227 84.2415 13.0435C84.4841 13.124 84.5569 13.5869 83.8047 14.7947C84.0716 14.7141 84.4113 14.694 84.1929 15.2576L83.3923 15.9823C83.7319 16.0024 82.6401 17.0893 83.5621 16.6264C81.2814 18.0756 83.1496 17.4315 82.8585 18.1964L84.0959 18.0958C84.29 19.3035 84.751 20.471 85.7215 21.6183L86.692 21.1352C87.2986 21.4975 87.3471 22.2222 87.6868 23.0273C88.0265 23.8325 88.5846 24.6577 89.5793 25.1207C89.1669 25.322 88.7544 24.9798 88.6331 24.6175C88.7787 26.0466 90.5984 26.4089 92.1512 26.5498L92.7336 26.6102C92.7336 26.6102 92.9277 26.6102 93.049 26.6505H93.2188C93.4614 26.6505 93.6798 26.6505 93.8982 26.6706C94.3107 26.7511 94.6261 26.9524 94.7474 27.4355C95.2327 27.2745 95.4995 27.5361 95.451 27.7777C95.451 27.7777 95.4025 27.7777 95.3782 27.7978C95.3782 27.7978 95.4025 27.8381 95.4268 27.8381C95.3782 27.9991 95.354 28.1803 95.3054 28.3413C95.4025 28.14 95.451 27.9588 95.4753 27.8582C95.5966 27.8985 95.8392 27.8582 96.2032 27.7978L95.5238 28.5828C95.5238 28.5828 95.5481 28.5828 95.5723 28.5828C95.4025 28.925 96.0819 28.301 96.5671 27.6972C96.7855 27.6167 97.0524 27.5361 97.3435 27.3952C96.737 28.0192 96.9553 27.979 97.2222 27.9588C97.4649 27.9588 97.756 27.9588 96.9553 28.5426C97.9501 28.0796 98.5082 28.6432 100.959 27.8985C100.668 28.0192 100.595 28.0997 100.449 28.0394C100.473 28.301 100.449 28.5224 101.42 28.4822L99.6971 29.0257C100.692 28.9049 101.735 28.8244 102.851 28.7841C102.051 29.2873 101.323 29.4081 99.503 29.5289C101.032 29.5289 101.468 29.6094 101.832 29.6497C102.22 29.7302 102.584 29.7302 104.307 29.9315L102.754 30.012C103.094 30.1327 105.181 30.636 103.725 30.7769C101.784 31.0587 101.347 31.6827 100.449 32.2865C99.8184 32.7092 98.9692 33.0917 97.8046 32.9709C99.3089 33.6553 98.8479 33.5748 98.2655 33.454C97.7075 33.3332 97.1009 33.1319 97.9986 33.8163C97.3435 33.454 96.9068 33.2929 96.5914 32.8501C96.5914 33.1722 96.1789 33.0917 95.9363 33.0917C95.6694 33.0917 95.5966 33.1319 95.8878 33.8767C95.4753 33.4137 95.4753 33.1319 95.2084 32.8501C95.2569 32.9709 95.354 33.3131 95.1113 33.0514C94.8687 32.7696 94.893 32.6086 94.7959 32.3872C94.5533 32.5683 95.2084 34.1786 95.8392 35.7084C95.4268 35.4266 95.2084 35.3058 95.0628 35.4065C94.8444 35.5071 94.5775 35.8493 94.4805 36.4129C93.971 35.9701 93.146 35.5272 94.2864 35.1448C93.8497 35.3259 89.0941 34.7422 90.0889 36.0103C89.5793 35.7084 88.9485 35.9499 88.9242 36.0908C87.6868 36.0506 87.2016 35.9902 86.3766 35.9701C86.3281 36.0506 86.1097 36.1311 86.0127 36.433C86.0612 36.3525 86.3038 36.433 86.4251 36.433C87.1045 37.1979 87.2501 37.5401 87.1288 37.7615C87.0075 37.9829 86.692 38.1641 86.7891 38.7076L86.595 38.5667C85.8671 39.2913 86.0127 39.6738 86.134 39.9757C86.2553 40.2977 86.3524 40.5192 85.5274 41.4048L86.6678 41.6665C87.8809 42.21 87.517 42.4716 86.9104 42.9145C86.3281 43.3372 85.5274 44.0618 85.9641 44.7462L86.6435 44.3436C87.4685 45.1286 83.1496 45.8935 82.8099 46.4169C82.5916 46.5376 82.4703 46.2156 82.3247 46.0344C80.7718 47.4032 83.829 46.276 84.1201 47.3629C83.2952 47.524 82.0578 47.0207 81.8637 47.7454C81.5725 47.8863 82.0093 48.309 82.4703 48.8323L92.1027 45.028C91.0837 45.0682 89.8948 45.0481 89.8948 44.1222C89.7249 44.6657 89.5551 45.2293 88.8029 45.2494C87.9295 44.9475 88.2206 42.4314 86.3766 43.3573C86.3766 43.1762 86.4494 43.0554 86.5465 42.9346C85.673 42.9346 84.1929 42.3911 83.2224 42.8943C84.1929 41.4451 82.4702 40.801 81.0872 40.6601C79.68 40.4588 78.4426 40.7003 78.8065 39.1907C77.7632 39.0498 76.6956 39.1101 75.6766 39.2913L75.7494 38.9692C73.6385 39.0296 73.1532 39.9958 72.7893 40.8211C72.4253 40.6802 72.5466 40.3581 72.5466 40.1971C71.1394 39.875 71.4305 39.9354 70.0475 41.8275L70.0961 40.7808C69.902 41.123 69.5137 40.801 69.1498 40.5594C68.7616 40.3179 68.4462 40.1367 67.4999 40.9419C67.597 40.801 67.7668 40.5594 67.9366 40.3783C66.9176 41.2035 66.7235 40.5393 66.6992 40.1367C66.6022 39.7543 66.4809 39.714 63.6663 42.21C62.9627 42.6729 62.1863 43.156 61.3856 43.6391C61.8223 43.6794 61.2158 44.2228 60.3908 44.867C59.5901 45.491 58.5226 46.2357 58.4255 46.5578C57.3094 47.0207 58.4983 45.4104 59.5659 44.9676L59.396 45.189C62.7201 42.4918 58.7652 44.6254 61.1915 42.7534C60.5849 42.9145 60.1239 42.9749 59.7842 42.9547C59.6387 42.9145 59.4203 43.0151 59.396 42.7937C59.396 42.532 59.4203 42.2502 59.4931 41.9886C59.7842 40.8613 60.5607 39.8549 60.8518 39.2108L57.1881 40.6601C57.3094 40.4185 57.455 40.1971 57.6248 39.9757C58.5226 39.553 60.4636 38.9491 60.1724 39.3114C62.2348 38.5063 58.7409 39.2913 58.0373 39.4322C58.9593 38.8485 59.9056 38.7076 60.682 38.5868C61.4584 38.4862 62.065 38.4056 62.162 38.3251L62.0164 38.1842L61.5797 38.3453C60.2938 38.5465 58.838 38.8485 59.3475 38.3855C60.221 38.0031 61.4584 37.8622 61.6525 37.7414C61.8709 37.7011 62.0164 37.6609 61.8466 37.6005C62.0892 37.4395 62.3076 37.2784 62.5502 37.1375C61.701 37.2986 60.8518 37.4596 59.9541 37.6609C59.0321 37.5804 60.682 37.0973 57.7219 37.7011C60.0269 37.1979 60.9246 36.7148 61.5554 36.272C62.162 35.8292 62.526 35.3662 63.1083 35.3259C62.3319 34.8227 62.9142 34.4202 63.545 33.9975C63.1568 33.9975 61.5312 33.5748 62.2833 33.1118C63.6421 33.8364 64.2001 33.7962 64.6126 33.6754C64.928 33.6754 65.7287 32.9508 66.9661 33.152C66.0441 33.1319 66.5051 32.4475 66.772 31.743C67.0389 31.0184 67.1117 30.334 65.8257 30.4951C66.5051 29.7906 66.9419 30.8775 68.0094 30.4951C67.9852 29.1666 68.5675 27.979 68.98 26.5297C69.3682 25.1609 69.441 23.45 68.6645 22.0813C68.2521 22.1618 67.7911 22.7656 66.9904 22.3832C67.4756 21.7592 67.9124 21.0748 68.2763 20.3703C67.7911 19.9275 65.8258 20.8534 66.6022 19.4645C66.3595 19.7262 66.0199 20.1086 65.7044 19.8872C65.1221 17.351 62.9384 15.8212 61.2643 14.3921C59.5173 12.9227 57.9402 11.3124 57.8674 8.69566C57.6491 9.56119 57.3094 9.31965 56.9697 9.01772C57.0182 9.33978 56.1448 9.58132 55.7566 9.92351L55.6838 7.74961C54.2037 8.35347 54.1795 6.40099 52.8692 7.08536L53.5001 7.34703C51.559 7.74961 51.1951 10.2657 49.3268 11.413C51.5348 10.9299 48.6232 14.6739 51.8987 14.1103C51.7531 14.5934 51.1223 14.3116 50.8311 14.7141C51.8502 14.4525 52.3355 14.6336 52.5538 15.4589L52.3112 15.5193C54.1067 17.0088 54.0824 18.2367 55.3683 20.3703L56.1205 19.6256C56.3874 20.0885 56.169 20.3502 56.1205 20.6722C57.8917 20.1892 55.15 19.5652 57.0182 18.9412C55.7566 20.6722 59.5416 21.6384 57.4792 23.1279C57.8432 23.6312 58.4983 22.3832 58.8622 22.9065L58.3284 23.3494L59.2262 23.0877C59.3232 23.4903 58.6196 23.9935 58.0616 24.2149C58.0616 24.1143 57.7704 24.074 57.6976 24.0337C57.1881 24.7181 58.4983 24.8993 58.2799 25.1006C58.377 24.9597 58.474 24.7986 58.5468 24.6175C59.1534 25.1207 59.1777 25.5836 59.2262 26.1271C59.2262 26.6706 59.2262 27.053 59.5416 27.8985L60.0754 27.9991C60.2452 28.6633 59.9298 28.8445 59.5901 28.9451C59.4203 29.0055 59.2262 29.0458 59.0563 29.1666C58.8622 29.2873 58.7894 29.388 58.3284 29.9918V29.8711C58.3284 30.5152 58.0858 31.0788 57.455 31.5015C57.4307 30.797 55.1742 31.8839 55.2228 31.0385C54.5434 32.1657 54.5434 32.4274 54.7132 32.669C54.9073 32.8904 55.2956 33.1118 55.8779 33.8364L54.4949 33.8968C55.0529 34.4 55.5625 34.5007 55.0044 35.2253C54.7375 34.5409 52.6509 35.6078 52.1656 34.7623C49.8849 35.5675 49.8849 36.3324 49.9334 36.8155C49.9577 37.3388 49.9819 37.6408 47.7983 38.2245C50.3944 38.6874 50.8311 36.6544 51.1951 37.0369C52.6024 36.6947 53.0633 37.4797 52.2869 37.9226C51.7531 38.3654 47.3858 39.2108 46.7307 40.6601C46.8277 40.5192 46.6094 40.5393 46.6821 40.3984C45.6388 41.1029 47.1674 41.2237 45.7116 42.21C47.2645 42.1496 45.3477 43.156 47.4343 42.6729C47.4343 42.2704 47.4343 41.8678 47.4343 41.4652C47.7255 42.1093 49.7878 42.0489 48.332 43.6794C47.9438 43.7196 47.5071 43.5183 47.2645 43.3372C46.5851 43.9209 47.5071 43.941 46.852 44.5449C44.8624 45.1286 46.6579 42.9547 45.3477 42.5522C44.3286 43.2365 46.488 43.7599 44.3286 44.0014C47.0218 43.7398 43.8434 45.7526 45.9785 46.0948L44.8624 46.4773C45.0808 46.5779 45.6146 46.7188 45.6631 47.061H44.1345C45.469 47.4636 43.625 49.3758 44.7411 49.9394C43.8191 48.1077 45.7359 48.8927 46.1484 47.7454C47.1917 48.4901 46.7549 49.1141 46.2454 49.879C46.0028 50.2615 45.7359 50.664 45.6874 51.1069C45.6874 51.3283 45.6874 51.5698 45.8087 51.8114C45.9543 51.9724 46.3667 51.8315 46.8277 51.7912C46.5366 51.8516 46.2454 51.7912 46.1484 51.7107C46.1726 51.4088 46.391 51.127 46.7792 51.2276C47.1674 51.3283 47.7012 51.4289 47.6527 51.7309C50.0547 51.3685 48.1622 51.127 49.5937 50.6439C49.3511 51.3283 51.0252 50.2011 52.1899 49.8186L51.462 50.4829C53.4273 50.6036 53.5244 48.9934 55.0772 49.2148C54.5191 49.5771 53.9126 49.9394 53.306 50.3017L54.6647 49.8991L53.7427 50.7244C55.5139 49.9797 55.7323 50.0803 56.8241 50.1809C56.8969 49.6979 57.8674 48.8323 58.8865 48.6512C59.3232 48.9933 58.0858 49.416 59.6144 49.1141C59.0563 49.6375 58.3042 50.2615 58.0616 49.6576C57.8432 49.8991 57.4307 50.1608 57.2123 50.4024C57.7219 50.8251 59.2262 50.3017 59.7842 50.2212C59.5659 50.2212 59.3232 50.2212 59.2504 50.1004C60.1967 49.6576 61.0702 49.2148 61.9194 48.7518C62.162 48.9933 61.7981 49.2752 61.4341 49.5368C61.9194 49.3959 62.3561 48.9933 63.0112 48.8323C62.6473 49.4966 62.5017 50.1809 61.3856 50.5835C62.2105 50.2816 63.0355 49.9595 63.8119 49.6375C63.8847 49.8991 64.7824 50.3218 64.4428 50.6036C65.7044 50.9056 67.6455 48.9732 69.1983 49.3355C69.2711 49.1946 69.441 49.0336 69.7806 48.8927C71.2364 48.8927 72.8378 49.6777 74.3906 48.4499L75.0943 49.0739L75.4339 49.718C75.8707 49.2953 74.4392 48.0876 75.3126 47.3428C75.8464 46.7591 75.6523 48.5304 75.7979 48.8927C75.8464 48.5103 75.992 47.9265 76.2589 47.6045C76.5015 47.2623 76.8412 47.222 76.8655 47.8863C76.6471 48.1077 76.5986 47.8863 76.4287 47.9668L76.1861 48.2285ZM93.6798 49.1745C93.6798 49.1745 93.8497 49.3355 93.971 49.416L96.2517 51.4491L85.0421 52.9386C84.6782 52.9788 84.29 52.999 84.4598 52.5964C85.2605 52.0328 85.3333 52.2139 85.3818 52.5561L85.7458 54.8911L93.3887 49.416C93.3887 49.416 93.5828 49.2752 93.6798 49.1946V49.1745ZM98.7023 39.5731C98.6295 39.9354 98.1685 39.9354 97.6104 39.6939C97.8773 39.553 98.217 39.4725 98.7023 39.5731ZM83.2952 11.6948C83.2952 11.6948 83.3195 11.6345 83.3437 11.5942C83.2224 12.1578 83.2709 11.9364 83.2952 11.6948ZM83.1982 11.2319C83.0768 11.4936 82.9798 11.715 82.907 11.9364C83.1011 11.4936 83.1982 11.3929 83.2467 11.4533C83.3923 11.0306 83.465 10.7689 83.1739 11.2319H83.1982ZM60.7305 38.0232L60.0997 38.2044C59.6629 38.1238 60.1724 38.0836 60.7305 38.0232Z" fill="#F3FAEC"/>
<path d="M96.5186 41.5458C96.4216 41.4048 96.3245 41.2236 96.2517 41.0625C96.2517 41.2236 96.3245 41.4048 96.5186 41.5458Z" fill="#C5DAF0"/>
<path d="M69.0279 49.5769H68.9796C68.9796 49.5769 68.9314 49.6772 68.9314 49.7374L69.0279 49.5769Z" fill="#C5DAF0"/>
<path d="M94.9657 15.8213C94.8687 16.1636 94.6746 16.365 94.4805 16.5059C94.7716 16.4858 94.99 16.3046 94.9657 15.8213Z" fill="#C5DAF0"/>
<path d="M80.9417 14.9157L81.1115 14.4727C81.0387 14.5935 81.0144 14.3317 80.9659 14.1707C80.9659 14.4526 80.9659 14.8553 80.9659 14.9157H80.9417Z" fill="#C5DAF0"/>
<path d="M75.4098 10.5876C75.3127 10.7085 75.1671 10.6279 75.0701 10.7487L75.1186 11.1917C75.7252 11.1313 75.9435 10.7085 75.4098 10.5876Z" fill="#C5DAF0"/>
<path d="M80.602 11.0911C80.5292 10.1245 80.2381 10.6682 79.9712 11.0508C79.9712 11.0508 79.9955 11.0106 80.0197 11.0106C80.141 12.3597 80.3109 11.7556 80.5778 11.0911H80.602Z" fill="#C5DAF0"/>
<path d="M79.9226 11.1311C79.8499 11.2316 79.7528 11.3321 79.6558 11.3522C79.7286 11.8747 79.7771 11.3924 79.9226 11.1311Z" fill="#C5DAF0"/>
<path d="M82.3975 12.4798C82.3975 12.1979 81.8637 14.1914 81.985 13.688C81.7181 14.5337 81.9365 13.99 82.2034 13.3255C82.4702 12.661 82.7614 11.8958 82.3975 12.4999V12.4798Z" fill="#C5DAF0"/>
<path d="M80.0681 8.07152L80.3107 9.1589L80.4806 8.03125L80.0681 8.07152Z" fill="#C5DAF0"/>
<path d="M83.1739 6.78345L82.6401 6.82372C82.6158 7.06536 82.5188 7.26673 82.3975 7.42782C82.7614 7.20632 83.1011 7.22645 83.1739 6.78345Z" fill="#C5DAF0"/>
<path d="M82.3733 7.42749C82.1792 7.54831 81.9851 7.7094 81.8638 8.01145C81.9608 7.93091 82.2035 7.72954 82.3733 7.42749Z" fill="#C5DAF0"/>
<path d="M80.9902 7.00474L81.2086 7.14569L81.6696 6.90405L80.9902 7.00474Z" fill="#C5DAF0"/>
<path d="M87.3472 7.3874L87.7596 7.68945C88.0993 7.28672 88.2692 6.7833 88.0751 6.68262C87.8082 6.84371 87.6383 6.76316 87.3472 7.3874Z" fill="#C5DAF0"/>
<path d="M89.361 0.382595C89.2397 1.00683 89.0213 1.4297 88.7544 2.13448L89.8705 0L89.361 0.382595Z" fill="#C5DAF0"/>
<path d="M90.1858 2.75801C90.5255 2.31501 91.4232 2.83856 91.0835 1.59009C90.7438 1.97268 90.2828 1.40886 90.1858 2.75801Z" fill="#C5DAF0"/>
<path d="M91.1564 17.7535L91.1079 17.5723L88.7058 18.0757C89.5308 17.975 90.3557 17.8743 91.1564 17.7535Z" fill="#C5DAF0"/>
<path d="M103.531 20.3705C102.22 19.1422 102.245 21.1961 101.201 19.9879C100.546 20.2295 102.026 20.9545 101.371 21.1357C102.633 21.1357 102.924 21.6592 103.531 20.3705Z" fill="#C5DAF0"/>
<path d="M101.371 21.115C101.177 21.115 100.959 21.115 100.716 21.1566C101.056 21.1566 101.25 21.1566 101.371 21.115Z" fill="#C5DAF0"/>
<path d="M55.5382 6.36102L55.4654 5.61597L55.1257 6.36102H55.5382Z" fill="#C5DAF0"/>
<path d="M53.2332 6.44154L54.325 5.49512L52.942 5.9784C53.1119 6.03881 53.403 6.17976 53.2332 6.46167V6.44154Z" fill="#C5DAF0"/>
<path d="M96.931 47.6044L96.5428 47.5439C96.1304 47.6245 96.0818 47.7654 96.009 48.0474L96.931 47.6044Z" fill="#C5DAF0"/>
<path d="M77.8359 50.282L77.9573 50.4028L78.5396 49.2751L77.8359 50.282Z" fill="#C5DAF0"/>
<path d="M75.628 50.8856C75.628 50.8856 75.628 50.6641 75.6523 50.7044C75.6523 50.9259 75.4339 49.3955 75.628 50.8856Z" fill="#C5DAF0"/>
<path d="M172.05 55.0724C172.365 55.2134 172.535 54.3878 172.656 54.2468C171.977 54.2871 172.001 55.2738 172.05 55.0724Z" fill="#C5DAF0"/>
<path d="M165.96 55.958L166.105 55.6157L165.183 56.3809L165.96 55.958Z" fill="#C5DAF0"/>
<path d="M160.937 55.5756C161.325 57.0254 162.757 55.4145 163.63 55.9985L163.752 56.3408L164.286 55.2131C163.145 55.2937 161.689 55.9985 160.962 55.5756H160.937Z" fill="#C5DAF0"/>
<path d="M158.292 52.4353C158.462 52.998 157.686 52.9176 158.923 52.6162C158.851 52.5559 158.851 52.5157 158.802 52.4755C158.681 52.4755 158.535 52.4755 158.268 52.4353H158.292Z" fill="#C5DAF0"/>
<path d="M158.826 52.4545C158.488 51.9937 159.357 52.4144 158.826 52.4545V52.4545Z" fill="#C5DAF0"/>
<path d="M156.327 52.7982L157.031 52.2948C156.885 51.9726 156.254 51.9122 156.473 51.6504C155.745 51.9323 155.915 52.2545 156.327 52.7982Z" fill="#C5DAF0"/>
<path d="M155.696 53.8645L156.06 53.643C155.987 53.502 155.89 53.4617 155.696 53.8645Z" fill="#C5DAF0"/>
<path d="M156.812 53.1802L156.06 53.6433C156.157 53.8648 156.182 54.3481 156.4 53.4822C156.351 53.9051 156.497 53.4822 156.812 53.1802Z" fill="#C5DAF0"/>
<path d="M157.249 53.4015C157.662 53.7237 158.147 53.9049 157.468 54.4083C158.802 54.2069 158.608 53.2001 157.249 53.4015Z" fill="#C5DAF0"/>
<path d="M160.622 57.065L161.107 57.508L161.568 57.0449C161.35 57.2664 160.622 56.622 160.622 57.065Z" fill="#C5DAF0"/>
<path d="M151.984 52.1938C151.984 52.4959 152.275 52.9993 152.348 53.3819L152.833 53.0194C152.566 52.8181 152.057 52.657 151.984 52.1938Z" fill="#C5DAF0"/>
<path d="M152.348 53.3813L151.644 53.9452C152.299 53.9854 152.421 53.7237 152.348 53.3813Z" fill="#C5DAF0"/>
<path d="M155.624 55.455L156.837 54.3274L155.405 55.4752L155.624 55.455Z" fill="#C5DAF0"/>
<path d="M149.145 52.2947L149.509 51.5698L148.854 52.6773L149.145 52.2947Z" fill="#C5DAF0"/>
<path d="M147.325 52.5164C147.568 51.9123 146.84 51.5498 147.131 51.1672C146.646 51.3082 146.258 51.8317 145.918 52.2949C146.282 52.013 146.719 52.0532 147.325 52.5164Z" fill="#C5DAF0"/>
<path d="M145.336 52.9991C145.53 52.8581 145.7 52.5762 145.918 52.3145C145.724 52.4554 145.53 52.6568 145.336 52.9991Z" fill="#C5DAF0"/>
<path d="M150.358 53.8648C150.286 53.6836 150.14 53.2003 149.703 53.019L150.067 53.8648C150.067 53.8648 150.261 53.8648 150.358 53.8648Z" fill="#C5DAF0"/>
<path d="M150.092 53.8859C149.776 53.8442 149.558 53.8442 149.461 53.8442C149.533 53.8442 149.728 53.8442 150.092 53.8859Z" fill="#C5DAF0"/>
<path d="M150.431 53.8645H150.358C150.358 53.8645 150.407 53.968 150.431 53.8645Z" fill="#C5DAF0"/>
<path d="M153.634 54.73C153.222 55.2334 152.348 55.7771 153.27 56.4819C153.537 55.8778 153.027 55.475 153.634 54.73Z" fill="#C5DAF0"/>
<path d="M150.868 54.9115L151.669 55.0726C151.644 54.8511 151.474 54.5289 151.669 54.2671L150.868 54.9115Z" fill="#C5DAF0"/>
<path d="M150.504 55.1932L150.868 54.9112L150.577 54.8508L150.504 55.1932Z" fill="#C5DAF0"/>
<path d="M146.695 53.7234C146.404 54.106 146.04 54.1664 145.651 54.247C146.088 54.3879 146.549 54.4685 146.986 54.4282C147.034 54.1463 147.18 53.663 146.719 53.7234H146.695Z" fill="#C5DAF0"/>
<path d="M148.344 53.8845L148.272 53.9451C148.272 53.9451 148.368 54.0462 148.344 53.8845Z" fill="#C5DAF0"/>
<path d="M143.007 63.8485C143.007 63.8485 143.055 63.7476 143.079 63.7073L143.007 63.8485Z" fill="#C5DAF0"/>
<path d="M147.059 54.6087C147.398 54.7494 147.568 54.5283 147.738 54.2671C147.495 54.3676 147.253 54.4279 146.962 54.4681C146.962 54.5886 146.962 54.669 147.059 54.6288V54.6087Z" fill="#C5DAF0"/>
<path d="M144.268 53.4618C144.438 53.6431 144.657 53.784 144.851 53.9048C144.657 53.6431 144.317 53.2403 144.268 53.4618Z" fill="#C5DAF0"/>
<path d="M148.126 53.7043C148.126 53.7043 148.15 53.6638 148.174 53.6638C148.054 53.4814 148.078 53.5827 148.126 53.7043Z" fill="#C5DAF0"/>
<path d="M148.126 53.7034C147.956 53.8443 147.859 54.0457 147.738 54.2471C147.932 54.1665 148.102 54.0658 148.272 53.9249C148.223 53.8645 148.175 53.7839 148.151 53.7034H148.126Z" fill="#C5DAF0"/>
<path d="M146.937 59.3394C146.331 59.9634 145.287 60.2855 144.996 59.2791C144.487 59.4602 144.268 60.2452 144.001 61.1309C143.759 62.0166 143.346 62.9827 143.055 63.6872C143.274 63.4054 143.274 63.0029 143.953 62.8016C144.001 62.56 143.953 62.2581 143.953 61.936C143.953 61.614 143.953 61.2517 144.293 60.99C145.142 60.8491 144.705 61.4731 144.729 61.9763C145.02 60.9497 146.573 61.2315 147.447 59.9634H146.355C146.476 59.7823 146.986 59.6212 146.913 59.3394H146.937Z" fill="#C5DAF0"/>
<path d="M143.856 61.1309C143.856 60.99 143.856 60.8491 143.832 60.7082L143.419 54.5286H143.492L143.419 54.4683L143.832 60.7082C143.929 61.3322 143.807 61.5536 143.419 62.8217C143.298 63.1639 143.152 63.3652 143.031 63.6268C142.934 63.8482 142.861 64.0495 142.764 64.2307C142.861 64.0697 142.91 63.969 142.983 63.8482V63.808L143.104 63.5061C143.274 63.2041 143.419 62.8821 143.541 62.5399C143.662 62.2581 143.71 61.7549 143.783 61.614C143.856 61.4127 143.88 61.1711 143.88 60.9497V61.151L143.856 61.1309Z" fill="#C5DAF0"/>
<path d="M144.851 54.428C144.681 55.3137 143.977 55.7162 144.487 56.622C145.384 56.5214 145.069 55.8773 145.579 55.4546C144.147 55.7565 145.967 54.9513 144.875 54.5085C145.142 54.3475 145.409 54.2871 145.651 54.2468C145.384 54.1462 145.118 54.0456 144.875 53.8845L144.923 53.9449C144.996 54.0455 145.021 54.1059 144.923 54.0456H144.899C144.899 54.1663 144.899 54.267 144.851 54.3676C144.414 54.2066 144.778 54.1462 144.899 54.0456V53.9248L143.492 54.4683C143.807 54.5689 144.196 54.5286 144.851 54.3877V54.428Z" fill="#C5DAF0"/>
<path d="M152.59 58.3722C152.59 58.3722 152.542 58.232 152.542 58.1719C152.445 58.2721 152.421 58.3522 152.59 58.3722Z" fill="#C5DAF0"/>
<path d="M151.935 57.8911C152.032 57.7703 152.105 57.4078 152.469 57.4884C152.785 57.73 152.493 57.9112 152.518 58.1931C152.712 57.9515 153.221 57.5488 152.518 57.146L152.421 57.2669C151.79 56.9849 150.965 55.958 151.038 55.8372C151.28 56.6023 151.474 57.146 151.911 57.8911H151.935Z" fill="#C5DAF0"/>
<path d="M148.369 56.3806L147.18 56.884L147.859 57.5888L147.787 57.1458C148.49 57.2868 148.296 56.7431 148.369 56.3806Z" fill="#C5DAF0"/>
<path d="M142.813 64.2308L142.4 64.9758C142.4 64.9758 142.57 64.6335 142.691 64.4724L143.201 63.969C143.055 64.0495 142.885 64.1099 142.837 64.2308H142.813Z" fill="#C5DAF0"/>
<path d="M143.516 64.4521L142.934 65.0965L143.468 64.8146L143.516 64.4521Z" fill="#C5DAF0"/>
<path d="M180.857 78.9249L180.542 78.6631C180.663 78.7839 180.76 78.8644 180.857 78.9249Z" fill="#C5DAF0"/>
<path d="M181.197 81.0813H181.682C181.415 80.997 181.197 80.997 181.197 81.0813Z" fill="#C5DAF0"/>
<path d="M151.935 85.0237C151.013 85.5472 149.655 86.252 150.722 86.1513L151.766 85.9701C151.571 85.5875 151.693 85.2855 151.935 85.0237Z" fill="#C5DAF0"/>
<path d="M174.597 82.5882L174.33 82.407C174.379 82.7493 174.403 83.0514 174.476 83.3333C174.476 83.1118 174.549 82.85 174.597 82.5681V82.5882Z" fill="#C5DAF0"/>
<path d="M173.336 79.0053C173.724 79.0458 174.088 79.0864 174.428 79.1472C174.161 79.0458 173.821 78.9647 173.336 79.0053Z" fill="#C5DAF0"/>
<path d="M188.451 64.2311L188.233 63.2847C187.675 63.5867 188.233 63.8284 188.451 64.2311Z" fill="#C5DAF0"/>
<path d="M155.332 71.6382C155.138 71.9604 155.09 72.1013 155.114 72.1617C155.526 71.759 156.084 71.1348 155.332 71.6382Z" fill="#C5DAF0"/>
<path d="M192.042 78.3411C191.824 78.1799 191.581 78.1397 191.363 78.1598C191.581 78.3209 191.8 78.4015 192.042 78.3411Z" fill="#C5DAF0"/>
<path d="M155.429 72.3829C155.429 72.3829 155.551 72.2822 155.623 72.2218C155.357 72.2218 155.138 72.2621 155.114 72.1614C154.823 72.4634 154.604 72.6447 155.429 72.3829Z" fill="#C5DAF0"/>
<path d="M186.558 46.3162C186.558 46.3162 186.462 46.3162 186.389 46.3162C186.51 46.3994 186.534 46.3578 186.558 46.3162Z" fill="#C5DAF0"/>
<path d="M170.036 52.838C170.036 52.697 170.133 52.4957 170.23 52.3145C170.109 52.3749 170.036 52.536 170.036 52.838Z" fill="#C5DAF0"/>
<path d="M147.397 67.6547C147.108 67.508 147.277 67.6967 147.397 67.6547V67.6547Z" fill="#C5DAF0"/>
<path d="M149.024 64.1906C149.145 64.1503 149.291 64.0899 149.461 63.949C149.267 64.0899 149.121 64.1705 149.024 64.1906Z" fill="#C5DAF0"/>
<path d="M163.485 71.882C163.654 71.7987 163.678 71.7779 163.485 71.882V71.882Z" fill="#C5DAF0"/>
<path d="M147.35 67.0688C147.35 67.2095 147.374 67.3703 147.447 67.4909C147.447 67.4105 147.447 67.2698 147.35 67.0688Z" fill="#C5DAF0"/>
<path d="M147.081 67.4101C147.081 67.4101 146.985 67.2498 146.937 67.1897C146.792 67.2698 146.744 67.37 147.081 67.4101Z" fill="#C5DAF0"/>
<path d="M147.762 67.8742C147.617 67.7735 147.52 67.6527 147.447 67.5117C147.447 67.5923 147.447 67.6325 147.398 67.6527C147.471 67.6929 147.593 67.7534 147.787 67.8742H147.762Z" fill="#C5DAF0"/>
<path d="M189.665 64.6734C189.665 64.6734 189.616 64.6332 189.616 64.593C188.791 65.2361 189.082 65.0954 189.665 64.6734Z" fill="#C5DAF0"/>
<path d="M157.079 88.0229C157.079 88.0229 157.079 88.0649 157.079 88.0858H157.152L157.103 88.0229H157.079Z" fill="#C5DAF0"/>
<path d="M157.613 86.8958C157.929 88.0431 157.613 88.0632 157.128 88.0632L159.19 89.9352L157.613 86.8958Z" fill="#C5DAF0"/>
<path d="M180.323 71.1147C179.887 71.3562 179.474 71.638 179.062 71.9399C177.946 70.1284 179.232 69.2024 177.363 69.9069C178.819 70.5511 178.407 71.6581 178.358 72.8256C178.285 73.9931 178.552 75.2411 180.226 75.4021C180.032 75.6436 179.838 75.8852 179.644 76.1267C179.644 75.9053 179.426 75.865 179.426 75.6436C178.091 77.1533 182.07 76.8715 181.852 78.361C181.682 78.8038 181.27 79.146 180.809 78.9246L181.779 79.7096C181.779 79.9713 181.197 79.9914 181.197 79.7096L181.706 81.0381H181.609C182.167 81.179 183.041 81.5011 183.405 81.6822C182.992 82.0848 183.017 81.5615 182.628 81.6822L183.55 82.3465C182.774 82.7692 181.828 82.2458 181.852 81.7024C178.746 82.8296 182.798 82.2257 181.173 83.997L180.615 83.3328C178.843 84.0373 179.62 84.5003 178.625 85.4664C179.183 85.2048 181.221 83.4737 182.192 84.1782C181.998 84.4399 181.925 84.7619 182.677 85.1243C181.512 85.2853 181.876 85.6677 182.046 86.2112L180.517 86.3722C180.517 86.3722 180.663 86.493 180.712 86.5131L189.374 80.7765C189.422 80.6557 189.446 80.5349 189.495 80.4141L189.543 80.2934L189.471 80.4544C189.373 80.6959 189.252 80.9576 189.082 81.1589C188.937 80.9777 189.374 80.0116 189.859 79.2869C189.519 78.8843 189.276 80.8771 188.451 80.7362C188.33 80.394 188.063 80.233 187.602 80.1525C187.432 80.1525 186.996 80.0317 186.583 79.9512C186.171 79.8707 185.686 79.8103 185.2 79.7499C184.521 78.824 185.831 79.146 185.686 78.6227C185.2 78.7636 184.715 78.9246 184.278 79.0856C184.084 78.9447 184.303 78.7032 184.424 78.5623C183.502 78.5824 183.72 79.7096 182.556 79.5687C182.143 80.1927 181.852 79.4681 181.27 78.7636C180.712 78.0792 179.741 77.415 178.94 78.2C178.576 77.8175 179.159 77.415 179.086 76.9117C177.921 77.3948 177.509 77.6565 177.121 77.9182C176.757 78.2 176.417 78.5422 175.835 79.4681C175.349 79.3071 174.84 79.1863 174.33 79.1058C175.592 79.6694 174.719 81.2595 174.5 82.5478C174.961 82.8497 175.301 83.1516 175.495 83.2724C175.252 83.675 175.058 84.0776 174.888 84.46C174.67 84.3392 174.5 83.8964 174.379 83.3127C174.379 83.4536 174.355 83.5743 174.379 83.6951C173.748 83.4938 173.457 82.7491 173.384 81.9037C173.675 82.0446 173.966 82.2056 174.258 82.3666C174.161 81.4809 174.136 80.4745 173.724 79.8103C173.675 79.9914 173.554 80.2128 173.384 80.394C173.384 80.1525 173.36 79.931 173.239 79.8304C173.117 79.7298 173.093 80.0921 172.996 80.5148C172.632 80.1323 172.244 79.77 171.856 79.4077L172.074 79.9713C171.249 80.0719 170.133 80.3537 169.551 80.3336C169.502 82.1251 170.06 84.3996 168.798 85.8489C168.483 84.7418 167.707 84.3795 166.857 83.3529C168.216 84.1782 167.755 82.1452 168.798 81.8634C168.265 82.0043 167.949 81.4608 167.925 81.2193L167.221 83.0912C166.542 82.2257 166.372 82.6484 165.668 82.5276C167.367 83.997 165.45 84.299 165.256 85.1645C164.746 84.621 164.431 83.9769 165.304 83.675C163.412 82.9101 165.838 86.2515 164.14 85.6677C164.31 85.547 164.48 85.5671 164.334 85.245C164.334 85.9898 162.927 86.2112 162.757 85.5872L162.927 85.4664C161.519 85.9898 159.166 87.6202 160.161 89.1299C159.991 88.9487 158.899 87.3384 158.729 87.0163L160.5 93.0147C159.675 91.6862 156.521 89.2506 156.982 87.9825C156.74 87.9825 156.473 87.9825 156.206 88.1234L163.97 90.1766C163.921 90.0357 163.752 89.9149 163.412 89.774C163.218 89.9753 161.131 90.8408 160.889 90.6596C162.538 89.5324 161.714 89.935 163.121 88.8481C162.83 89.15 160.039 89.4519 160.015 88.989C160.428 88.989 162.684 88.4857 162.999 88.5864C162.029 88.4455 161.058 88.2442 160.088 88.0027C160.622 88.2039 162.369 87.741 163.121 87.4592C162.587 87.6202 163.048 86.654 162.781 86.4326L162.199 86.8755C162.538 85.8086 158.268 85.8891 158.462 84.5405C159.02 84.7418 161.908 85.0035 162.296 84.4801C160.913 84.2185 155.696 82.7289 154.993 81.0985L155.842 80.9777C155.648 80.5953 155.454 80.2531 155.284 79.8304V79.7499C155.284 79.7499 155.308 79.7901 155.332 79.8304C157.128 81.0583 161.034 83.1919 162.66 83.9367C163.339 83.5945 163.606 83.9367 163.63 83.3328C164.407 83.2322 164.698 83.7756 164.722 83.9165C164.941 83.514 165.183 83.1315 165.45 82.7893C164.358 82.6484 164.14 82.1049 163.727 81.7628C163.509 81.6219 163.242 81.4809 162.805 81.3602L163.024 81.6017C163.363 82.0446 163.703 82.5679 164.067 83.0107C162.781 82.89 160.792 81.964 160.379 80.9979C160.282 80.7765 160.258 80.5349 160.428 80.3537C161.131 80.3537 163.048 81.3803 163.606 81.481C163.072 81.2998 162.951 80.4946 163.388 80.5349L163.97 81.1992C164.746 81.0381 162.514 79.609 164.334 79.5687C164.601 79.3674 167.003 79.2265 166.178 78.824C163.97 78.8843 158.948 76.5494 157.807 75.8852C157.929 75.9254 160.112 75.543 161.277 75.3618C162.15 75.3014 162.927 75.5832 163.655 75.9657C164.358 76.328 165.013 76.7708 165.79 76.6702C165.353 76.5494 165.013 76.1066 164.916 75.9657C165.499 75.6638 166.226 76.3683 166.469 75.5027C164.868 75.1605 167.343 73.8522 165.232 74.9593C165.086 74.1742 165.935 74.1742 166.129 73.2282C164.965 73.4899 162.733 72.6042 162.053 72.2217C162.538 72.1815 163.218 71.9399 163.46 71.8393C163.485 71.0945 163.533 70.4705 163.363 69.8868C163.218 69.444 162.999 69.0012 162.466 68.6187C162.708 68.3772 162.49 67.6928 163.363 67.5519C162.902 67.5519 162.272 67.7129 161.811 67.4714C162.102 66.1831 163 67.9545 163.727 66.6662C162.878 67.0889 161.422 66.626 160.331 66.7065C159.481 67.7129 161.568 67.5318 162.708 67.6928C161.01 68.6187 158.074 69.3232 156.594 69.5849C155.551 69.6251 157.055 68.5583 156.764 68.6992C156.157 68.2966 155.502 68.6187 154.701 68.8804C153.974 69.1622 153.197 69.444 152.518 68.9609C152.324 68.7999 152.13 68.5784 152.008 68.2765C152.202 66.9883 153.658 66.626 154.119 65.9215C154.483 66.002 154.702 66.1831 154.823 66.4046C155.114 66.8273 155.187 67.4311 155.624 67.6123C155.454 67.3506 155.308 67.0688 155.163 66.787C155.696 66.6461 156.424 66.6863 156.57 67.1091C156.57 66.6461 155.987 66.2838 155.332 65.8409C154.435 65.1767 153.27 64.3313 152.93 63.3651C152.397 63.4456 151.693 63.4255 151.523 63.8885L152.057 64.0897C151.717 65.0157 150.286 64.3917 150.48 65.0761C149.412 65.1163 148.029 65.3579 147.689 64.4521L148.514 63.4054C148.248 63.6872 148.442 64.3313 148.951 64.2105C148.199 64.3917 149.072 62.0769 147.447 63.0632L147.326 64.0897C146.282 64.1904 144.657 64.754 144.39 64.1099C143.783 65.2572 144.632 64.0696 144.001 65.4786C144.923 63.8079 145.506 66.5857 146.331 64.754C145.506 66.3442 146.598 65.8611 146.088 67.3909C146.404 67.0688 146.501 66.6461 146.889 67.2097C147.01 67.1493 147.204 67.0688 147.301 67.0285C147.301 67.0487 147.301 67.0688 147.301 67.0889V67.0285C147.301 67.0285 147.398 66.9883 147.301 67.0084C147.301 66.7669 147.374 66.5454 147.52 66.3442C148.539 65.8611 149.436 66.5656 150.14 66.4649C150.334 66.8675 149.606 66.7065 149.436 67.1694L150.504 67.0084C149.8 67.7129 150.261 68.8602 148.951 68.5784L149.728 69.2024C149.8 69.766 150.164 70.3296 150.916 70.692C151.159 70.7926 151.377 70.853 151.62 70.8933C152.227 71.477 153.78 70.8127 152.858 71.1952C153.197 71.2556 153.634 71.3562 153.877 71.3361C154.046 71.2958 154.168 71.2556 154.313 71.2153L154.168 71.4166C154.362 71.5575 154.92 71.3763 155.405 71.3763C155.866 71.3763 156.279 71.5978 155.526 72.2419C155.842 72.2217 156.23 72.2016 156.303 72.3828C156.303 72.423 156.303 72.5035 156.279 72.5639L155.235 72.9262C155.721 73.0269 154.241 73.5301 155.357 73.4295C153.877 73.671 153.707 73.7113 153.78 73.8119C153.877 73.8924 154.192 74.0937 153.901 74.134L155.114 74.4359C155.114 74.4359 155.041 74.6171 155.114 74.758C155.163 74.8385 155.187 74.919 155.235 74.9995C155.284 75.1001 155.381 75.1605 155.308 75.4625L156.279 75.865C156.618 76.8916 154.313 77.2741 153.682 79.1662C153.343 78.9447 153.61 78.522 153.974 78.3207C153.319 78.5623 152.955 78.9447 152.736 79.3674C152.008 80.8368 154.168 82.4874 152.615 83.5542C152.955 83.9568 152.809 84.2185 152.518 84.4801C152.518 84.4399 152.518 84.4197 152.469 84.3795C152.469 84.4197 152.469 84.4801 152.469 84.5405C152.275 84.7015 152.057 84.8626 151.863 85.0639C152.13 84.9028 152.348 84.7619 152.469 84.6412C152.469 84.9431 152.591 85.3859 152.882 85.8086L151.717 86.0099C151.717 86.0099 151.717 86.0703 151.741 86.1106C151.329 86.5534 152.299 86.4527 153.173 86.1911C153.367 86.3924 153.61 86.5936 153.901 86.7346C152.033 87.1774 154.629 87.7812 152.688 88.4052C153.658 88.6065 153.828 90.4785 155.915 90.2772C155.648 90.3376 155.575 90.4785 155.478 90.2772C155.381 90.7603 155.284 91.2635 155.987 91.5051L154.629 92.0485C155.357 92.2096 156.084 92.3505 156.812 92.4511L160.549 93.4374V93.377C161.568 93.6991 162.077 93.9406 162.223 95.0075C162.441 93.0952 162.854 93.9809 162.902 92.1894L163.412 92.8738C163.776 92.6323 163.63 91.4044 164.31 91.8271C166.202 92.592 168.604 89.613 171.734 89.5123C169.696 87.8215 173.457 89.7941 172.292 88.2643C172.802 88.6468 173.311 88.7273 173.287 89.3312C174.015 88.2442 175.544 89.1097 175.252 87.3988C175.762 87.7812 175.568 88.2039 175.907 88.4052C175.907 88.2643 175.907 87.8014 176.271 88.0228C176.611 88.2241 176.441 88.5059 176.417 88.7877C177.048 88.365 176.708 88.0228 176.393 87.4189C176.077 86.8352 175.616 86.0904 175.155 85.3658C176.005 85.8086 176.005 85.6677 175.883 84.4801C176.271 84.9028 176.66 85.3457 176.32 85.7684C176.635 85.6476 177.921 85.9495 177.849 84.6009C177.97 84.9431 178.285 84.6814 178.358 84.5003C179.062 84.621 179.086 84.7619 179.765 84.8425L179.644 84.5606C180.323 83.0107 180.348 84.4197 180.906 84.5003L180.833 84.6412C181.367 86.3118 181.682 84.4801 181.949 86.2313L182.58 85.4061C184.133 83.7555 183.065 87.278 184.909 87.2176L184.788 86.5333C185.297 86.3722 185.297 87.0767 185.467 87.9423C185.564 88.8279 185.928 89.8746 186.413 90.3175L187.117 90.9817L193.498 85.0035C193.498 85.0035 193.571 84.923 193.595 84.8827C193.717 84.8022 193.814 84.8626 193.935 84.9632L200.098 90.0155L186.292 90.6999C186.122 90.6999 185.928 90.6999 185.758 90.72C185.904 90.8408 186.049 90.9415 186.195 91.022L189.155 92.8939L194.347 84.923C195.051 83.836 192.6 85.1243 192.091 84.2587C192.867 83.9769 194.202 84.2185 194.226 83.5542C194.833 83.1315 191.217 81.9842 192.625 80.8972C192.042 81.179 191.436 81.4608 190.902 81.0583C190.538 80.394 192.916 78.8642 190.829 78.5019C190.975 78.4013 191.145 78.3409 191.29 78.3207C190.975 78.0792 190.684 77.6766 190.344 77.3143C190.004 77.0325 189.616 76.8916 189.034 76.7708C191.023 76.5092 190.465 76.2072 189.834 75.6436C189.179 75.1203 188.621 74.3956 190.587 75.0196C190.587 74.8184 190.587 74.5969 190.708 74.4158C190.756 74.3353 190.805 74.2547 190.854 74.1944L191.193 74.3956C191.873 74.1944 191.315 73.671 190.878 73.0068C191.242 73.0672 191.363 73.3288 191.509 73.4496C193.013 73.3892 192.503 73.51 192.964 71.4166L193.741 72.1815C193.741 71.4971 197.016 72.2821 197.817 70.4907C197.866 70.5913 197.963 70.7725 197.938 70.9536C198.909 69.0414 203.883 71.0744 202.16 67.6727L202.718 66.3039C201.068 66.8474 201.918 64.8546 200.898 64.6735C201.335 64.1904 203.106 64.7942 202.524 65.3377L202.306 65.2371C202.888 66.2636 203.567 65.9215 204.223 65.7202L207.886 64.4923L204.514 61.5938C204.101 61.2516 203.786 60.9094 204.174 60.4867C202.281 59.4601 200.389 58.494 198.302 57.8297C197.332 57.4875 195.949 57.2259 195.585 57.1051C195.148 56.9843 194.857 56.9038 194.493 56.9239C194.299 57.407 194.153 57.8901 194.008 58.3732C193.789 58.3732 193.571 58.3732 193.353 58.3732C193.353 58.0511 193.862 57.2259 194.202 57.246C194.517 56.4207 193.134 58.0511 192.819 58.4134C192.576 58.2122 193.037 57.7291 193.425 57.3265C193.838 56.9239 194.178 56.5817 194.105 56.5817L193.765 56.7629L193.692 56.9239C193.207 57.3869 192.795 57.8901 192.406 58.1518C192.261 58.2725 192.091 58.3329 191.97 58.3732C191.945 58.1719 192.698 57.4271 192.649 57.407C192.77 57.2661 192.722 57.3265 192.625 57.3064L192.722 56.6622C192.334 57.1051 191.921 57.568 191.533 58.0511C190.926 58.3128 191.533 57.3064 190.198 58.9167C191.242 57.6486 191.363 56.9038 191.266 56.2798C191.169 55.6558 190.854 55.1325 191.169 54.8708C190.611 54.7702 190.32 54.589 190.126 54.2871C189.907 53.9046 189.834 53.4819 189.737 53.019C189.519 53.3008 188.039 53.7436 187.991 52.9384C191.242 52.5359 188.888 51.2074 190.878 49.9996C189.64 50.9457 189.616 47.8257 187.893 49.3153C187.869 48.6108 189.034 48.9529 189.543 48.2283C187.699 47.0407 188.694 44.5448 187.166 42.8137C186.777 42.9546 186.365 43.4981 185.564 43.337L186.85 41.5657C186.68 41.4449 186.195 41.5456 185.807 41.606L178.188 41.2437C178.504 41.606 178.698 41.9079 177.727 41.8475C178.091 41.928 178.649 42.0689 178.576 42.3507C176.368 43.4578 175.422 45.37 174.427 47.2018C173.408 49.0335 172.317 50.7645 169.526 51.9521C170.545 51.7307 170.448 52.093 170.278 52.4755C170.594 52.2943 171.249 52.8378 171.783 52.9787L169.526 53.9851C170.861 54.7701 168.823 55.6759 170.181 56.2999V55.7363C171.54 56.9038 174.306 56.0584 176.417 56.9038C174.864 55.5552 180.081 56.1792 177.97 54.1462C178.528 54.0858 178.528 54.6091 179.086 54.6695C178.334 54.0656 178.334 53.6429 179.086 53.2202L179.256 53.3813C180.032 51.6301 181.367 51.308 183.162 49.8386L182.07 49.4763C182.483 49.1542 182.847 49.2348 183.211 49.1945C182.046 48.0069 182.361 50.2211 180.978 49.0133C183.332 49.4964 183.017 46.3362 185.516 47.242C185.977 46.6985 184.278 46.779 184.764 46.2356L185.491 46.4369L184.861 45.8531C185.079 45.6921 185.419 45.6921 185.783 45.7525L177.63 45.3499C177.412 45.5713 177.121 45.7525 176.878 45.8733C176.878 45.8129 176.829 45.7726 176.757 45.7525L186.608 46.2356C186.608 46.2356 186.608 46.457 186.608 46.5174C186.753 46.5174 186.874 46.4771 186.971 46.4369L176.393 45.9135C176.393 46.5375 177.582 46.8998 177.436 47.1414L177.485 46.4167C179.086 47.7452 179.232 50.0399 181.294 51.2678L181.755 50.986C183.235 52.0125 181.609 52.1534 182.556 53.4618H182.41C183.017 53.6027 183.405 53.9247 183.478 54.3474C182.75 54.126 182.483 55.2734 181.658 54.9513C183.089 56.1188 182.677 55.4948 184.933 56.2597L184.133 56.783C185.03 57.0044 185.419 56.9239 185.831 57.7895C184.933 57.246 184.666 59.0173 183.502 58.3933C182.798 60.0036 183.332 60.8893 183.793 61.3925C184.23 61.9561 184.545 62.258 183.235 63.9488C185.686 63.1638 184.327 60.8289 184.885 61.0906C185.588 60.1445 186.753 60.688 186.559 61.4529C186.559 61.7951 185.855 62.7009 185.152 63.8281C184.812 64.3917 184.472 65.0157 184.23 65.6397C184.108 65.9416 184.011 66.2636 183.963 66.5455C183.89 66.8474 183.866 67.1493 184.011 67.2097C183.963 67.0889 183.72 67.3707 183.72 67.1292C183.405 68.1155 184.448 67.2902 184.618 67.9142C184.836 67.8739 185.006 67.9142 185.079 68.0954C187.214 65.9818 186.802 67.5921 188.524 65.2773C187.651 65.6799 186.705 66.1227 185.807 66.5656C186.705 66.0221 188.015 64.9553 189.034 64.1904C190.101 63.4255 190.878 62.9827 191.533 63.3651C191.193 63.7878 190.32 64.4722 189.689 64.915C190.004 65.3377 191.096 64.2105 191.46 64.6332C190.975 65.5994 190.101 65.9617 189.107 66.2838C188.063 66.6461 186.971 66.9681 185.467 68.1759C185.516 68.5382 186.68 67.8136 187.408 67.411C188.136 67.0084 188.549 66.8474 187.408 68.1557C188.985 66.4448 189.543 66.3643 190.32 66.2636C191.023 66.2234 191.994 66.0825 193.134 64.9955L192.722 66.0422C193.037 65.8409 193.862 65.1163 194.226 65.1767C193.935 65.5591 193.498 66.0825 193.037 66.6058C193.522 66.2033 193.911 66.0422 194.153 66.1026C194.444 66.1227 194.687 66.2636 194.954 66.4046C195.197 66.7266 195.294 67.0889 195.585 66.8474C194.639 66.7467 195.585 65.6799 195.245 64.9351C197.065 63.8885 195.536 67.4915 196.774 67.3506C196.58 67.4512 196.386 66.626 196.822 66.2838C197.016 66.5454 197.162 66.9883 197.016 67.4915C197.841 67.6123 197.429 66.5454 198.06 66.163C197.696 67.3305 198.739 65.9215 199.418 65.8409L198.763 66.6461C199.006 67.2298 199.515 66.6662 200.001 66.3039L200.365 60.7685C200.559 61.151 200.607 61.473 199.807 61.5334L199.515 60.0841L199.006 60.7685L198.448 59.7621C198.181 60.8692 197.793 60.8289 196.798 60.9899C197.429 61.473 197.841 62.5197 197.162 62.9223C196.313 62.6807 196.822 61.9964 195.925 62.6405C195.755 62.0165 195.488 61.2315 196.507 61.7548C196.337 61.473 196.337 61.1308 196.167 60.8289C195.221 60.5471 194.784 61.3925 194.444 61.5737C194.614 61.5334 194.808 61.4931 194.978 61.5737L194.42 63.4658C193.959 63.2846 193.935 62.9424 193.935 62.6002C193.717 62.8418 193.814 63.3249 193.425 63.6268C193.013 62.9022 192.455 62.2379 192.819 61.5938L192.042 63.0632C191.727 62.8216 190.732 62.6405 190.708 62.2983C189.64 62.2983 189.859 64.5728 188.451 64.593C188.5 64.754 188.5 64.9352 188.354 65.1364C188.088 65.217 187.796 65.2572 187.505 65.2975C187.19 65.3579 186.996 65.3176 186.486 65.5189C185.613 65.8409 184.739 66.324 184.278 67.2298C183.526 67.0889 182.75 66.9681 181.949 66.8876C181.391 67.4915 182.192 67.5318 182.847 67.6928C183.526 67.8538 184.036 68.1356 183.332 69.0011C182.507 70.2894 181.634 68.6992 180.76 68.9005C180.809 69.283 180.93 69.7862 180.978 70.2894C181.051 71.1348 181.051 71.9802 180.056 72.6243C179.838 72.0808 180.202 71.7789 180.251 71.316L180.323 71.1147ZM182.313 84.2185C182.022 84.0373 181.197 83.7354 181.852 83.4938C183.211 83.5542 182.628 83.8159 182.313 84.2185ZM171.734 81.964C171.71 81.5816 172.122 81.5413 172.68 81.6621C172.486 81.8634 172.219 81.9842 171.734 81.964ZM150.965 69.2628C150.965 69.2628 151.014 69.2628 151.038 69.2628C151.353 69.9673 151.232 69.7057 150.965 69.2628ZM150.31 68.2161C150.116 68.2564 149.994 68.357 149.946 68.4778C150.213 68.3369 150.431 68.4778 150.625 68.7193C150.747 68.4778 150.771 68.2564 150.334 68.2161H150.31ZM192.261 57.6687L192.115 57.9102C191.824 58.1316 191.824 58.0914 191.897 58.0109C191.97 57.9304 192.091 57.8498 192.261 57.6687Z" fill="#98C4E8"/>
<path d="M173.457 79.428C173.627 79.5486 173.724 79.7093 173.821 79.8701C173.87 79.6691 173.797 79.4682 173.457 79.428Z" fill="#C5DAF0"/>
<path d="M188.5 64.391C188.5 64.391 188.524 64.391 188.548 64.391C188.548 64.3309 188.5 64.2708 188.476 64.2307L188.524 64.411L188.5 64.391Z" fill="#C5DAF0"/>
<path d="M166.76 76.3684C166.469 76.6096 166.154 76.69 165.863 76.7301C166.129 76.8105 166.445 76.7301 166.76 76.3684Z" fill="#C5DAF0"/>
<path d="M144.656 66.2235L145.336 66.3645C145.069 66.2235 145.142 66.0222 145.142 65.8208C144.972 66.002 144.802 66.3242 144.656 66.2235Z" fill="#C5DAF0"/>
<path d="M143.759 59.0579V59.1988C143.856 59.1183 143.977 59.1988 144.05 59.078L144.002 58.635C144.002 58.635 143.807 58.6753 143.735 58.7156L143.783 59.5814C143.977 59.4807 144.147 59.2391 143.783 59.0579H143.759Z" fill="#C5DAF0"/>
<path d="M146.67 63.4057C147.253 62.7412 146.695 62.721 146.234 62.6204C146.258 62.6204 146.282 62.6204 146.306 62.6606C145.36 63.5064 146.015 63.446 146.695 63.4057H146.67Z" fill="#C5DAF0"/>
<path d="M146.112 62.6005C145.967 62.5602 145.845 62.5199 145.748 62.4192C145.384 62.7616 145.821 62.5803 146.112 62.6005Z" fill="#C5DAF0"/>
<path d="M148.757 67.7734C148.757 67.4915 147.787 68.4581 147.956 68.1359C146.889 68.74 150.189 68.1359 148.757 67.7734Z" fill="#C5DAF0"/>
<path d="M148.369 61.1108L147.762 61.9968L148.611 61.4934L148.369 61.1108Z" fill="#C5DAF0"/>
<path d="M150.868 63.8486L150.48 63.1841C150.358 63.325 150.189 63.325 150.043 63.325C150.383 63.6271 150.625 64.0902 150.868 63.8486Z" fill="#C5DAF0"/>
<path d="M150.043 63.3251C149.873 63.164 149.655 63.0432 149.412 63.0835C149.533 63.1439 149.776 63.2849 150.043 63.3251Z" fill="#C5DAF0"/>
<path d="M149.485 61.4529L149.509 61.7549L149.897 62.1174L149.485 61.4529Z" fill="#C5DAF0"/>
<path d="M157.807 68.3572L158.778 68.4377C159.166 68.2162 159.142 67.9746 158.729 67.9343C158.341 68.035 157.977 68.035 157.807 68.3371V68.3572Z" fill="#C5DAF0"/>
<path d="M157.249 64.9958C157.298 65.2576 157.176 65.4589 157.104 65.8012L157.856 64.7139L157.249 64.9958Z" fill="#C5DAF0"/>
<path d="M160.088 65.9016C160.428 65.6599 162.417 65.8412 161.01 65.2773C160.622 65.4787 159.384 65.2773 160.088 65.9016Z" fill="#C5DAF0"/>
<path d="M161.908 76.6907L162.005 76.5095L159.627 75.845C160.403 76.1067 161.156 76.3887 161.908 76.6907Z" fill="#C5DAF0"/>
<path d="M164.528 85.7486C165.11 85.1244 162.999 85.5875 163.752 85.0036C163.169 84.8223 163.145 85.4868 162.635 85.3056C163.242 85.7285 162.902 85.9298 164.528 85.7285V85.7486Z" fill="#C5DAF0"/>
<path d="M162.636 85.3258C162.636 85.3258 162.417 85.1848 162.272 85.1042C162.417 85.2251 162.539 85.2855 162.636 85.3258Z" fill="#C5DAF0"/>
<path d="M167.779 54.4683L167.027 54.8903L167.973 54.7697L167.779 54.4683Z" fill="#C5DAF0"/>
<path d="M168.992 56.0988L167.464 55.7766L168.653 56.5217C168.653 56.3807 168.629 56.0787 169.017 56.0988H168.992Z" fill="#C5DAF0"/>
<path d="M179.45 86.1711H179.838C180.226 86.0302 180.226 85.8892 180.251 85.6274L179.45 86.1711Z" fill="#C5DAF0"/>
<path d="M179.183 78.341V78.5423C179.644 78.3812 180.081 78.1597 180.518 77.9785L179.183 78.3208V78.341Z" fill="#C5DAF0"/>
<path d="M179.79 67.0891C179.353 67.4113 179.207 67.9953 178.843 68.3577C179.329 67.371 181.391 67.8543 179.79 67.0891Z" fill="#C5DAF0"/>
<path d="M24.0932 113.868C18.1002 114.432 12.3984 116.988 8.54053 120.853C13.8542 121.155 19.1678 121.477 24.4571 121.779C25.0394 121.819 25.6703 121.859 26.0585 122.221C26.3982 122.544 26.4467 123.007 26.471 123.449C26.8107 129.589 27.854 135.688 29.5524 141.646C29.7222 142.189 29.8921 142.773 30.3773 143.175C32.003 144.524 34.5506 142.692 35.7152 141.042C38.7724 136.775 41.8053 132.507 44.8624 128.24C45.2749 127.656 45.7116 127.052 46.4395 126.73C47.2887 126.348 48.3078 126.428 49.2783 126.529C55.1015 127.113 60.9489 127.717 66.772 128.3C65.5103 124.154 63.1083 120.229 59.8085 116.928C58.8865 116.002 57.8432 115.056 57.552 113.888C57.3094 112.962 57.5763 111.976 57.8675 111.05C59.2019 106.622 60.9731 102.274 63.1568 98.067C55.7808 97.443 48.1379 100.744 44.5227 106.098C39.6458 102.878 34.3565 100.1 28.776 97.8053C25.6218 96.5171 22.0551 95.3496 18.6825 96.1951C20.017 101.147 22.2249 105.957 25.185 110.406" fill="#FF5178"/>
<path d="M30.2074 107.889C30.2802 108.131 31.1052 107.648 31.2993 107.608C30.8625 107.347 29.9891 107.99 30.2074 107.889Z" fill="#81A8D7"/>
<path d="M25.9614 105.052L26.3739 104.992L25.1365 104.77L25.9614 105.052Z" fill="#81A8D7"/>
<path d="M24.2388 101.429C22.7587 102.274 25.088 102.677 24.8211 103.503L24.5056 103.724L25.9372 103.583C25.3549 102.878 24.0204 102.113 24.2388 101.408V101.429Z" fill="#81A8D7"/>
<path d="M27.029 98.53C26.4224 98.8119 26.3254 98.2682 26.9805 99.0133C27.029 98.9529 27.0775 98.9328 27.1018 98.8925C27.0533 98.8119 27.029 98.7113 27.0047 98.53H27.029Z" fill="#81A8D7"/>
<path d="M27.1261 98.8918C27.3191 99.2524 27.5604 98.5112 27.1261 98.8918V98.8918Z" fill="#81A8D7"/>
<path d="M26.1312 97.2622L26.8834 97.6247C27.2231 97.4233 27.1745 96.9803 27.49 97.081C27.0047 96.6581 26.665 96.8394 26.1312 97.2824V97.2622Z" fill="#81A8D7"/>
<path d="M24.7483 97.0605L25.088 97.262C25.2336 97.1814 25.2578 97.1008 24.7483 97.0605Z" fill="#81A8D7"/>
<path d="M25.7916 97.704L25.088 97.282C24.8454 97.4227 24.3116 97.5432 25.3549 97.4829C24.8454 97.5432 25.3549 97.5633 25.7916 97.704Z" fill="#81A8D7"/>
<path d="M25.646 98.0671C25.3791 98.4296 25.2821 98.8525 24.5299 98.49C25.1122 99.3962 26.2283 98.9531 25.646 98.0671Z" fill="#81A8D7"/>
<path d="M22.4675 101.73L22.1521 102.274L22.8557 102.455C22.516 102.375 22.977 101.569 22.4675 101.751V101.73Z" fill="#81A8D7"/>
<path d="M20.939 102.436C20.8905 102.134 20.7691 101.63 20.6478 101.248C20.6478 101.368 20.6478 101.489 20.6478 101.61C20.7449 101.791 20.8419 101.993 20.9147 102.436H20.939Z" fill="#81A8D7"/>
<path d="M20.6478 101.268C20.6478 101.087 20.6963 100.905 20.7691 100.724C20.5264 100.684 20.575 100.946 20.6478 101.268Z" fill="#81A8D7"/>
<path d="M22.8557 97.3829L24.4571 98.0273L22.783 97.2017L22.8557 97.3829Z" fill="#81A8D7"/>
<path d="M21.4728 102.496C21.3757 102.717 21.3029 102.959 21.2544 103.18C21.3514 102.818 21.497 102.496 21.6669 102.153L21.4728 102.496Z" fill="#81A8D7"/>
<path d="M22.3219 102.536C21.958 103.059 22.2006 103.542 21.9094 103.845C22.1763 103.804 22.6131 103.402 23.0498 103.039C22.6858 103.2 22.4675 103.059 22.3219 102.536Z" fill="#81A8D7"/>
<path d="M23.7777 102.576C23.5593 102.656 23.3167 102.837 23.0498 103.038C23.2439 102.958 23.4623 102.817 23.7777 102.576Z" fill="#81A8D7"/>
<path d="M21.2301 100.865C21.2301 101.046 21.2301 101.529 21.3757 101.751V100.885H21.2301V100.865Z" fill="#81A8D7"/>
<path d="M21.3514 100.845C21.497 100.906 21.5941 100.927 21.6426 100.947C21.5941 100.947 21.5213 100.906 21.3514 100.845Z" fill="#81A8D7"/>
<path d="M21.2058 100.846H21.2298C21.2298 100.846 21.2298 100.743 21.2058 100.846Z" fill="#81A8D7"/>
<path d="M23.3167 95.692C23.1469 95.6115 22.9285 95.531 22.7344 95.4504L19.8471 99.5366C19.8714 99.1541 20.017 98.6912 19.4104 98.2685V98.349L21.3029 95.692C21.958 95.7322 22.3462 95.3498 23.2439 95.692H23.3167Z" fill="#81A8D7"/>
<path d="M21.0603 99.7782C20.9147 99.7177 20.7934 99.6573 20.6478 99.5969C20.6964 99.8184 20.7691 100.141 20.7206 100.402C20.7934 100.181 20.9147 99.9795 21.0603 99.7782Z" fill="#81A8D7"/>
<path d="M21.2787 99.5164C21.2787 99.5164 21.1331 99.6976 21.0603 99.7781L21.2059 99.8587L21.2787 99.5164Z" fill="#81A8D7"/>
<path d="M23.1954 101.55C23.5593 101.248 23.8505 101.308 24.1902 101.348C23.9475 101.087 23.6321 100.885 23.3167 100.805C23.1711 101.046 22.8557 101.469 23.1954 101.53V101.55Z" fill="#81A8D7"/>
<path d="M22.2491 101.068L22.2974 101.027C22.2974 101.027 22.2974 100.924 22.2491 101.068Z" fill="#81A8D7"/>
<path d="M27.5624 102.676C27.5624 102.676 27.5624 102.576 27.5865 102.516L27.49 102.636L27.5624 102.676Z" fill="#81A8D7"/>
<path d="M23.341 100.644C23.1711 100.422 22.9527 100.583 22.7344 100.825C22.9285 100.765 23.1226 100.785 23.3167 100.825C23.3895 100.704 23.4137 100.644 23.3167 100.664L23.341 100.644Z" fill="#81A8D7"/>
<path d="M24.7967 102.516C24.7482 102.294 24.6754 102.113 24.5784 101.912C24.5784 102.214 24.6269 102.697 24.7967 102.516Z" fill="#81A8D7"/>
<path d="M22.2974 101.268L22.2491 101.308C22.2491 101.489 22.2733 101.409 22.2974 101.268Z" fill="#81A8D7"/>
<path d="M22.2977 101.267C22.4433 101.166 22.5889 100.985 22.7345 100.825C22.5889 100.865 22.419 100.925 22.2977 101.026C22.2977 101.086 22.2977 101.186 22.2977 101.267Z" fill="#81A8D7"/>
<path d="M31.7603 98.2885C31.2507 98.9528 30.0376 99.2547 29.795 98.208C28.7759 98.4496 27.8296 100.986 27.5627 102.536C27.7811 102.234 27.951 101.952 28.8972 101.831C28.8972 101.348 27.951 100.281 28.9215 99.8787C30.0618 99.9189 29.5281 100.462 29.7222 101.026C29.892 99.9793 31.7117 100.261 32.3668 98.9125L31.2507 98.993C31.3721 98.7917 31.8816 98.5905 31.7603 98.3086V98.2885Z" fill="#81A8D7"/>
<path d="M26.3496 101.912H26.0342C26.2525 102.133 26.3253 102.516 26.3981 103.241C27.0532 103.08 27.3201 102.858 27.49 102.637L26.204 101.972L26.3496 101.912Z" fill="#81A8D7"/>
<path d="M24.8938 101.449C25.5004 100.725 26.3496 100.644 26.4224 99.6372C25.5974 99.3955 25.5004 100.08 24.8696 100.282C26.1798 100.503 24.3115 100.604 24.9181 101.369C24.6027 101.409 24.4086 101.389 24.1902 101.369C24.36 101.53 24.4813 101.711 24.5784 101.933V101.872C24.5784 101.752 24.5784 101.671 24.6269 101.752H24.6512C24.724 101.651 24.7968 101.55 24.8696 101.47C25.1122 101.752 24.821 101.691 24.6512 101.752L24.5784 101.872C25.0394 101.872 25.5247 101.872 26.0099 101.913C25.8158 101.691 25.4519 101.59 24.8696 101.47L24.8938 101.449Z" fill="#81A8D7"/>
<path d="M19.5802 96.3359C19.5802 96.3359 19.6526 96.4562 19.6767 96.5363C19.7491 96.4161 19.7732 96.3359 19.5802 96.3359Z" fill="#81A8D7"/>
<path d="M20.2596 96.7789C20.1626 96.8997 20.1383 97.2621 19.8229 97.2017C19.5075 96.9802 19.7259 96.799 19.6531 96.5171C19.4832 96.7789 19.1678 97.242 19.7986 97.5441L19.8472 97.4232C20.4295 97.6246 21.0361 98.712 20.939 98.8328C20.7934 98.0475 20.6721 97.4836 20.2111 96.7587L20.2596 96.7789Z" fill="#81A8D7"/>
<path d="M23.0498 98.6512C23.438 98.5908 23.8262 98.5304 24.2387 98.4901L23.9475 97.6243L23.8262 98.0673C23.2682 97.7652 23.2196 98.329 23.0498 98.6512Z" fill="#81A8D7"/>
<path d="M27.4415 103.119L26.7864 103.864L28.1208 102.999L27.4415 103.119Z" fill="#81A8D7"/>
<path d="M28.8972 103.623L28.3877 104.307L29.0185 104.045L28.8972 103.623Z" fill="#81A8D7"/>
<path d="M50.2 131.461L50.1517 131.681C50.1517 131.681 50.2 131.541 50.2 131.461Z" fill="#81A8D7"/>
<path d="M51.2436 131.602V131.219C51.2193 131.44 51.1951 131.581 51.2436 131.602Z" fill="#81A8D7"/>
<path d="M55.9021 99.5767C54.8588 99.7579 53.306 99.8988 54.3493 100.14L55.3926 100.302C55.3683 99.919 55.5867 99.7176 55.9021 99.5767Z" fill="#81A8D7"/>
<path d="M64.5883 122.725L64.8067 122.483C64.4185 122.523 64.0788 122.544 63.7391 122.584C64.006 122.624 64.2972 122.685 64.5883 122.725Z" fill="#81A8D7"/>
<path d="M68.6888 121.477L68.4219 122.343C68.5675 122.121 68.6645 121.839 68.6888 121.477Z" fill="#81A8D7"/>
<path d="M45.3719 138.767L46.0756 139.533C46.4153 139.029 45.8087 139.029 45.3719 138.767Z" fill="#81A8D7"/>
<path d="M47.5556 111.151C48.1622 110.99 48.6475 110.648 49.0114 110.245C48.1379 110.446 47.4101 109.963 47.5556 111.151Z" fill="#81A8D7"/>
<path d="M48.5989 122.02C48.2835 122.181 48.1864 122.363 48.235 122.544C48.5504 122.403 48.7202 122.242 48.5989 122.02Z" fill="#81A8D7"/>
<path d="M50.4914 108.373C50.3458 108.393 50.2488 108.454 50.1032 108.494C49.812 109.098 49.4966 109.722 49.0114 110.226C49.6422 110.105 50.3458 109.601 50.4671 108.373H50.4914Z" fill="#81A8D7"/>
<path d="M10.6749 125.967C10.6749 125.967 10.6026 125.906 10.5543 125.845C10.5543 125.967 10.5784 125.967 10.6749 125.967Z" fill="#81A8D7"/>
<path d="M20.9632 118.337C20.9632 118.337 20.672 118.478 20.4779 118.538C20.5992 118.578 20.7448 118.538 20.9632 118.337Z" fill="#81A8D7"/>
<path d="M34.0886 106.643C33.7749 106.539 33.9921 106.706 34.0886 106.643V106.643Z" fill="#81A8D7"/>
<path d="M34.9146 102.999C35.0359 102.938 35.1572 102.858 35.3028 102.697C35.1329 102.858 35.0116 102.959 34.9146 102.999Z" fill="#81A8D7"/>
<path d="M49.9569 100.948C49.9569 100.948 49.9569 100.948 49.981 100.948C49.7639 100.864 49.8122 100.885 49.9569 100.948Z" fill="#81A8D7"/>
<path d="M33.9197 106.098C33.9439 106.239 34.0167 106.38 34.1138 106.5C34.1138 106.42 34.041 106.279 33.9197 106.098Z" fill="#81A8D7"/>
<path d="M33.7014 106.461C33.7014 106.461 33.5558 106.32 33.5073 106.26C33.3859 106.36 33.3374 106.461 33.7014 106.461Z" fill="#81A8D7"/>
<path d="M34.6719 106.903C34.5263 106.843 34.3808 106.742 34.2837 106.662C34.2109 106.602 34.1624 106.541 34.1139 106.481C34.1139 106.561 34.1139 106.622 34.0896 106.622C34.1624 106.642 34.2837 106.682 34.6719 106.883V106.903Z" fill="#81A8D7"/>
<path d="M24.6269 134.379C24.6269 134.379 24.6754 134.339 24.724 134.299C24.2387 134.057 24.3358 134.178 24.6269 134.379Z" fill="#81A8D7"/>
<path d="M63.3025 109.824C63.3025 109.824 63.2782 109.803 63.2539 109.782L63.2053 109.824H63.3025Z" fill="#81A8D7"/>
<path d="M63.7391 110.97C62.5987 110.265 62.8413 110.064 63.2295 109.802L60.1967 109.46L63.7391 110.97Z" fill="#81A8D7"/>
<path d="M48.6232 132.89C48.9386 132.97 49.2298 133.091 49.4967 133.212C50.54 134.279 50.176 133.916 51.2436 134.581C49.9091 133.775 49.9334 133.594 49.9577 133.413C49.9819 133.232 50.0062 133.071 49.0599 131.763C49.254 131.883 49.4239 132.044 49.618 132.185C49.5694 132.185 49.6665 132.346 49.618 132.346C49.9091 132.608 49.9577 132.628 49.9334 132.487C49.7878 132.105 48.8416 130.213 49.5937 130.474C49.9577 130.696 50.2246 131.118 50.2003 131.461C50.2731 131.239 50.3701 131.018 50.4914 130.796C50.6613 130.877 50.7098 131.34 50.5642 131.279L51.2921 131.139V131.219C51.3892 130.796 51.7289 130.172 51.9472 129.911C52.3112 130.333 51.7046 130.172 51.8017 130.535C52.0443 130.333 52.481 130.152 52.8207 129.971C53.1604 130.716 52.0928 131.3 51.6803 131.159C51.9472 133.936 52.5295 130.555 54.2037 132.326L53.2332 132.568C53.5971 134.158 54.3978 133.675 55.2955 134.742C55.1257 134.218 53.5729 132.105 54.7132 131.541C54.9801 131.783 55.3683 131.903 56.0234 131.42C55.8779 132.387 56.4844 132.205 57.1881 132.226L56.9454 133.494C57.7461 133.192 57.7946 132.548 58.3284 132.004C59.1534 132.205 59.1776 133.232 59.2504 134.077C60.5606 134.42 58.5468 132.387 60.1724 132.326C61.2157 132.93 62.0892 132.487 63.545 131.863C64.2729 132.387 63.3024 132.628 63.5207 133.031L64.3699 132.085C64.5398 132.125 64.4427 132.427 64.3699 132.588C65.0251 132.246 64.6126 131.32 65.5831 131.058C65.753 130.535 66.0198 130.736 66.3838 131.098L67.1845 131.964L70.0718 127.616C70.5328 126.932 71.3577 125.825 69.9505 125.482C70.2659 125.12 70.8967 125.362 71.4548 125.14C69.6836 124.053 70.0718 124.154 67.9609 123.57L68.4219 122.322C67.7183 123.389 65.9956 122.966 64.5883 122.705C64.2244 123.127 63.8604 123.47 63.7148 123.671C63.2781 123.409 62.8171 123.168 62.3561 122.946C62.5017 122.725 63.0355 122.624 63.7148 122.564C63.5693 122.544 63.3994 122.524 63.2538 122.503C63.5207 121.92 64.4427 121.759 65.389 121.718C65.1949 121.96 64.9765 122.222 64.7582 122.463C65.7772 122.383 66.869 122.282 67.6455 121.92C67.4514 121.92 67.2087 121.819 67.0389 121.678C67.3058 121.678 67.5484 121.638 67.6697 121.537C67.791 121.437 67.4028 121.437 66.9418 121.396L68.3248 120.47L67.6697 120.672C67.6697 120.007 67.6455 119.343 67.5969 118.679C65.292 118.276 62.4774 118.578 60.6334 117.552C61.9679 117.27 62.3561 116.586 63.545 115.841C62.6715 117.048 65.1949 116.726 65.6316 117.753C65.4133 117.23 66.0926 116.988 66.3838 116.988C65.5588 116.686 64.7339 116.404 63.909 116.163C64.928 115.579 64.37 115.378 64.3942 114.734C63.5935 115.519 62.9627 115.398 62.526 115.217C62.162 115.096 61.8951 114.834 61.3856 114.794C62.0892 114.452 62.8899 114.17 63.0597 114.593C63.6421 113.969 62.9627 114.23 62.1377 114.392C61.3613 114.573 60.4393 114.633 60.9974 114.13C61.0944 114.23 61.0216 114.351 61.4584 114.251C60.5121 114.251 60.7547 113.325 61.5797 113.365L61.6525 113.466C61.5069 112.66 61.8466 111.312 59.9055 110.648C60.1482 110.708 62.2833 111.251 62.6958 111.352C61.604 111.01 60.6577 110.225 59.6386 109.641L56.6785 107.729C58.3042 108.333 62.623 108.554 63.2296 109.802C63.5693 109.561 63.9817 109.279 63.5935 108.534C63.2781 108.675 60.9489 108.433 60.9003 108.111C63.0597 107.83 62.0892 107.83 64.0545 107.346C63.5693 107.548 61.0459 106.521 61.3128 106.078C61.6767 106.26 63.9332 106.743 64.1516 106.984L62.0164 105.112C62.3561 105.535 64.1758 105.776 65.0251 105.716C64.467 105.696 65.4861 104.75 65.3647 104.367L64.5641 104.669C65.5103 103.502 61.5069 102.294 62.2591 101.006C62.7201 101.348 65.3162 102.435 65.9471 101.892C64.8067 101.207 60.5364 98.5905 60.0269 97.0204L62.7686 100.905L62.6958 100.966L62.526 100.301C62.162 100.543 61.8466 100.764 61.5312 101.006C61.7981 100.241 62.3076 99.1742 63.1325 98.0671L63.1811 98.1476C64.5398 99.3151 65.8985 100.603 66.5779 101.348C67.4028 101.066 67.5242 101.509 67.7911 100.784C68.616 100.784 68.6403 101.529 68.5917 101.751L69.7078 100.462L75.0457 94.303L63.8604 92.1895L63.4965 92.1292C63.4722 93.4778 61.0702 93.3771 61.2157 94.5446C61.9922 94.142 62.8414 93.8602 63.7148 93.5382L66.1897 92.6324L68.252 99.9391L68.3976 100.442C67.7911 100.261 67.0874 99.8384 66.5051 99.3151L63.5207 95.0881C62.6958 96.0543 61.6767 96.8393 60.6334 96.7386C60.1482 96.2153 60.8761 94.3232 60.8518 93.8803C60.5849 94.3232 59.0321 94.8667 58.8137 94.5446L59.5901 93.7596C58.3284 93.3369 58.0858 95.6919 56.533 94.6251C56.0962 94.6251 54.6647 93.196 54.8345 94.0011C56.1205 95.3296 57.455 99.9793 57.4792 101.167C57.3822 101.066 55.3926 100.14 54.6404 99.5768C53.5001 98.6509 54.325 96.5776 53.3788 95.7725C53.5001 96.1348 53.3302 96.6782 53.2574 96.8594C52.6994 96.6984 52.9178 95.7322 52.0685 96.1952C52.5781 97.5035 50.2003 96.799 52.2141 97.423C51.5833 98.1074 51.1708 97.5035 50.2246 98.0269C51.0252 98.671 51.2193 101.026 50.9039 101.69C50.7098 101.388 50.2488 101.086 50.0304 100.966C48.5261 101.731 47.5071 101.67 46.5608 102.475C46.2939 102.234 45.7359 102.214 45.6388 101.429C45.6388 101.771 45.7359 102.375 45.4932 102.656C44.644 101.791 45.93 101.932 45.0322 100.744C45.3234 101.61 44.9352 102.495 44.7411 103.522C45.1536 104.911 45.6146 102.817 45.7359 102.012C46.0998 102.918 46.2697 103.804 46.2939 105.173C46.2939 106.481 46.027 107.991 45.5903 109.4C45.566 109.44 45.5175 109.5 45.4932 109.54C45.008 110.044 44.7411 109.299 44.7168 108.937C44.6683 108.534 44.7168 108.172 44.644 108.252C43.4794 107.306 42.9941 107.93 42.4118 108.353C41.8538 108.796 41.1987 109.017 40.1554 107.588C39.573 105.877 40.7619 105.273 40.7862 104.307C41.781 104.388 42.0721 105.958 42.7758 106.34L42.0236 105.233C42.3876 104.991 42.9456 105.012 43.261 105.595C42.9699 104.79 42.1935 104.267 41.2715 103.663C40.3495 103.079 39.2819 102.415 38.8209 101.65C38.3599 101.831 37.5835 101.871 37.5349 102.355L38.1415 102.495C38.093 103.522 36.3703 102.979 36.7585 103.683C35.6909 103.844 34.3565 104.267 33.7256 103.381L34.3322 102.234C34.1381 102.556 34.4778 103.16 34.9873 102.979C34.2594 103.24 34.5748 100.805 33.1433 101.992L33.2889 103.059C32.2213 103.26 30.6442 104.005 30.0376 103.28C29.698 104.508 30.3045 103.24 30.0376 104.75C30.5957 102.958 32.0515 105.817 32.3912 103.824C31.9544 105.535 32.9735 104.931 32.8279 106.521C33.0705 106.159 33.0705 105.716 33.6043 106.239C33.7014 106.159 33.8712 106.058 33.9925 106.018C33.9925 106.038 33.9925 106.038 34.0168 106.058V105.998C34.0168 105.998 34.0896 105.958 34.0168 105.978C33.9683 105.736 33.9925 105.495 34.0896 105.273C34.5506 104.971 35.0601 104.971 35.5211 105.012C36.0306 105.092 36.71 105.334 37.0739 105.233C37.5349 105.716 36.5644 105.515 36.6372 106.078L37.8261 105.877C37.4136 106.743 38.8451 108.333 37.0254 107.89C37.5107 108.192 37.9717 108.494 38.4569 108.816C39.112 109.842 40.3495 110.909 41.1501 110.949C41.8538 111.654 42.9699 110.849 42.3148 111.332L44.4985 112.036L44.547 112.359C44.8624 112.58 45.1536 112.761 45.469 112.902C45.7601 112.982 46.0028 112.942 46.2454 112.922C46.7307 111.936 47.2645 110.869 47.8468 110.064C48.4533 109.259 49.157 108.695 50.2003 108.454C50.4187 107.991 50.637 107.507 50.9282 107.045C51.2193 106.582 51.6561 106.26 52.2627 105.897L53.0391 106.34C53.5243 105.555 54.8345 106.139 54.5191 105.334C55.4169 106.098 55.9021 105.998 56.3389 105.696C56.7756 105.394 57.1881 104.911 57.6248 104.971L57.2366 104.005C57.8189 103.904 58.2071 103.502 58.838 102.979L58.5711 102.113C59.1291 101.288 60.4636 102.495 61.4098 102.415C61.3371 102.757 61.0944 102.677 60.9003 102.475C61.5069 103.421 61.9922 103.16 62.6473 102.797L57.9887 96.2153C58.0858 97.1613 58.4012 98.1275 57.2123 98.4898C57.4307 98.9327 57.2123 99.1138 56.8241 99.2547C56.8241 99.2145 56.8241 99.1943 56.8241 99.1541C56.7999 99.1742 56.7756 99.2346 56.7513 99.2748C56.5087 99.3554 56.2418 99.4359 55.9992 99.5566C56.3146 99.4963 56.5815 99.4359 56.7271 99.3554C56.63 99.617 56.5815 100.02 56.6785 100.462L55.5139 100.281C55.5139 100.281 55.5139 100.342 55.5139 100.382C54.9559 100.623 55.9021 100.825 56.8241 100.885C56.9212 101.127 57.0668 101.368 57.2609 101.57C55.3683 101.328 57.455 102.697 55.3926 102.556C56.2175 103.059 55.3441 104.609 57.2366 105.334C56.9697 105.273 56.7999 105.354 56.8726 105.152C56.4844 105.495 56.1205 105.857 56.533 106.36L55.0529 106.179L56.6543 107.548C55.5867 107.89 55.0044 107.991 54.1066 107.185C55.3441 108.937 54.3978 108.353 55.6838 109.983L54.7618 109.742C54.6162 110.326 55.6595 111.251 54.8103 111.493C53.7912 111.996 53.3302 113.647 54.0339 115.398C54.3735 116.263 54.9559 117.109 55.5382 117.934C55.8293 118.337 56.1448 118.759 56.4116 119.182L56.5087 119.343C56.5087 119.343 56.5087 119.363 56.5815 119.444V119.504L56.6543 119.726C56.6785 119.867 56.7271 120.028 56.7271 120.168C58.6924 118.417 56.3874 121.537 58.2071 120.511C57.7461 120.933 57.6248 121.336 56.9454 121.356C58.1829 121.879 57.0425 123.047 59.0321 122.846C58.5225 123.228 58.0615 123.067 57.7704 123.329C57.9402 123.329 58.474 123.349 58.1829 123.61C57.8917 123.852 57.6248 123.711 57.2609 123.711C57.9402 124.496 59.8085 123.792 61.5554 123.127C61.0459 123.973 61.2885 124.154 62.6473 124.073C62.1863 124.476 61.7253 124.979 61.1915 124.456C61.3371 124.838 61.4098 126.811 62.8656 126.428C62.5502 126.65 62.987 126.952 63.1811 127.012C63.4237 127.858 63.3024 127.958 63.7148 128.723L63.8847 128.441C64.7824 128.401 64.9765 128.542 64.9765 128.743L67.1845 126.67C66.8933 126.569 66.5779 126.247 66.0926 126.288L66.1412 126.127C64.2486 124.798 65.1706 126.569 63.3509 125.1V126.066C62.8171 128.099 61.701 124.677 60.4151 125.342L60.7547 125.925C60.0026 126.569 59.3717 122.946 58.7652 122.624C58.6439 122.423 59.0321 122.362 59.2504 122.242C57.7461 120.853 58.838 123.47 57.552 123.631C57.4307 122.926 58.1101 121.94 57.2851 121.718C56.9454 121.135 54.5191 123.671 53.5486 122.262C53.7184 122.805 53.9125 123.349 53.2574 123.691C52.7964 123.731 51.8744 123.147 51.001 122.745C50.1032 122.322 49.1084 122.141 48.7445 122.966C48.5504 122.825 48.4533 122.685 48.4048 122.544C47.5071 122.906 45.5418 123.49 45.566 124.557C45.2749 124.234 44.9595 124.033 44.6683 123.953C43.5765 123.671 42.8971 124.919 42.5817 125.966C42.2177 127.012 41.9751 127.797 40.7134 126.912L39.9855 128.079L39.3789 129.085L39.0878 128.884C38.19 129.75 38.6996 130.454 39.2334 131.179C38.8451 131.3 38.6753 130.978 38.5297 130.877C36.8798 131.964 36.9041 132.185 37.6563 134.138L36.5402 133.755C36.9041 134.379 33.4587 135.003 33.6771 136.976C33.5801 136.895 33.3859 136.775 33.3132 136.593C33.3374 137.137 32.9977 137.54 32.5367 137.902C32.2941 138.083 32.0515 138.244 31.7846 138.405C31.5419 138.526 31.2023 138.808 31.1052 138.727C30.4986 138.788 30.3288 138.808 31.639 140.277L31.8331 141.243C32.1485 141.283 32.5125 141.525 32.6581 141.968C32.8522 142.391 32.8279 142.934 33.3132 143.055C33.0705 143.296 32.4882 143.196 32.2456 142.894C32.0029 142.592 32.0029 142.23 32.0757 142.109L32.1971 142.27C32.0515 141.847 31.8816 141.485 31.8816 141.444C31.9544 141.706 31.9787 141.968 31.9544 142.129C31.9544 142.209 31.9544 142.129 32.1 141.968C32.1728 141.867 32.2456 141.827 32.2941 141.787L32.0029 142.028C32.1 141.948 32.3669 141.787 32.8764 141.585L33.3374 141.404C33.483 141.344 33.8227 141.243 33.7256 141.263V141.203L33.5801 140.277C33.483 139.552 33.4345 138.828 33.4345 138.103C33.3859 136.654 33.4345 135.245 33.2161 133.896L31.5177 134.44L31.4449 133.474C31.8088 133.172 32.7551 132.97 32.8036 133.655C33.7256 133.172 31.7603 132.628 31.3721 132.648C31.8574 131.239 33.5073 132.91 33.483 132.507L33.2646 131.984L33.0705 132.125C32.2698 131.763 31.5177 131.803 31.4692 130.978C31.7361 130.414 32.5125 130.595 32.561 130.394C32.6823 130.394 32.7308 130.313 32.561 130.072V128.864L31.2265 129.468C30.4744 129.005 31.1537 128.321 29.6494 129.025C30.2317 128.723 30.5472 128.441 30.6927 127.757C30.8383 127.073 30.7898 126.247 30.7413 125.442C30.6685 123.792 30.1104 122.524 30.3531 122.04C29.7465 121.819 29.4311 121.497 29.1399 121.135C28.873 120.772 28.4848 120.249 27.9025 119.947C27.9995 120.309 27.1018 121.215 26.2283 120.833C28.7517 118.78 25.2821 119.424 25.2821 117.511C25.549 118.78 20.9875 117.511 21.8367 119.404C20.8419 119.122 22.1764 118.417 21.497 117.733C20.6721 117.954 19.9442 117.995 19.1678 117.934C18.4156 117.874 18.0274 117.753 17.4208 117.592C16.3047 117.27 15.1401 116.867 13.9269 116.968C13.8541 117.31 14.2181 117.874 13.66 118.377L12.5197 116.545C12.0344 116.686 11.9131 118.558 11.1367 117.29C11.2337 117.592 11.3793 118.055 11.0396 118.156C10.3845 117.874 9.72941 117.693 9.0743 117.572L11.8888 122.986C13.199 122.081 14.1453 120.853 15.5526 119.947C16.9113 119.041 18.7795 118.518 20.8419 119.363C20.0898 118.88 20.3567 118.699 20.7206 118.578C20.4052 118.498 20.3809 117.753 20.1383 117.31C20.8662 117.572 21.5698 117.854 22.2249 118.156C22.1279 116.787 23.8991 117.753 23.8263 116.485C23.6564 116.586 23.4866 116.686 23.341 116.787C23.8263 115.177 21.497 113.667 21.0118 111.815C20.7206 112.741 19.8957 112.278 18.9251 111.956C17.9789 111.634 16.8628 111.493 16.5959 112.922C16.0378 112.681 16.5959 112.238 16.2077 111.896C16.1591 112.821 15.7709 113.123 14.6548 113.184V112.962C12.2285 114.251 10.6757 114.09 7.61851 115.539L8.56478 116.123C7.93393 116.404 7.59425 116.284 7.13325 116.304C7.73983 117.813 8.68609 115.237 9.41398 116.847C7.81262 116.163 6.64799 117.874 5.41057 118.598L0.218262 121.678L8.46772 124.496C8.97725 124.657 9.3412 124.979 9.43825 125.623C10.3602 125.684 9.2684 124.516 10.1904 124.577L10.3845 125.18L10.6757 124.436C11.258 124.597 11.5006 125.362 11.5006 125.865C11.355 125.804 11.0639 125.986 10.9183 126.026C11.6462 126.771 13.1505 125.905 13.3931 126.167L12.5439 125.744C14.9945 125.321 18.6097 126.328 19.5074 125.16L19.5802 124.718C21.1331 123.973 20.1868 125.241 21.5698 124.939L21.4485 125.04C22.0308 124.637 22.6374 124.416 22.9285 124.557C22.1521 124.959 22.3462 125.704 21.4242 126.106C22.2734 125.925 22.3948 125.986 22.7344 125.825C23.0499 125.704 23.4866 125.402 24.4571 125.201L23.6079 125.885C24.4086 125.684 24.7968 125.503 25.088 126.086C24.3115 125.925 23.802 127.012 22.783 126.952C21.861 127.837 22.3705 127.878 22.783 128.119C23.1954 128.321 23.4866 128.582 22.0793 128.945C23.3653 129.307 23.6564 128.743 23.7292 128.542C23.802 128.26 23.6322 127.978 23.8991 128.079C24.6755 127.636 25.7673 128.22 25.5975 128.824C25.5975 129.387 22.5403 130.072 22.8072 131.561C22.8072 131.42 22.6131 131.42 22.5889 131.279C22.0308 131.903 23.6079 132.266 22.6859 133.051C24.2388 133.252 22.7587 133.936 24.6755 133.816L23.9961 132.527C24.627 133.232 26.9562 133.655 26.1313 135.023C25.7188 134.983 25.1607 134.681 24.8211 134.46C24.3358 134.903 25.3306 135.104 24.8211 135.567C22.9043 135.708 24.0932 133.997 22.5161 133.353C21.7882 133.856 24.166 134.742 22.0308 134.581C24.7483 134.822 21.9823 136.09 24.1902 136.795L23.0499 136.895C23.2682 137.036 23.8748 137.278 23.8991 137.56L22.322 137.258C23.7535 137.882 21.5698 138.989 22.4433 139.673C22.0308 138.043 23.705 139.089 24.3843 138.264C26.3739 139.975 21.6911 139.895 22.8315 142.048C22.5889 141.767 23.1954 140.78 23.8505 141.163C23.7292 141.626 23.4623 142.27 22.9285 142.652C23.6079 144.202 23.9961 142.149 24.8939 142.692C24.2873 143.095 24.5056 143.377 25.0152 143.639C25.5247 143.92 26.2526 144.162 26.9562 144.786L25.9857 145.329C26.3254 145.913 26.8592 146.416 27.2716 146.678C27.7084 146.96 28.0238 147.101 28.3877 147.181C29.0428 147.322 29.3825 147.161 29.6494 147C29.9406 146.819 30.1832 146.638 30.6442 146.618C31.1052 146.577 31.8331 146.678 32.9977 146.698C32.464 147.221 31.6633 147.725 30.5714 148.006C31.8088 148.087 32.9249 147.886 33.7014 147.584C33.6286 147.986 33.5558 148.369 33.3859 148.771C35.0116 148.087 35.4968 147.604 36.1762 147.302C36.7828 147 37.4136 146.799 38.19 146.416C37.3408 146.114 37.0254 144.967 37.8018 144.202C38.8937 144.021 38.3599 145.148 39.3789 143.82C39.7429 144.444 40.1068 145.309 38.7238 145.249C38.9422 145.511 38.9422 145.953 39.1363 146.235C40.5678 146.014 41.1259 144.564 41.5141 143.961C41.32 144.162 41.0531 144.403 40.8105 144.444C41.0531 143.337 40.6891 142.894 40.5921 142.189C41.1259 142.189 41.2957 142.491 41.4898 142.793C41.5626 142.471 41.2229 142.068 41.417 141.646C42.1692 142.149 43.0184 142.531 43.0184 143.276V141.606C43.4066 141.706 44.4014 141.465 44.5955 141.767C45.566 141.324 44.183 139.331 45.469 138.727C45.3477 138.606 45.2506 138.425 45.2749 138.184C46.0756 137.439 47.6041 137.177 47.1917 135.627L49.0599 135.788C49.2783 134.842 46.6579 135.647 47.0461 134.077C47.2402 132.93 48.5504 134.339 49.1812 134.218C48.9871 133.796 48.6717 133.151 48.4048 132.93C48.1865 132.628 48.2835 132.346 48.9143 132.588C49.0842 132.87 48.8416 132.809 48.8658 132.97L48.6232 132.89ZM54.689 131.521C54.3978 131.702 53.7912 132.266 53.6699 131.682C54.1309 130.615 54.2765 131.159 54.689 131.521ZM65.6074 120.329C66.0441 120.329 66.0441 120.652 65.8257 121.074C65.6074 120.913 65.5103 120.692 65.6074 120.329ZM39.6216 108.937C39.6216 108.937 39.6458 108.937 39.6701 108.916C40.3495 109.822 40.1068 109.48 39.6216 108.937ZM38.2143 107.548C37.9959 107.588 37.9474 107.729 37.9717 107.89C38.19 107.709 38.5297 107.91 38.9179 108.232C38.8937 107.89 38.7724 107.608 38.2143 107.548ZM31.9059 130.333L31.639 130.555C31.2508 130.172 31.5662 130.253 31.9059 130.333Z" fill="#FF5078"/>
<path d="M68.2035 121.618C68.0579 121.759 67.8638 121.839 67.6697 121.94C67.888 121.94 68.1064 121.879 68.2035 121.618Z" fill="#81A8D7"/>
<path d="M45.2504 138.626C45.2504 138.626 45.2504 138.626 45.2263 138.647C45.2746 138.687 45.3228 138.727 45.3952 138.768L45.2746 138.626H45.2504Z" fill="#81A8D7"/>
<path d="M52.578 95.4706C52.9177 95.5109 53.1603 95.6317 53.3544 95.7525C53.2816 95.531 53.0633 95.3699 52.578 95.4706Z" fill="#81A8D7"/>
<path d="M30.8868 105.515L31.6633 105.595C31.3478 105.495 31.3721 105.253 31.2993 105.052C31.178 105.253 31.0809 105.595 30.8868 105.515Z" fill="#81A8D7"/>
<path d="M28.6304 97.6848C28.4605 97.7452 28.412 97.6042 28.2422 97.6848L28.0238 98.1076C28.4605 98.2486 28.9701 98.0472 28.6304 97.7049V97.6848Z" fill="#81A8D7"/>
<path d="M32.2698 102.455C32.7066 101.73 32.1242 101.771 31.5905 101.69C31.6147 101.69 31.639 101.69 31.6632 101.73C30.8626 102.657 31.5662 102.556 32.2698 102.455Z" fill="#81A8D7"/>
<path d="M31.4692 101.65C31.2993 101.61 31.1538 101.569 31.0325 101.469C30.717 101.851 31.1538 101.63 31.4692 101.65Z" fill="#81A8D7"/>
<path d="M35.9579 106.884C35.7395 106.521 35.1329 107.689 35.1329 107.286C34.1624 107.991 38.1658 107.488 35.9579 106.884Z" fill="#81A8D7"/>
<path d="M33.5073 99.939L33.0706 100.885L33.8227 100.322L33.5073 99.939Z" fill="#81A8D7"/>
<path d="M36.71 102.415L36.152 101.791C36.0549 101.932 35.9093 101.972 35.7395 101.972C36.1762 102.234 36.5402 102.657 36.71 102.395V102.415Z" fill="#81A8D7"/>
<path d="M35.7637 101.992C35.5453 101.851 35.3027 101.751 35.0601 101.831C35.2056 101.892 35.4968 101.992 35.7637 101.992Z" fill="#81A8D7"/>
<path d="M34.7446 100.181L34.8174 100.463L35.3027 100.805L34.7446 100.181Z" fill="#81A8D7"/>
<path d="M44.9352 107.226L45.0807 106.965L45.4204 106.099C45.3476 105.515 45.1535 105.394 45.0079 105.857L44.9594 106.219C44.8866 106.582 44.8138 106.884 44.9594 107.206L44.9352 107.226Z" fill="#81A8D7"/>
<path d="M42.6787 102.717C42.8243 103.059 42.8243 103.341 42.9213 103.804L42.9699 102.314C42.8728 102.455 42.8 102.596 42.6787 102.717Z" fill="#81A8D7"/>
<path d="M44.2315 103.12C44.2315 102.939 44.2315 102.657 44.2801 102.395C44.3286 101.932 44.3529 101.509 44.1587 101.751C44.1587 101.771 44.1102 101.811 44.1102 101.831C44.1102 102.073 44.086 102.395 44.0617 102.677C44.0132 102.838 44.0617 103.18 44.2558 103.12H44.2315Z" fill="#81A8D7"/>
<path d="M55.5139 98.228L55.2955 98.3086L56.072 100.262L55.5139 98.228Z" fill="#81A8D7"/>
<path d="M67.3785 103.925C68.3005 103.281 66.0441 103.281 67.0631 102.757C66.6021 102.395 66.2139 103.18 65.8257 102.838C66.1654 103.522 65.7286 103.683 67.3543 103.925H67.3785Z" fill="#81A8D7"/>
<path d="M65.85 102.838C65.8015 102.737 65.7287 102.616 65.6074 102.475C65.6802 102.677 65.753 102.777 65.85 102.838Z" fill="#81A8D7"/>
<path d="M23.2925 118.961L23.9233 119.303L23.4381 118.679L23.2925 118.961Z" fill="#81A8D7"/>
<path d="M24.0688 117.31L24.4085 118.599L24.5784 117.391C24.4571 117.471 24.2144 117.612 24.0688 117.33V117.31Z" fill="#81A8D7"/>
<path d="M56.3146 134.339L56.4117 134.037C56.3389 133.695 56.1933 133.655 55.8536 133.554L56.3146 134.339Z" fill="#81A8D7"/>
<path d="M50.4429 132.79H50.4914C50.2973 132.407 50.0789 132.004 49.8363 131.602L50.4429 132.79Z" fill="#81A8D7"/>
<path d="M50.3458 135.447C50.5642 135.225 50.4914 134.822 50.7098 134.601C50.5642 135.225 48.7687 134.762 50.3458 135.447Z" fill="#81A8D7"/>
<path d="M144.341 114.774C147.301 117.552 149.485 121.497 152.008 123.953C177.655 148.852 207.983 172.564 231.81 198.026C233.945 200.321 234.357 204.226 236.007 205.575C237.342 206.662 239.986 206.581 240.86 207.527C241.272 207.97 240.181 209.5 241.321 211.09C242.825 213.183 246.732 214.472 248.284 215.941C249.959 217.511 252.288 220.027 254.302 221.959C257.432 224.979 270.024 237.136 270 240.136C266.021 247.523 260.707 247.865 253.428 243.195C213.467 204.629 173.967 166.263 134.515 127.455C128.813 121.839 111.562 112.117 121.291 104.528C130.123 97.6445 135.873 109.118 140.629 113.425C141.648 114.351 143.783 114.291 144.341 114.814V114.774ZM138.882 119.343C139.076 113.365 131.069 110.567 129.031 105.434L124.154 108.917C124.251 109.42 130.026 116.445 130.948 117.391C139.78 126.61 150.237 133.997 158.802 143.377C159.918 144.585 160.622 145.873 162.878 145.49C165.984 142.532 151.96 133.192 149.631 130.998C146.282 127.817 143.686 123.892 139.925 120.954L142.327 119.464L138.882 119.343Z" fill="#05194C"/>
</g>
<defs>
<clipPath id="clip0_485_121">
<rect width="270" height="246.275" fill="white"/>
</clipPath>
</defs>
</svg>
